ply
format ascii 1.0
element vertex 51
property float x
property float y
property float z
property uchar red
property uchar green
property uchar blue
end_header
0 0 0 255 0 0
0.81695515 0.86653185 -3.1418486 145 3 3
-0.6838949 -1.8405734 6.6172204 193 112 11
-0.6116233 -1.6339543 5.9848204 20 20 1
-0.24293862 -0.6338271 2.6374803 17 17 1
2.0233808 1.3989305 -6.224906 75 89 3
1.8983971 1.3250816 -5.9040937 151 116 8
1.9406626 1.3651131 -6.091598 149 115 9
1.8681659 1.3167912 -5.8767376 172 102 9
1.6415565 1.1934371 -5.3555975 143 119 8
1.5801058 1.1512213 -5.166846 176 94 9
1.5632397 1.1562803 -5.2038207 144 114 8
1.3255094 1.0247877 -4.644906 140 115 8
1.2864789 1.0058173 -4.566469 163 105 9
1.2275591 0.97702724 -4.4484024 147 113 8
1.1335846 0.91019344 -4.14998 142 111 8
1.0834773 0.8720621 -3.976651 171 98 9
1.1681385 0.9572838 -4.3776026 143 108 8
0.9079348 0.7532677 -3.4498098 176 93 10
0.96726817 0.80839264 -3.7071085 145 106 8
0.72364324 0.6057152 -2.7775738 170 98 10
0.85910344 0.7256868 -3.332794 149 108 8
0.8186318 0.6932821 -3.1843975 177 93 10
0.845113 0.72205573 -3.3211353 160 101 9
0.73919487 0.6329371 -2.9113245 182 85 10
0.59777486 0.5274722 -2.4366572 166 96 9
0.5607579 0.50072277 -2.3167446 173 89 10
0.5312059 0.47794917 -2.214071 136 106 7
0.4511185 0.41134158 -1.9083592 164 97 9
0.40730408 0.3760206 -1.747218 169 89 9
0.29621056 0.27990824 -1.3042982 170 93 10
0.24557637 0.23503491 -1.0967675 172 90 9
0.2127028 0.20532973 -0.9593644 142 105 8
0.17140089 0.1675989 -0.7841485 147 102 8
0.15623076 0.15328765 -0.7172596 175 89 10
0.0672768 0.06755033 -0.31665933 151 97 7
0.09878799 0.099425726 -0.4663879 177 89 11
-0.16836275 -0.20034735 0.9587858 165 93 10
-0.18446441 -0.2224246 1.0656979 153 96 9
-0.17810398 -0.21561429 1.0332464 173 88 11
-0.19784974 -0.25618377 1.2352482 174 79 10
-0.2449119 -0.3210761 1.5499815 142 96 8
-0.28577444 -0.38192534 1.8464423 150 94 9
-0.2707352 -0.3772318 1.829974 175 77 11
-0.31818286 -0.44926533 2.1825588 140 96 8
-0.30705464 -0.43562835 2.1166677 171 81 11
-0.31743324 -0.4593456 2.2325802 185 137 13
-0.3167299 -0.45256266 2.2161825 5 106 5
-4.1620927 -4.6040325 37.026695 44 44 0
6.30503 1.403577 -19.883312 3 94 3
-0.7246294 -0.1178481 4.8964434 70 90 2
