ply
format ascii 1.0
element vertex 95
property float x
property float y
property float z
property uchar red
property uchar green
property uchar blue
end_header
0 0 0 255 0 0
-5.202512 -11.478741 33.9702 145 3 3
-3.5982857 3.818396 -13.053944 193 112 11
-2.629984 2.6655927 -9.647425 20 20 1
-0.7999336 0.5965607 -3.3100972 17 17 1
3.832367 1.9477333 -11.907422 75 89 3
3.5956268 1.8720338 -11.497056 151 116 8
3.5783875 1.9070957 -11.785151 149 115 9
3.4488933 1.84637 -11.412477 172 102 9
2.9579914 1.7287134 -10.908928 143 119 8
2.7989533 1.645213 -10.385669 176 94 9
2.7501097 1.6966542 -10.827814 144 114 8
2.1889992 1.5722616 -10.317787 140 115 8
2.005481 1.5069386 -9.958505 163 105 9
1.7225549 1.3978736 -9.349965 147 113 8
1.6888323 1.4136283 -9.502776 142 111 8
1.6165595 1.3632413 -9.16584 171 98 9
0.2536338 0.28906953 -2.0062096 143 108 8
1.263811 1.2235954 -8.370708 176 93 10
1.0517409 1.0809493 -7.4501615 145 106 8
0.81909835 0.8225546 -5.651813 170 98 10
1.1150709 1.192912 -8.260165 149 108 8
1.0688884 1.1542555 -7.993723 177 93 10
0.75985885 0.8901561 -6.215606 160 101 9
0.93211085 1.0664585 -7.4257936 182 85 10
0.67503464 0.9352072 -6.630154 166 96 9
0.5905166 0.8992081 -6.4214344 173 89 10
0.5556089 0.8996866 -6.457934 136 106 7
0.43355712 0.7786202 -5.621032 164 97 9
0.35679528 0.729021 -5.3018765 169 89 9
0.20356931 0.53560466 -3.9408925 170 93 10
0.1367358 0.42937812 -3.1783044 172 90 9
0.12289107 0.45514217 -3.3911319 142 105 8
0.06024733 0.2829064 -2.1194851 147 102 8
0.057205763 0.2925683 -2.1941857 175 89 10
0.012998805 0.15678568 -1.1896659 151 97 7
0.010325334 0.1399577 -1.0618411 177 89 11
0.16719732 -0.22206107 1.8380867 165 93 10
0.20038931 -0.24567266 2.0456386 153 96 9
0.19329865 -0.23205428 1.9338114 173 88 11
0.28362533 -0.2465628 2.117222 174 79 10
0.39990425 -0.3307128 2.8568583 142 96 8
0.535217 -0.4127957 3.592243 150 94 9
0.55217355 -0.37136996 3.2867656 175 77 11
0.7344801 -0.47346506 4.220698 140 96 8
0.7026838 -0.447475 3.992332 171 81 11
0.7781303 -0.4732251 4.2291765 185 137 13
0.7643559 -0.45334923 4.1999016 5 106 5
-2.356128 -0.8934412 -8.978092 44 44 0
-4.644208 4.372001 15.252274 3 94 3
10.60406 22.25883 63.34265 70 90 2
1.5711497 5.3263636 -17.057577 146 3 3
-10.399377 11.887849 -36.917114 137 126 5
-7.6994033 7.277806 -30.058054 1 1 1
-7.6295714 7.1534343 -29.874186 18 18 1
2.1642423 1.6404334 -10.947213 128 120 7
2.169523 1.6569709 -11.000069 168 109 9
2.1427987 1.6563958 -11.016202 163 111 10
2.0592337 1.6215581 -10.939938 150 114 8
1.9061742 1.6085668 -10.984576 158 107 8
1.804042 1.5867678 -10.963093 153 111 8
1.7781842 1.5953602 -11.009075 166 105 10
1.7520052 1.5969472 -11.031588 161 104 9
1.7129823 1.5800569 -10.990718 154 108 9
1.6699374 1.5560293 -10.924391 146 112 9
1.5914592 1.5783247 -11.05153 164 105 10
1.555152 1.5638741 -11.017099 160 104 9
1.5205519 1.5515391 -10.9894085 156 102 9
1.4676418 1.5669149 -11.077091 159 104 9
1.4415215 1.5714983 -11.110263 151 109 8
1.4160874 1.5781835 -11.151207 143 109 8
1.3815467 1.5770732 -11.1633835 159 101 8
1.3515692 1.5867491 -11.21527 167 99 10
1.293733 1.5897505 -11.260289 157 101 8
1.2656592 1.5943689 -11.294582 152 107 8
1.2325319 1.6008024 -11.335501 163 98 9
-6.4478917 5.486409 -26.79436 17 17 1
1.1716115 1.6174527 -11.43269 166 95 9
1.1422132 1.6242294 -11.476715 162 98 9
1.0474534 1.6468431 -11.617144 161 93 9
0.98553085 1.6669524 -11.733919 147 105 8
0.9483945 1.6759423 -11.78734 162 91 8
0.9105413 1.6839877 -11.837294 171 93 9
0.8436711 1.7104658 -11.98412 155 97 8
0.7279398 1.7300185 -12.120916 175 92 10
0.083216004 1.613042 -11.934983 155 88 8
-0.19705544 1.6262492 -12.109963 162 86 8
-0.28948867 1.641731 -12.217848 169 87 10
-0.32572308 1.6391839 -12.2224455 167 87 10
-0.43129632 1.6718025 -12.420233 153 93 8
-0.48273203 1.6303004 -12.242417 170 142 10
-0.42047086 1.5558039 -11.961428 4 105 4
5.7035346 1.2417651 10.001923 74 74 1
-2.0650828 1.3603925 3.146753 2 93 2
3.7536583 5.943419 16.353569 83 92 3
