ply
format ascii 1.0
element vertex 95
property float x
property float y
property float z
property uchar red
property uchar green
property uchar blue
end_header
0 0 0 255 0 0
0.81695515 0.86653185 -3.1418486 145 3 3
-0.6838949 -1.8405734 6.6172204 193 112 11
-0.6116233 -1.6339543 5.9848204 20 20 1
-0.24293862 -0.6338271 2.6374803 17 17 1
2.0233808 1.3989305 -6.224906 75 89 3
1.8983971 1.3250816 -5.9040937 151 116 8
1.9406626 1.3651131 -6.091598 149 115 9
1.8681659 1.3167912 -5.8767376 172 102 9
1.6415565 1.1934371 -5.3555975 143 119 8
1.5801058 1.1512213 -5.166846 176 94 9
1.5632397 1.1562803 -5.2038207 144 114 8
1.3255094 1.0247877 -4.644906 140 115 8
1.2864789 1.0058173 -4.566469 163 105 9
1.2275591 0.97702724 -4.4484024 147 113 8
1.1335846 0.91019344 -4.14998 142 111 8
1.0834773 0.8720621 -3.976651 171 98 9
1.1681385 0.9572838 -4.3776026 143 108 8
0.9079348 0.7532677 -3.4498098 176 93 10
0.96726817 0.80839264 -3.7071085 145 106 8
0.72364324 0.6057152 -2.7775738 170 98 10
0.85910344 0.7256868 -3.332794 149 108 8
0.8186318 0.6932821 -3.1843975 177 93 10
0.845113 0.72205573 -3.3211353 160 101 9
0.73919487 0.6329371 -2.9113245 182 85 10
0.59777486 0.5274722 -2.4366572 166 96 9
0.5607579 0.50072277 -2.3167446 173 89 10
0.5312059 0.47794917 -2.214071 136 106 7
0.4511185 0.41134158 -1.9083592 164 97 9
0.40730408 0.3760206 -1.747218 169 89 9
0.29621056 0.27990824 -1.3042982 170 93 10
0.24557637 0.23503491 -1.0967675 172 90 9
0.2127028 0.20532973 -0.9593644 142 105 8
0.17140089 0.1675989 -0.7841485 147 102 8
0.15623076 0.15328765 -0.7172596 175 89 10
0.0672768 0.06755033 -0.31665933 151 97 7
0.09878799 0.099425726 -0.4663879 177 89 11
-0.16836275 -0.20034735 0.9587858 165 93 10
-0.18446441 -0.2224246 1.0656979 153 96 9
-0.17810398 -0.21561429 1.0332464 173 88 11
-0.19784974 -0.25618377 1.2352482 174 79 10
-0.2449119 -0.3210761 1.5499815 142 96 8
-0.28577444 -0.38192534 1.8464423 150 94 9
-0.2707352 -0.3772318 1.829974 175 77 11
-0.31818286 -0.44926533 2.1825588 140 96 8
-0.30705464 -0.43562835 2.1166677 171 81 11
-0.31743324 -0.4593456 2.2325802 185 137 13
-0.3167299 -0.45256266 2.2161825 5 106 5
-4.1620927 -4.6040325 37.026695 44 44 0
6.30503 1.403577 -19.883312 3 94 3
-0.7246294 -0.1178481 4.8964434 70 90 2
1.3686216 1.5560472 -5.5897717 146 3 3
0.44477132 0.997387 -3.7764704 137 126 5
-0.4753662 -1.452346 5.822648 1 1 1
-0.4661669 -1.4229583 5.731512 18 18 1
-3.158059 -2.1332977 9.422157 128 120 7
-2.8795369 -1.9432902 8.578939 168 109 9
-2.701628 -1.8303323 8.086833 163 111 10
-3.0207465 -2.080594 9.221104 150 114 8
-2.4850724 -1.7605705 7.8426766 158 107 8
-2.59003 -1.8778468 8.39703 153 111 8
-2.27099 -1.6526853 7.394589 166 105 10
-2.1080432 -1.5407523 6.8995333 161 104 9
-2.4368849 -1.8023775 8.088728 154 108 9
-3.3628125 -2.5266862 11.365858 146 112 9
-2.1989 -1.6732512 7.5426373 164 105 10
-2.839231 -2.191619 9.901477 160 104 9
-4.0910993 -3.20335 14.50414 156 102 9
-2.8615103 -2.2614808 10.255112 159 104 9
-2.553112 -2.027808 9.203513 151 109 8
-2.1288147 -1.6957648 7.7026 143 109 8
-2.627045 -2.1226573 9.660613 159 101 8
-2.1395686 -1.7366477 7.9091363 167 99 10
-2.612269 -2.1637976 9.88452 157 101 8
-2.5252874 -2.1075172 9.636804 152 107 8
-3.4384906 -2.911412 13.337722 163 98 9
-0.29565856 -0.9239214 3.9586217 17 17 1
-2.009284 -1.7161186 7.8744254 166 95 9
-2.951295 -2.5589564 11.765551 162 98 9
-1.6610901 -1.4658675 6.758005 161 93 9
-1.9944395 -1.7984014 8.315426 147 105 8
-1.5257448 -1.384383 6.4066596 162 91 8
-1.197128 -1.0931425 5.063388 171 93 9
-1.3487028 -1.2594458 5.8509026 155 97 8
-0.71212006 -0.68012744 3.1699345 175 92 10
0.11627206 0.11384961 -0.52759814 155 88 8
0.20889677 0.22437699 -1.0550774 162 86 8
0.23482275 0.25909284 -1.2226439 169 87 10
0.2455029 0.27407053 -1.2950389 167 87 10
0.27244654 0.31284496 -1.4834225 153 93 8
0.28728864 0.33738244 -1.6032023 170 142 10
0.2837898 0.3309344 -1.5767989 4 105 4
-1.2254446 -1.6919044 13.901549 74 74 1
-0.60032463 -0.014214441 1.739051 2 93 2
0.12525879 0.1466675 -0.5392584 83 92 3
