ply
format ascii 1.0
element vertex 480
property float x
property float y
property float z
property uchar red
property uchar green
property uchar blue
end_header
0 0 0 255 0 0
-1.1762631 0.13733242 -1.7687051 139 142 187
0.106010996 -0.44857532 3.3592973 132 112 139
-1.0593029 0.5784303 -5.7359033 86 64 85
1.1195295 -0.37973565 2.9173071 73 49 71
0.3791369 -0.36749816 2.7685246 127 110 142
0.3199761 -0.54495454 4.395694 118 95 123
-1.2737832 -0.2695184 1.7516718 134 115 135
-0.7378041 0.18749382 -2.2987068 90 66 90
1.4788018 -0.6506052 5.4847846 88 76 96
0.0540533 -0.3399485 2.6630158 91 67 89
-0.7243112 -0.3044887 2.1502786 89 66 86
-0.30457816 -0.11050361 0.47966132 79 59 84
2.8491263 -0.9877281 8.920054 75 55 80
-1.6031662 -0.54278183 4.3794513 112 104 127
-0.9596275 -0.36046225 2.7787914 77 53 75
-1.0494851 -0.33474392 2.5403883 83 60 78
-1.2976604 -0.82814115 7.2016897 104 81 107
3.1185827 -0.8552163 7.904985 102 77 99
1.1191349 -0.69960654 6.124849 102 78 100
-0.313042 -0.23613222 1.7524364 117 94 114
-1.2621309 -0.6951934 5.9867296 79 54 75
0.5025288 -0.1574498 0.9496196 136 149 184
-1.3585862 -0.71681994 6.241513 90 61 79
-0.9093179 -0.3607713 2.8782735 94 71 89
-1.1465877 -0.8804778 7.8583865 116 96 108
1.0557514 -0.53090703 4.689224 85 75 102
-1.7029984 -0.56582946 4.8404512 88 73 96
0.14489523 -0.095448606 0.3873274 127 133 181
-0.8419209 0.09271813 -1.4377109 110 87 115
-0.4634218 -0.07084002 0.18596946 64 45 65
-1.2442678 0.13698186 -1.8953224 153 181 221
0.9517683 -0.22150984 1.6513873 138 150 198
0.58777016 -0.16233318 1.0895365 118 128 177
-3.9531658 0.64487 -7.179012 143 120 138
0.39417362 -0.4022792 3.5343986 85 54 72
-0.6703966 0.1254736 -1.8210418 106 80 89
-0.6805628 -0.26366672 2.1577263 81 58 74
3.2433922 -0.55729866 5.2766523 140 158 204
1.5566634 -1.0054072 9.794072 101 83 107
-0.743298 0.07253383 -1.3120577 50 46 73
-1.0786021 -0.79565924 7.481091 128 113 132
0.8310675 -0.80329406 7.7554693 107 77 101
-0.92583966 0.12594955 -1.7999309 96 71 92
-0.63852316 0.041648604 -0.8829653 109 116 160
2.7418306 -0.83161 8.494401 106 79 94
-1.0343552 -0.10957915 0.3488757 130 109 128
-1.8092406 0.7508406 -8.272411 100 76 100
-0.8249387 -0.03247824 -0.23081253 96 81 102
-0.8374173 -0.042045917 -0.13155064 93 71 92
-0.7835988 0.0642049 -1.1611269 120 91 109
-0.7427268 -0.36299917 2.9557688 58 46 68
0.77312666 -0.44601732 4.299684 95 77 99
1.1660538 -0.68012124 6.8234406 103 75 90
-0.8128081 0.40734106 -4.6739454 112 55 74
-1.8371941 0.5091063 -6.0088377 102 74 86
1.2508225 -0.79382116 8.152602 135 111 125
1.3109257 -0.43489218 4.362352 70 52 64
1.2268724 -0.41524816 4.147569 70 46 60
-1.095667 -0.7576326 7.545832 92 76 102
-1.6900873 0.6987437 -7.7994275 138 113 135
-1.557965 0.6575515 -7.390573 137 110 129
-1.2301798 -0.6914787 6.9112544 71 57 80
-1.66184 0.77116346 -8.602995 92 59 78
-1.5195141 0.76152885 -8.541032 109 48 64
-0.71579105 0.07605871 -1.380268 90 75 94
-1.5075506 0.7551154 -8.5166235 147 96 111
-1.4968389 0.74598503 -8.434777 139 89 101
-1.6430271 -0.7075197 7.009721 121 102 121
-1.5641102 0.75717413 -8.582151 95 39 48
-1.3765332 0.7034909 -8.064486 80 36 51
-2.095503 0.768984 -8.8364525 104 80 96
-1.5016143 0.7354577 -8.451423 66 28 39
-1.5575604 -0.3921782 3.7158682 130 106 122
-1.0090264 -0.16697237 1.2393131 73 57 83
-1.0569478 -0.30516505 2.8265975 87 68 88
-1.0754025 -0.32667723 3.064327 84 62 83
3.1382184 -0.7431235 8.47558 106 82 106
-0.66616386 0.0808561 -1.4683902 116 104 124
-1.2067412 -0.26888672 2.3511732 120 110 134
-1.2062367 -0.7106256 7.2804694 83 59 81
-0.7255891 0.19182721 -2.6622686 93 42 57
-1.2566222 -0.79177916 8.286129 96 81 102
-3.0844417 0.37075746 -5.2988214 86 61 82
0.20705827 0.31097397 -3.9744527 139 128 142
0.2211447 0.31312272 -4.0034914 47 33 48
-2.1081007 0.7644137 -9.229592 154 132 155
0.18175724 0.30168077 -3.9161096 155 157 206
-2.6198096 0.84287155 -10.311517 101 74 93
-2.2480593 0.7463126 -9.289147 65 37 49
-2.2601426 0.74024147 -9.230126 82 68 94
-2.2628903 0.7418258 -9.287367 121 98 118
-2.3691406 0.75264305 -9.438978 106 78 100
-2.4763727 0.762092 -9.574591 109 77 98
-2.450718 0.7591848 -9.53876 111 79 100
-2.2061079 0.72166705 -9.163155 76 52 66
-2.2293308 0.7343822 -9.321188 50 30 39
-2.3025103 0.7363961 -9.362681 108 80 102
-2.1790767 0.7314074 -9.313106 64 42 44
-0.48248672 -0.016460437 -0.11946545 98 73 92
-0.7160273 0.09559834 -1.6912574 88 38 50
0.23594245 -0.07174458 0.51608104 122 135 180
-0.5342136 0.27136365 -3.9085126 122 101 120
-1.1873044 -0.14214638 1.2277886 74 66 90
-2.3995984 0.73526585 -9.567665 87 60 79
0.5757235 -0.110260256 1.0362563 138 152 197
-0.81809926 -0.072278544 0.30380857 86 44 58
-0.5593811 0.010665984 -0.47745267 99 70 90
-1.1694245 -0.29437074 3.3411562 108 81 96
-0.18745442 -0.017228855 -0.1593327 155 175 212
-2.732778 0.30450863 -4.4515095 65 70 92
-0.08195731 -0.029981704 0.013698091 118 129 175
-1.6598152 -0.41773215 4.8665047 85 68 86
-1.6411239 -0.41051528 4.7727594 113 92 111
-2.5674193 0.730114 -9.84513 103 73 97
0.26566213 -0.069657914 0.5602165 154 173 213
0.32498738 -0.07630628 0.6569881 126 143 187
-5.5408306 0.6829233 -9.84659 102 72 98
-1.8813626 0.18765399 -2.9520793 51 46 66
-0.9461707 0.073369846 -1.3858014 76 89 131
0.107045464 -0.05030892 0.3134977 137 146 187
2.0755117 -0.8489586 10.998558 103 71 84
2.0542896 -0.8490267 11.002191 105 73 86
-2.4558842 0.702522 -9.779529 91 59 74
-2.4622636 0.72539353 -10.228296 119 64 85
-4.9129295 0.5794568 -8.58433 76 55 74
-2.475648 0.720747 -10.178557 125 70 91
-2.5726588 0.7028026 -9.976964 133 120 137
1.907967 -0.33177242 4.7452197 129 104 123
-2.6448681 0.7032866 -10.087609 115 75 99
1.4294091 -0.25435916 3.6425464 94 69 91
-2.5102713 0.7214166 -10.338679 117 73 88
-2.5197105 0.7146426 -10.352682 96 48 64
-2.5646198 0.7140605 -10.367575 136 85 100
-0.7569994 0.009734461 -0.6263906 64 28 38
-2.5585272 0.7107548 -10.361868 99 48 65
-1.1580099 0.54830486 -8.050193 74 42 53
-2.6799908 0.26907074 -4.3566933 62 63 94
-2.767167 0.695128 -10.309718 101 63 86
-2.7583156 0.6911023 -10.251697 87 62 84
-1.606537 -0.6493163 8.304261 103 88 111
-2.770412 0.69016427 -10.260404 77 64 84
-2.7547288 0.6877894 -10.266666 105 70 90
-2.09331 0.19491261 -3.2861536 131 150 190
-0.6907891 0.16184972 -2.732184 93 60 69
-1.5905012 -0.631407 8.183981 101 82 102
-1.5574964 -0.6325804 8.21694 109 81 96
-2.5215247 0.68985766 -10.399879 72 31 39
-1.5894758 -0.62306774 8.136725 100 75 96
-3.0564537 0.69736177 -10.614202 107 80 99
-2.9251568 0.688924 -10.509886 117 87 99
-2.9632201 0.6911447 -10.546476 109 81 95
-1.5812145 -0.60981345 8.04583 99 74 95
-2.6854544 0.6766173 -10.380562 55 28 35
-3.1091325 0.6908729 -10.664352 122 98 112
-2.8973167 0.6810979 -10.502256 113 80 91
-3.0871973 0.6901108 -10.661943 100 72 94
-2.6438508 0.6767857 -10.434531 76 33 40
-1.4038177 -0.23398182 3.1258624 92 70 91
-0.8831655 -0.009861726 -0.41320333 139 156 202
-0.87249297 -0.18451156 2.8051984 68 32 44
-0.7532799 0.04846265 -1.008879 107 78 98
-2.6791968 0.24603087 -4.2863045 110 126 151
-1.3224311 -0.16448057 2.1978312 88 61 78
-2.306648 0.20528401 -3.6500866 94 99 129
0.6190698 -0.6707041 9.810874 66 36 44
-0.7654323 0.015682368 -0.70398694 74 57 73
0.3050343 -0.0408456 0.6155533 164 181 225
-1.5048584 0.5566562 -9.003876 90 40 51
-0.8365858 0.056746606 -1.2041326 154 169 210
-0.857786 0.37187254 -6.114115 73 36 44
-1.0359684 -0.23131092 3.032083 83 33 45
-1.0196977 -0.20760079 2.7015388 132 79 95
-0.97907007 -0.030669454 0.058654718 88 70 94
-0.8539961 -0.12237001 1.9911436 104 67 75
-2.2884977 0.19803195 -3.6137266 57 62 102
-3.1389108 0.6533144 -10.848781 99 75 99
-0.79824543 0.32894537 -5.5882754 76 34 44
-1.9085442 0.1598384 -3.0139894 124 133 162
-0.8782833 0.06674353 -1.3376127 67 45 57
-0.8613203 0.36380592 -6.188074 66 33 44
-0.75763756 0.2851632 -4.932833 68 31 38
-0.8718111 0.3687745 -6.277806 66 30 42
-0.86176115 0.3689889 -6.310021 87 45 57
-0.016622856 -0.015872112 0.09766451 111 125 172
-1.3845212 -0.21534485 3.3366482 77 56 63
-1.2391922 -0.17112647 2.6352277 129 105 121
-1.6223559 0.12377319 -2.4777036 103 111 157
-1.035655 0.4238112 -7.4023066 73 30 40
-0.60893583 0.121277586 -2.4593122 66 48 60
-0.44542712 0.032077238 -0.57844603 128 142 187
-1.4775159 0.10515191 -2.2121475 137 145 194
-3.1510377 0.26912618 -5.093357 106 111 140
-1.3117331 0.09336069 -1.9714198 103 111 158
-0.872541 -0.07705821 1.0460727 81 51 61
-0.8329044 0.011314698 -0.6454445 123 138 179
-1.3285158 -0.34859613 5.970106 77 60 78
-2.5737145 0.17861098 -4.0713673 103 111 147
-0.9899315 -0.09129034 1.4773997 71 54 70
-0.773415 0.0056724157 -0.41874784 95 45 54
-1.4124599 -0.23116842 4.1810107 67 54 80
-0.7508382 0.030728385 -0.8837566 59 35 49
-0.7782903 -0.00018954232 -0.30191132 90 48 52
-3.7975457 0.28195748 -6.1702476 95 91 114
-0.7434312 0.041311942 -1.0936245 68 37 52
-0.7191919 0.048817568 -1.0148971 110 120 169
-1.1523597 -0.06934441 1.0786022 96 73 93
-0.19151415 6.973542e-06 0.22865242 129 106 124
-0.9896344 0.35275742 -7.461561 54 25 27
-0.987063 0.34824336 -7.4200363 99 77 64
-1.1731901 0.39614692 -8.439478 90 61 66
-0.9912155 0.3578078 -7.6384683 57 29 26
-1.8757676 0.118747376 -2.8793828 98 102 149
-2.2954707 0.14484626 -3.5746326 88 101 145
-2.4071016 0.1505042 -3.7567866 86 94 143
-0.96508235 0.34447178 -7.499634 138 122 107
-1.7589444 0.109588675 -2.6648884 123 137 182
-0.9107363 0.31245604 -6.988759 81 59 45
-0.7031233 0.112008765 -2.6423914 96 61 68
-1.0523067 0.3454763 -7.9352207 129 110 93
-1.0414325 0.34366834 -7.9171915 159 142 122
-1.028699 0.33942744 -7.8540597 159 142 122
-1.2069489 0.073629424 -1.7932339 154 172 212
-0.9073009 0.055418536 -1.3138711 103 113 162
-0.87982965 0.053742822 -1.2705789 138 146 192
-0.8978872 0.0545967 -1.2988564 114 120 172
-1.0706339 -0.12049913 2.5348423 82 65 83
-1.0685422 -0.124788955 2.6282153 81 53 68
-4.2105427 0.48570806 -12.186076 106 77 95
-0.7491067 0.03407714 -0.94508576 75 33 45
-1.4451501 -0.22168882 4.837981 94 78 89
-1.4554962 -0.20622012 4.4863067 64 51 69
-1.4501565 -0.21344465 4.6749034 88 79 98
-1.4538612 -0.21441676 4.705089 112 100 124
-0.88315254 0.2933252 -7.1353793 143 115 104
-0.12982032 -0.30904114 7.81936 67 24 31
-0.8785959 0.29173452 -7.131163 105 72 67
-1.373434 0.36585897 -9.061805 74 30 43
-2.724682 0.1596776 -4.3039203 68 76 112
-0.703605 0.04313331 -0.9916846 113 129 178
-1.0319333 0.061282106 -1.5115539 145 157 199
-0.6885133 0.21332204 -5.268135 60 23 30
-4.3286943 0.46965078 -12.347985 98 69 89
-2.6582253 0.15500586 -4.1873007 105 124 154
-1.2528698 -0.10171003 2.450512 115 93 116
-1.4389558 -0.20656197 4.651202 87 72 93
-2.871327 0.16710812 -4.538566 104 113 144
-2.7896338 0.1620983 -4.3946486 128 144 177
-2.886533 0.16739365 -4.56563 64 70 106
-2.780327 0.16011079 -4.3774805 125 141 175
-4.178213 0.4565381 -12.236374 101 73 95
-4.315337 0.4588826 -12.331509 132 109 127
-0.90331197 0.053842712 -1.307761 149 152 197
-0.7690221 0.24804996 -6.2746634 68 27 35
-1.0229093 0.060040485 -1.4978011 111 107 157
-0.77788836 0.026849892 -0.8941406 96 109 153
-2.6100698 0.14457282 -4.0316668 148 162 199
-4.330046 0.4501476 -12.3652115 90 65 84
-0.69696814 0.20841599 -5.34829 53 23 31
-4.2769876 0.44749817 -12.328538 128 105 125
-4.1633825 0.44458207 -12.270014 91 74 93
-1.1111771 0.06400159 -1.6375798 151 160 199
-4.2416234 0.4410533 -12.301875 125 107 129
-0.7013667 0.08864655 -2.3462005 96 59 66
-0.9373548 0.05468686 -1.3606169 111 126 169
-0.70012945 0.087357886 -2.3242815 70 38 43
-0.7245052 0.056424916 -1.521156 69 34 40
-4.33506 0.4332417 -12.421895 116 91 113
-4.1986527 0.4288678 -12.325658 83 65 91
-4.1954846 0.42804205 -12.300349 89 69 94
-1.4541837 0.07964514 -2.1883836 106 111 153
-0.82236314 0.01898461 -0.6842936 119 105 131
-0.8270755 -0.011367573 0.2558753 78 36 50
-0.7084932 0.07270874 -1.9788046 89 43 53
-1.3728989 -0.12833886 3.2343516 87 69 81
-4.1712723 0.41591042 -12.331129 45 33 43
-1.3161105 -0.13280939 3.4461348 87 43 56
-0.83440703 -0.014217471 0.36352515 81 41 52
-0.720262 0.060381435 -1.6590198 106 59 65
-1.3477799 0.07293555 -2.0103729 129 137 183
-1.291375 -0.12636119 3.3148422 145 99 112
-1.1669618 -0.054662116 1.6730025 64 45 64
-0.6815618 0.110537104 -3.1046934 71 31 40
-0.68522066 0.10674358 -3.0033407 63 30 39
-4.313879 0.22290902 -7.1247153 91 104 138
-0.7535646 0.1372896 -4.3234606 73 32 40
-1.3726611 -0.12617208 3.4274755 110 93 111
-1.2585332 -0.110944234 3.0572462 65 29 39
-0.7229843 0.1697631 -5.5273123 67 27 36
-3.235957 0.16127057 -5.196603 60 56 83
-0.7559275 0.030138288 -0.826921 85 48 56
-0.7465569 0.13082528 -4.218567 65 37 52
-1.0239592 -0.018770298 0.76928204 68 56 76
-0.85439855 0.0490851 -1.2289052 112 124 172
-2.968261 0.14323793 -4.7896576 54 57 88
-0.85029006 -0.013619969 0.5134169 71 33 46
-0.6881382 0.08213991 -2.4556687 121 71 80
-0.7286237 0.20104487 -6.2934437 77 31 41
-0.69893616 0.07026448 -2.082018 91 44 54
-1.7877991 0.08497554 -2.716141 97 107 156
-0.7077682 0.18968551 -6.0324526 102 59 68
-0.86061656 -0.01266646 0.54692113 99 59 68
-0.83690095 -0.002971145 0.24022049 97 52 59
-0.67842203 0.0998321 -3.0786598 70 32 47
-0.6635071 0.111819565 -3.4778857 91 47 62
-1.3393648 -0.105467245 3.4171844 53 40 57
-0.7704272 0.20741548 -6.7537327 94 52 66
-0.87659883 0.012744324 -0.40679747 93 71 92
-1.017499 -0.010808339 0.3774622 76 61 84
-1.1644479 -0.072722316 2.591595 61 31 39
-1.018397 0.00018020316 0.491038 80 65 86
-0.66668016 0.0833988 -2.6750317 82 39 49
-0.9354027 0.23284118 -8.289831 96 93 102
-0.6613768 0.11253144 -3.7671595 39 18 25
-0.9591842 0.23355629 -8.391145 104 99 105
-0.67121506 0.079238445 -2.5769265 79 38 46
-0.9833635 0.054406583 -1.4304713 130 144 189
-0.8851081 0.225596 -8.159947 153 141 143
-0.9763133 0.23169933 -8.424009 124 118 118
-0.8466693 0.22057386 -7.9732533 167 162 168
-1.2003679 -0.044035207 1.9987452 57 48 69
-0.9006782 0.22547647 -8.226312 190 180 171
-0.9292883 0.22785899 -8.317586 127 113 113
-0.9643724 0.23060136 -8.436644 195 193 180
-3.5079274 0.45229018 -14.15315 78 32 35
-0.736887 0.040179603 -1.1629599 58 25 34
-0.83101195 0.21812642 -7.9373436 138 120 120
-0.9831445 0.23070286 -8.468035 194 191 176
-0.97283196 0.2282515 -8.448787 125 114 108
-0.96714926 0.22690481 -8.4399805 109 103 107
-0.8793506 0.22090696 -8.2085285 55 40 33
-0.8904258 0.22155906 -8.237812 93 76 66
-0.73221606 0.042564075 -1.2550446 70 37 48
-0.9820388 0.22610772 -8.48283 116 106 107
-0.984979 0.22566776 -8.477158 128 118 116
-0.9202953 0.22211741 -8.338835 43 30 24
-0.93124723 0.22149777 -8.350752 66 53 44
-0.9783423 0.22362466 -8.4884 170 167 152
-0.8438068 0.20958856 -7.955193 68 62 66
-0.8927936 0.21624498 -8.2274475 73 69 83
-0.8436708 0.21078105 -8.042849 128 120 118
-0.96471566 0.21874045 -8.450229 52 33 35
-0.84018284 0.2070816 -7.9524045 137 126 120
-0.94159985 0.21703912 -8.396206 125 124 130
-0.91157913 0.2140814 -8.310082 177 171 157
-1.0646878 0.22249757 -8.703484 163 151 139
-0.17982465 0.038497414 -0.17065383 133 146 190
-0.93892825 0.2153364 -8.396922 155 152 147
-1.0622782 0.22345766 -8.760596 143 133 131
-2.0406325 0.080879584 -3.1166961 159 168 209
-0.98474723 0.21580008 -8.53207 128 121 103
-1.0610666 0.21982919 -8.73237 69 58 66
-1.0468472 0.21768118 -8.727831 160 153 145
-0.887428 -0.007555949 0.7191466 70 23 31
-1.2773073 -0.06705237 2.9896028 103 87 98
-0.8999065 -0.010024666 0.84251803 60 28 39
-0.87534446 0.20358498 -8.198234 117 104 85
-0.9067865 0.19601746 -8.152655 45 36 31
-0.8215786 0.18747057 -7.7776237 76 47 51
-0.8854274 0.19466367 -8.123009 45 34 30
-0.666232 0.14642665 -5.9062943 71 24 32
-0.68966365 0.15404439 -6.2603555 66 20 31
-0.7910234 0.027012525 -0.8232685 84 71 97
-1.2618785 -0.057156473 2.8551822 73 54 73
-0.7976204 0.026318716 -0.7927317 120 106 131
-0.7506812 0.16034494 -6.7850347 63 33 45
-1.2446823 -0.052658573 2.8669944 74 52 65
-0.7682765 0.16436258 -7.2560267 69 32 40
-0.86327964 0.017202333 -0.05703783 62 49 67
-0.9745633 -0.010569375 1.1388233 102 57 77
-3.468295 0.10206794 -5.485011 65 70 110
-0.77502173 0.027436163 -0.6017633 82 39 49
-0.6886275 0.14218348 -6.5178456 71 24 34
-0.7282202 0.14841792 -6.867251 79 34 41
-0.9231211 0.015293527 0.080508605 70 63 81
-3.697464 0.10112464 -5.928378 111 132 163
-0.8537432 0.02140329 -0.50548667 91 79 103
-3.7938914 0.10092602 -6.0862746 77 85 122
-6.400671 0.10783107 -11.174337 135 112 130
-0.7275183 0.03351124 -1.12002 123 109 132
-0.7506574 0.03143411 -1.011969 95 81 104
-3.4811225 0.08739406 -5.5129066 91 102 134
-1.7614337 0.1750871 -10.2809725 134 75 93
-3.4782288 0.08560905 -5.505538 62 67 99
-0.8275129 0.024991352 -0.63642454 93 79 104
-0.105273575 0.038813762 0.39971715 75 64 81
-1.0835792 0.004418771 0.98622346 111 136 202
-1.0840839 0.004451036 0.98839694 136 161 227
-1.0907184 0.0040233005 1.0480236 23 34 80
-3.4950416 0.067205176 -8.981352 111 103 126
-1.0835178 0.0064938026 1.008467 72 68 85
-0.8708225 0.11171567 -8.432265 55 57 105
3.096093 0.036712125 5.871232 102 85 104
-0.8702316 0.11156117 -8.485777 75 93 143
1.0840547 0.025383621 4.1124196 63 107 206
-0.8440969 0.024876364 -0.19256696 64 36 50
-0.9621462 0.016990686 0.52812684 57 40 50
-2.3298297 0.05196273 -3.5466113 134 146 194
-1.1380675 0.0023587032 2.7467957 80 42 53
-0.8544483 0.025003374 -0.14134338 104 72 73
-3.7089405 0.030127859 -5.8547792 94 107 139
-0.94870377 0.019916113 0.28265345 51 47 62
-0.9066688 0.022904038 0.17047872 64 35 40
-0.9130559 0.022982739 0.20203988 61 31 43
2.8547678 0.04694608 9.13814 119 101 115
-0.9389141 0.023590015 0.29131645 90 70 79
-0.8821639 0.02689505 -0.023029257 82 50 63
-0.69855684 0.036287926 -1.3889905 78 45 56
0.3338048 0.013496912 6.044661 73 32 46
-5.018418 0.04772015 -13.670061 117 105 125
-0.99200606 0.043683406 -2.6396625 78 37 45
0.65686285 0.02465587 5.9448767 83 37 47
-5.0651407 -0.04639869 -8.182751 66 75 114
-4.5866184 0.010901139 -13.453079 65 48 58
-5.7957063 -0.0028166277 -14.240979 92 65 74
4.1028976 0.11633095 10.491314 133 111 123
-4.909825 -0.0077066785 -13.725668 99 90 107
-3.6508212 -0.006659402 -12.073582 139 93 106
-4.037803 -0.012929461 -6.3663635 68 72 110
-4.357448 -0.028930219 -6.958368 79 87 126
-0.8452354 0.03408684 -0.47597998 66 34 45
-2.029007 -0.051002596 -10.313888 81 45 59
-1.8122696 -0.04942381 -9.78441 82 41 57
0.537952 0.0077812374 -4.8172736 59 103 68
0.6305777 0.0069437358 -4.972266 32 72 37
-0.6959071 0.028734181 -1.6287241 85 49 63
0.631397 0.0040885755 -4.9802933 45 80 48
-0.15136167 0.013690682 -3.2527926 116 99 115
-0.1395511 0.013137913 -3.2924988 105 84 99
-2.099027 -0.08142347 -10.526266 72 39 56
-2.2374716 -0.09167395 -10.844566 75 31 44
0.5516609 -0.0018947818 -4.873805 17 48 32
-1.8212605 -0.08408832 -9.822391 101 54 74
0.6133053 -0.0031783122 -4.9880514 127 137 136
0.58416486 -0.0030149168 -4.937133 94 127 120
-2.1740534 -0.098931044 -10.701292 79 48 66
1.2347466 -0.012502325 -6.1240582 131 142 144
-0.335108 0.013382367 -2.712779 119 122 139
-0.3629457 0.014308489 -2.6182745 103 119 135
-0.30609637 0.012125792 -2.8142009 64 66 91
-0.5059851 0.017573582 -2.2309017 83 44 63
-0.5072648 0.016909398 -2.2623458 74 41 62
-0.38213238 0.005298091 -3.1740732 80 42 57
0.61278814 -0.016491733 -5.1685386 76 87 81
1.2078116 -0.024076492 -6.071281 51 75 51
-0.3110269 -0.04727266 -6.853473 90 46 59
-0.90463436 0.045841917 0.058830675 91 54 71
-0.9115662 0.046442177 0.106303476 79 48 66
-0.28886014 0.00012666608 -3.1343691 74 43 61
1.0316731 -0.036851373 -6.0548224 97 108 92
0.87465614 -0.034967035 -5.837725 118 136 148
0.8821018 -0.03547817 -5.84257 125 138 146
0.7116447 -0.036108825 -5.607821 50 72 59
0.9063273 -0.043253936 -5.998197 83 98 101
0.81814355 -0.042680494 -5.8741527 45 58 49
-2.4105403 -0.19543341 -11.195523 67 49 65
-2.4502172 -0.19712901 -11.25442 71 49 61
-2.4070265 -0.19923098 -11.144689 115 90 111
-2.4042017 -0.20437661 -11.140356 130 89 103
-2.3588207 -0.2052117 -11.023775 80 51 69
1.0377082 -0.08062098 -6.7223916 52 60 63
-4.9129906 -0.30698833 -14.14375 69 58 75
1.8351766 -0.11221299 -8.127684 117 137 144
1.8484272 -0.112711236 -8.133658 110 123 131
-2.4716694 -0.23023963 -11.236011 74 50 63
-3.7568574 -0.29122537 -12.379169 142 108 124
0.06357387 -0.046695173 -4.2374754 78 83 105
-0.16037163 -0.033542298 -3.5254738 70 46 62
-0.18861008 -0.03366562 -3.4840221 62 54 69
0.14904241 0.15598606 2.7170124 84 83 97
-0.3878068 -0.12072881 -5.874475 79 51 66
-0.27665624 -0.041649878 -3.3494422 53 53 81
-0.26674062 -0.045893986 -3.484058 165 166 222
0.04430332 -0.06016469 -4.0063524 92 104 126
-5.925527 -0.4902929 -14.376937 92 99 117
-5.8575125 -0.49095485 -14.297884 126 131 150
-9.698546 -0.60797125 -15.733668 84 71 78
-10.0511675 -0.64427227 -16.21607 59 69 81
-10.118527 -0.66324395 -16.572414 49 54 73
-0.9147563 0.059646413 -0.2153382 102 113 135
