ply
format ascii 1.0
element vertex 820
property float x
property float y
property float z
property uchar red
property uchar green
property uchar blue
end_header
0 0 0 255 0 0
-17.248909 3.7883058 1.5086461 138 113 132
15.811578 3.3440964 -10.678128 109 81 104
14.166526 3.34291 -10.06886 71 53 75
13.849115 3.3417897 -9.940898 127 107 134
16.67113 3.2976255 -11.005995 140 117 135
14.447925 3.3230362 -10.172301 113 108 130
-18.505018 3.8777943 1.3941811 145 124 143
14.530605 3.2975972 -10.2104435 54 41 67
17.640419 3.2527795 -11.40614 120 86 110
28.229427 3.1606972 -15.672241 110 77 96
-17.305365 3.7165356 1.5513296 124 94 120
20.451952 3.2240548 -12.552417 102 69 88
17.597506 3.2499657 -11.403902 125 96 118
-17.234406 3.7109523 1.5279981 153 111 131
14.288883 3.280535 -10.115789 75 53 76
19.678755 3.2204323 -12.238911 112 80 101
-17.212147 3.7061884 1.534826 157 113 130
21.046152 3.1675189 -12.773948 129 101 123
20.748999 3.170902 -12.652652 105 76 96
14.49261 3.236677 -10.192289 59 43 70
23.69336 3.091655 -13.849443 140 109 125
19.92348 3.133714 -12.339168 137 114 134
20.458176 3.1107814 -12.545479 115 86 108
-18.304825 3.714674 1.6453993 69 57 71
27.151026 2.9946713 -15.261227 117 92 111
26.271038 2.9785686 -14.920963 117 83 99
-16.68532 3.6339736 1.2933687 80 51 56
-18.167627 3.686597 1.612132 119 98 113
-18.155415 3.6827667 1.5930974 140 127 145
27.876898 2.9392006 -15.567893 94 62 85
13.854524 3.1119182 -9.984394 59 44 65
20.955462 2.9990532 -12.767503 130 103 120
27.155397 2.916737 -15.276983 117 85 106
-18.044725 3.653207 1.5604829 63 44 50
-18.02332 3.6496568 1.5676483 56 35 42
-18.328474 3.6514094 1.6848822 139 124 145
-6.8040905 3.3190925 -1.5981638 90 40 52
-6.9872317 3.3225434 -1.5399945 110 68 78
-8.052638 3.2495322 -0.5784072 82 40 54
-8.42687 3.3536694 -1.0839256 90 51 69
-18.017622 3.6389964 1.5566729 125 98 117
-5.5963893 3.2642872 -1.9946611 102 56 67
32.88472 2.7001505 -17.643661 105 81 103
13.9807825 2.9667835 -10.020604 113 98 119
-2.4223797 3.160347 -3.0018911 106 65 71
3.982895 3.042384 -5.4615183 99 56 63
-11.987368 3.3077328 0.53342223 114 71 80
37.99411 2.5551205 -19.749208 93 72 105
37.136013 2.5680242 -19.41255 80 56 80
22.491287 2.7862508 -13.43038 112 77 97
-6.3170543 3.2250667 -1.7842275 101 54 72
-8.723218 3.2591379 -1.0206372 93 48 68
-12.642452 3.280591 0.70760185 88 47 63
21.41956 2.7021992 -13.024639 63 39 61
19.366991 2.735515 -12.184775 122 99 119
17.12553 2.778007 -11.311866 48 34 49
-16.97695 3.5190039 1.2176656 116 87 107
-17.330463 3.5123096 1.4197948 149 130 152
44.738747 2.2570293 -22.51933 107 75 86
152.84859 -0.81613696 -63.44273 102 75 94
16.64475 2.7405002 -11.138057 66 52 69
3.570344 2.891421 -5.3872366 99 56 66
-22.515015 3.7166932 3.0313528 122 93 121
22.764765 2.5473335 -13.569159 114 77 95
-23.88571 3.8450527 2.0573103 108 76 97
-228.19696 8.351366 89.71222 55 53 75
43.39294 2.1448667 -22.005175 97 63 77
-225.8165 8.302337 88.83202 68 64 89
-228.59612 8.371135 89.90865 50 38 60
45.31563 2.0444024 -22.79484 118 101 120
29.401571 2.3353236 -16.266123 111 84 101
-24.521631 3.97263 2.2527382 139 120 140
23.728514 2.412453 -13.985636 97 78 100
51.304104 1.8554399 -25.297344 105 81 97
-21.64186 3.535353 3.5669649 119 100 119
25.277475 2.3511078 -14.596208 95 76 98
2.3864913 2.7881253 -5.0074773 56 29 38
-23.019266 3.7400682 3.2020476 105 93 113
-2.691612 2.8913264 -2.9386318 71 33 44
8.823739 2.5758998 -7.12951 148 89 95
8.8921175 2.569036 -7.1321154 141 84 90
-21.674665 3.4735987 3.5861785 103 83 108
459.4568 -6.1150794 -196.88368 133 104 122
-7.113188 3.0031905 -1.4751136 76 43 60
-7.1495566 3.0064685 -1.4800229 66 38 53
-3.2202818 2.8814342 -2.7843187 94 47 65
-5.2696195 2.9415681 -2.0944624 94 53 69
32.997253 2.0926778 -17.74617 111 86 107
-6.632056 2.9788785 -1.6455306 80 39 55
52.498665 1.6679515 -25.802181 131 108 126
-253.51575 7.6870775 105.709145 94 74 102
52.71493 1.6450233 -25.895302 114 93 110
-15.559067 3.299899 0.9413437 114 76 89
-16.930426 3.3664117 1.1759019 101 71 97
22.308264 2.2960773 -13.413089 92 68 92
-16.907623 3.3625994 1.1827841 88 56 79
-15.511488 3.2902668 0.9160812 80 42 55
58.171032 1.4639025 -28.248901 56 42 55
56.355484 1.490743 -27.425806 115 88 97
-2.9172611 2.8127496 -2.8786042 90 44 57
-3.461262 2.8256767 -2.724722 122 78 91
51.017303 1.568134 -25.209188 132 104 116
-5.014856 2.8705442 -2.1813161 125 84 102
-3.0589914 2.8039591 -2.8376667 133 89 104
371.40063 -5.3764467 -160.34639 110 85 107
-6.84005 2.9319007 -1.6157347 132 90 102
-2.3917658 2.776895 -3.101356 108 65 72
61.32097 1.257377 -29.566328 128 117 133
72.482254 0.98655206 -34.23998 87 59 81
60.30003 1.2663313 -29.142303 99 89 113
58.541885 1.2925419 -28.364658 118 110 131
46.406204 1.5823346 -23.306747 132 102 110
-16.63671 3.297659 1.0678446 84 49 69
139.58386 -0.67138606 -62.452972 146 121 140
-6.4668117 2.8643267 -1.7260895 120 82 95
-6.553312 2.853895 -1.7057463 105 77 89
111.79433 -0.10404342 -50.74271 110 83 100
-13.822399 3.1275022 0.49969646 70 38 51
48.075447 1.4352294 -24.04099 109 78 94
41.872223 1.5704219 -21.482319 74 50 64
-14.945575 3.1651895 0.8068124 126 71 94
153.62302 -1.2037342 -68.39917 132 105 120
70.46234 0.828102 -33.354553 132 111 126
37.5972 1.6563892 -19.710001 125 101 115
25.130146 1.9632088 -14.621479 118 101 119
70.9468 0.7703311 -33.59111 86 62 78
-22.456615 3.5465891 2.7741053 108 82 111
-3.4282632 2.6967652 -2.7797418 78 38 47
-15.444189 3.168588 0.91930383 60 30 42
37.367924 1.6110234 -19.605688 128 103 125
-22.312035 3.462445 3.2329826 94 78 104
-23.396194 3.6356137 2.4316268 83 74 101
37.837776 1.5856764 -19.802982 106 77 105
47.290905 1.3234562 -23.696487 113 79 95
-14.947153 3.1358368 0.8023106 58 32 43
38.31663 1.55799 -20.041666 126 101 120
420.8772 -8.022101 -180.52373 117 102 123
310.47885 -5.5553064 -134.90628 104 71 90
75.943535 0.5012424 -35.736004 118 105 123
72.381096 0.5814203 -34.244686 76 61 80
204.2396 -2.9083219 -89.91152 116 82 98
76.12086 0.4205169 -35.797802 64 40 62
39.782555 1.4204642 -20.631155 128 110 134
-2.949653 2.6077173 -2.9534059 126 83 93
59.103756 0.82222056 -28.681133 113 75 96
136.7743 -1.3341894 -61.400158 107 78 98
72.867134 0.41491482 -34.450005 95 83 97
-5.80305 2.6899252 -2.009771 136 92 109
-15.0672245 3.0827994 0.78636074 105 63 75
-6.1157513 2.6957934 -1.8936493 129 83 94
-8.245418 2.803493 -1.3839983 88 49 68
291.78574 -5.638088 -127.12049 105 74 90
231.89923 -4.047027 -101.71323 107 74 85
40.2049 1.3021376 -20.844614 96 78 102
97.20451 -0.3379896 -44.715515 84 71 89
-3.8937016 2.5875144 -2.6057003 133 83 95
74.00827 0.3001226 -34.969208 58 39 58
-18.515848 3.2480297 1.5509777 110 50 60
143.78603 -1.702092 -64.38801 104 73 91
96.76352 -0.37848887 -44.539604 110 92 108
58.737305 0.6945032 -28.529324 102 64 85
-5.2995906 2.6400118 -2.2529664 138 86 98
98.392 -0.45732254 -45.20013 67 55 69
360.92868 -7.6927166 -155.15025 75 59 86
-431.55765 14.8730755 183.57292 54 49 69
-91.53438 5.280164 38.67026 79 64 95
445.88132 -10.407994 -192.15797 100 85 118
35.7176 1.3484597 -18.975803 105 76 98
-276.2854 10.590862 117.42898 74 61 78
350.26044 -7.778376 -152.04028 73 60 86
-170.37167 7.4007277 70.616264 115 106 127
8.61241 2.1130986 -7.3791966 82 51 59
-18.467684 3.2213323 1.5314322 89 35 48
362.34296 -8.214471 -157.05989 118 114 141
8.512005 2.1187127 -7.3767033 62 34 48
410.50146 -9.58495 -177.58315 91 76 107
400.09448 -9.343786 -173.12744 85 70 101
-23.658726 3.681696 2.063668 92 76 102
64.90862 0.1711337 -29.376743 102 83 102
42.966957 1.055891 -21.985607 111 79 102
-2.5877986 2.4732869 -3.1119206 113 67 80
55.882336 0.64873284 -27.358889 102 71 89
294.5187 -6.673833 -128.44463 103 83 111
450.61395 -11.38896 -194.09294 98 75 101
48.941364 0.7744437 -24.474367 100 66 83
-15.396465 3.003893 0.8596744 109 56 76
-15.420992 3.0054717 0.85251576 88 39 58
-18.568005 3.1809616 1.5343007 76 41 48
56.354153 0.2517347 -26.48463 74 55 75
-7.9800878 2.6461992 -1.4809767 118 75 85
-10.867757 2.7566547 -0.9215277 77 35 47
39.74657 0.9314899 -20.722546 95 78 96
51.778934 0.5057495 -25.713 97 81 107
32.106667 1.1521748 -17.549791 76 57 77
-11.072937 2.7421029 -0.5213678 73 36 53
33.568363 1.087272 -18.17748 101 78 106
51.141903 0.46514335 -25.415136 61 49 73
50.937477 0.47714987 -25.371204 67 49 73
-21.34581 3.1851892 3.2744699 121 88 107
52.22274 0.38456866 -25.917667 114 101 119
6.5726075 1.9721826 -6.8793616 103 63 71
52.332275 0.34893924 -25.94776 80 60 85
6.6055117 1.9653192 -6.881429 97 58 63
-23.448046 3.571423 2.727475 108 84 108
-22.687077 3.4927187 3.3659284 97 70 89
-10.136447 2.618692 -0.8092792 98 46 59
54.806053 0.07606028 -27.016869 113 100 118
54.353863 0.052245494 -26.834438 88 70 94
-325.91455 14.178454 138.97484 61 51 78
339.2076 -10.431475 -147.72838 115 93 106
57.77694 0.13868363 -25.225985 128 110 136
137.18907 -3.7850313 -57.74094 113 95 109
286.24475 -8.769556 -125.35882 99 69 93
141.16344 -3.9607863 -59.49647 72 62 86
173.86035 -4.6357307 -77.44549 140 122 138
175.53043 -4.744668 -78.20815 100 75 96
-9.40825 2.4985433 -1.0668675 87 46 60
100.662964 -2.4771435 -42.410484 119 91 113
264.19928 -8.192328 -115.85771 131 110 125
55.2842 -0.1655618 -27.21301 115 98 116
-9.0656185 2.4601674 -1.1711329 73 31 43
-17.734806 3.2056453 0.7605425 113 80 99
-7.78227 2.367171 -1.5925647 85 43 55
76.709625 -1.1431161 -36.26783 115 93 114
-19.461105 3.0431547 1.952008 113 79 104
-7.9889965 2.373739 -1.5248003 65 29 41
441.29517 -15.5293045 -191.15924 75 63 85
7.9267406 1.5885838 -7.3409934 103 50 66
27.04539 0.8141638 -15.542601 51 42 61
269.4696 -9.116328 -118.15313 105 78 95
-7.098342 2.2787836 -1.8223443 72 34 47
-187.04639 9.387865 77.999535 111 86 107
40.726757 0.1774134 -21.240698 122 102 114
-7.08475 2.2579424 -1.8403349 74 34 42
-16.44511 2.802904 0.8292093 111 68 75
161.1137 -4.931272 -72.18451 92 65 80
-6.8822947 2.2426424 -1.8989495 79 38 56
-7.0844216 2.2547436 -1.8410616 90 47 57
8.746204 1.4409378 -7.5992017 87 47 58
41.666153 0.027569957 -21.63389 129 112 131
41.673233 0.020311499 -21.63837 129 112 130
-7.3471994 2.2312713 -1.7480733 119 79 87
-20.71865 2.9399142 3.236228 83 69 94
-7.346733 2.2265015 -1.7491436 89 54 60
360.1765 -13.739177 -156.94836 116 82 98
2.879971 1.6987045 -5.524965 75 35 44
40.914562 -0.008558805 -21.351076 141 124 140
-16.46937 2.7400782 0.8271436 120 80 91
-24.125578 3.6217532 2.545277 101 69 93
-6.3911796 2.1442204 -2.0690825 75 33 47
7.7679462 1.4290215 -7.3192916 106 53 63
98.121666 -2.6895485 -45.392475 118 89 111
56.283848 -0.8277766 -27.6984 112 84 106
-24.42693 3.3293579 2.0276377 91 73 97
-6.8010955 2.111108 -1.9420505 116 75 81
7.7971787 1.3484153 -7.3819656 95 54 60
41.694824 -0.23943734 -21.65481 87 64 82
41.34404 -0.2384358 -21.510271 74 52 73
434.9683 -18.273544 -188.74597 72 54 78
-185.62221 10.058359 77.51538 94 82 106
-214.48944 11.409603 89.87927 101 89 113
-224.12297 11.874154 93.96169 96 82 108
436.8389 -18.5418 -189.3293 97 78 106
105.781555 -3.3370383 -48.654095 134 102 115
285.7052 -11.694662 -125.57511 93 81 93
-12.030079 2.3750367 -0.29425552 109 72 80
7.9225435 1.2754319 -7.4685626 105 58 68
-2.2452636 1.7955515 -3.4610958 111 57 71
-3.899408 1.8814607 -2.8860657 108 61 81
-4.4564776 1.9102477 -2.7027354 111 63 79
166.31494 -6.269125 -74.59053 109 82 99
12.328821 1.0140487 -9.155973 62 30 41
12.252175 1.0208967 -9.151144 58 22 32
-25.143696 3.3451772 2.060668 117 91 116
6.9176664 1.296346 -7.0962877 72 40 45
4.6673837 1.4171547 -6.2919874 72 34 45
4.6388106 1.4158589 -6.2929144 54 22 33
-5.8724413 1.9748648 -2.2715933 133 83 92
69.06475 -1.7696403 -33.18945 83 60 76
-212.90717 11.620472 89.24472 139 124 147
-392.81653 20.705635 167.90662 137 115 128
39.526714 -0.35578722 -20.78571 117 100 116
52.709324 -1.0221585 -26.304361 86 63 81
49.63918 -0.86510533 -25.074976 68 53 72
51.95086 -0.99999064 -26.009304 120 95 114
415.15228 -18.510191 -179.98347 135 114 131
14.390428 0.8292107 -10.016103 53 27 38
13.322542 0.88896245 -9.596952 109 64 69
6.6060705 1.2522074 -7.030742 75 33 43
52.387768 -1.0439807 -26.197226 101 81 109
-1.5438201 1.6488887 -3.583163 95 55 63
36.451344 -0.2637331 -19.527237 121 102 122
51.316074 -1.0190737 -25.7512 127 114 142
-13.507852 2.3851345 0.176028 105 53 65
314.87848 -14.018303 -138.07011 101 77 99
36.90919 -0.30344993 -19.685148 108 85 103
29.168692 0.08582067 -16.5047 79 60 80
-18.914331 2.886569 1.2206973 110 75 95
-200.34416 11.335646 83.90604 92 78 103
-231.88823 13.327958 93.79122 103 88 111
76.23477 -2.3953009 -36.241234 115 79 89
-458.83304 24.765545 195.35095 116 87 109
16.053135 0.6008928 -10.686977 67 30 37
60.171207 -1.6910442 -29.477634 134 113 132
-8.252437 1.97936 -1.4954276 144 128 105
-13.180986 2.2868373 0.16126616 95 63 74
66.22118 -2.0492823 -32.063618 135 108 123
66.938805 -2.1407967 -32.352047 135 111 127
-59.00887 4.7230415 24.84356 134 110 126
-24.308151 3.169694 2.0194516 75 62 82
137.59166 -5.9429007 -62.44321 114 88 97
208.3399 -9.922644 -92.70171 105 82 100
17.500221 0.36853212 -11.25901 77 37 46
-25.371809 3.2404208 2.0631764 187 201 238
17.678152 0.33510286 -11.335359 79 43 55
-25.377676 3.2318227 2.0748699 166 176 211
-405.4354 23.231176 172.56995 104 91 108
194.05731 -9.374833 -86.75566 60 56 73
200.35336 -9.788306 -89.35039 108 97 114
-411.5101 23.853737 175.43047 53 54 75
-409.77875 23.788157 174.52574 77 73 96
-25.376331 3.2153172 2.0664892 163 169 203
-431.25485 25.048641 183.93372 45 32 52
17.862543 0.2508983 -11.423345 72 34 45
-25.349377 3.2077932 2.0658689 130 117 147
-25.371758 3.2078176 2.0528185 164 167 200
147.15984 -7.051812 -66.53941 107 89 101
-9.634717 1.9082707 -1.0846859 155 134 113
84.30125 -3.5325584 -39.840042 140 116 130
-8.231148 1.8146696 -1.5494647 179 164 145
70.55339 -2.8022933 -33.912975 133 131 145
78.089554 -3.2260149 -37.157093 130 108 121
69.95883 -2.7929547 -33.716015 90 78 100
-9.904633 1.902201 -0.9789758 186 171 152
-9.727134 1.8839085 -1.0730364 209 197 173
-9.678024 1.8763559 -1.0653495 219 207 183
-136.20123 9.1913805 58.098347 143 119 141
86.42573 -3.770439 -40.734142 107 89 101
61.04118 -2.4395027 -27.791512 124 107 123
-2.8556042 1.4259553 -3.325323 75 35 44
78.953575 -3.3531454 -37.50996 79 55 68
-9.481244 1.8539028 -1.1584868 197 184 165
-399.47427 23.980982 170.02412 110 79 95
426.43036 -23.257126 -185.73897 107 83 107
70.4272 -2.9101732 -33.90533 96 74 95
-9.809504 1.8660469 -1.028327 204 193 175
299.86224 -16.257236 -131.98865 127 108 128
-25.127035 3.1365747 2.0456853 107 81 106
-9.159708 1.7785255 -1.1620119 173 157 141
-9.143515 1.7671688 -1.1607487 157 141 126
-9.277706 1.7770741 -1.1195004 198 185 166
428.45767 -24.235603 -186.74248 117 99 113
122.02107 -6.219903 -55.94399 106 78 93
-1.8181716 1.2581258 -3.7456818 65 29 33
-9.156605 1.7547187 -1.1490604 192 179 160
86.27284 -4.1286516 -40.64899 103 72 87
-4.2669325 1.4155109 -2.8878644 71 31 39
-9.1993 1.7473164 -1.1258157 166 150 134
7.192647 0.6723063 -7.373764 67 34 41
-203.39795 13.11826 85.40854 99 81 105
-441.65256 27.74848 189.24084 79 54 73
-434.32553 27.30303 186.36516 90 65 86
-425.95316 26.623785 181.81213 70 52 74
36.11847 -1.2812577 -18.028345 114 53 61
17.601303 -0.024045743 -11.338839 86 40 51
-9.170306 1.7345239 -1.13844 201 190 170
-220.89064 14.239728 93.05851 83 70 100
2.371133 0.9570818 -5.535631 69 30 35
2.4260747 0.9491595 -5.5356574 53 22 30
96.26571 -4.913091 -44.956604 117 90 99
81.03997 -3.9616308 -38.56404 92 80 94
-9.164567 1.7202373 -1.1248727 210 202 179
426.8761 -24.995583 -186.12242 109 87 110
9.7849045 0.43408263 -8.346342 78 37 51
9.714911 0.43907493 -8.343565 94 44 53
-9.314473 1.7045838 -1.0732963 161 145 129
125.65857 -6.77724 -57.59076 112 100 122
116.270294 -6.2019005 -53.516945 64 46 62
-8.880414 1.6911311 -1.2235528 160 144 121
101.507545 -5.2974863 -47.26141 69 55 70
8.706717 0.48821235 -7.938255 83 42 56
333.0397 -19.389227 -144.8932 137 113 127
118.07332 -6.351084 -54.2921 99 86 103
-489.0225 31.270126 209.62537 113 94 116
122.11106 -6.6117086 -56.05092 78 63 84
225.98183 -13.05039 -100.66112 112 103 124
-8.825127 1.6743981 -1.2645565 131 108 90
-9.269502 1.6789155 -1.0848006 155 134 117
218.21255 -12.629472 -97.2365 99 92 110
102.266205 -5.4099073 -47.564835 111 99 119
18.069592 -0.15106957 -11.547182 74 35 53
17.740831 -0.16444786 -11.404223 87 40 50
-215.34196 14.250911 90.73312 64 59 79
-218.45345 14.4539 92.06106 71 56 77
115.76285 -6.315534 -53.395943 59 46 66
-165.95346 11.172114 69.391045 108 84 108
110.894005 -6.029604 -51.28815 64 46 68
103.525734 -5.5752273 -48.14847 73 48 70
-489.1005 31.657766 209.63686 105 83 106
-475.47803 30.799925 203.51427 102 83 103
-8.887394 1.6414058 -1.247425 126 99 78
-9.105473 1.6741657 -1.2171249 156 138 118
9.716383 0.35633537 -8.358515 92 46 56
94.5601 -5.050031 -44.335022 134 117 135
7.732689 0.4848352 -7.581187 91 45 55
94.99372 -5.089591 -44.46142 137 116 135
221.58812 -13.132596 -98.84587 72 58 73
-21.51428 2.658691 1.937854 103 41 54
93.85922 -5.072655 -43.957676 136 114 127
-9.249743 1.6621127 -1.148722 174 157 141
-8.97097 1.6366493 -1.263181 127 101 84
-10.777837 1.7535369 -0.7853167 147 124 116
100.37058 -5.593991 -46.811058 44 40 57
99.39966 -5.536263 -46.3978 40 32 47
-9.189627 1.619413 -1.1595613 167 147 123
111.82801 -6.353087 -51.76776 121 103 125
9.854481 0.27068365 -8.427781 78 35 44
-9.45967 1.6128284 -1.0181859 172 155 135
6.094405 0.52095884 -6.969335 79 36 45
214.20834 -13.008833 -95.747185 52 39 57
7.606623 0.41373137 -7.5440073 73 35 48
-10.716678 1.7195109 -0.77803236 183 171 149
-10.893814 1.7331685 -0.7208174 149 130 113
-15.08284 1.9909841 1.3564938 93 54 73
-9.635433 1.6003203 -0.8945713 146 127 110
-10.989358 1.739495 -0.6941546 195 178 160
13.810626 -0.025752911 -9.976738 124 77 87
14.776994 -0.10483414 -10.373688 85 42 51
-9.447887 1.5940754 -1.0344938 168 151 133
-10.96331 1.7261606 -0.7057049 156 137 122
-2.8064122 1.1076124 -3.4287338 90 47 64
18.7061 -0.39417347 -11.841677 93 46 54
5.947482 0.5006672 -6.903286 93 52 58
14.779913 -0.11234582 -10.376237 65 29 39
5.8859973 0.5053117 -6.902536 108 63 68
385.27914 -24.318644 -168.98468 89 68 85
-465.17276 31.28018 199.24736 97 72 93
9.89049 0.20277773 -8.44088 92 46 57
-25.398056 3.056055 2.050613 147 158 190
-18.254454 2.372639 1.1748961 75 38 46
232.89232 -14.526251 -103.80382 94 76 90
20.970022 -0.60484886 -12.643007 95 44 51
-302.91177 20.699642 128.66115 118 104 121
-3.2107606 1.0967423 -3.2781348 90 40 49
-9.679804 1.5760398 -0.95397866 125 103 79
-1.652379 0.9759974 -3.8564565 102 55 63
-9.769827 1.5779816 -0.93911755 134 111 93
-11.2633505 1.7056651 -0.57567286 127 103 103
372.86874 -23.773159 -162.64722 93 72 91
-9.737299 1.572236 -0.9339372 121 96 76
-11.217762 1.6981548 -0.5672801 162 149 143
408.03244 -26.232021 -178.7734 139 125 142
-1.8006573 0.9789386 -3.7892628 69 28 36
-288.26865 19.851099 122.33275 110 93 112
339.45364 -21.79304 -149.56654 112 95 113
10.590717 0.106062256 -8.7337885 86 45 61
-2.6663404 1.0412332 -3.503162 53 21 32
-2.8262186 1.0505497 -3.4206266 62 27 34
-445.96323 30.458223 190.86319 120 103 119
-9.807366 1.5992414 -1.0377433 137 119 97
-5.0024314 1.2079456 -2.657501 67 27 35
19.750158 -0.5759789 -12.258573 73 39 53
-18.430662 2.3031561 1.2197702 113 66 74
185.2514 -11.691469 -83.29902 70 52 64
177.92491 -11.201963 -80.209816 103 87 100
-302.55115 20.95296 128.55557 59 47 67
-311.42566 21.54734 132.43787 116 99 118
-476.6358 32.80682 204.87228 69 47 60
-21.49775 2.5605266 2.025102 77 39 50
-330.97348 22.912874 140.88803 122 109 127
-5.225606 1.2006997 -2.5950234 71 31 40
361.04938 -23.585472 -158.91917 74 59 78
-17.493252 2.2105277 0.97518045 73 37 47
-196.24217 13.839836 82.56092 86 69 88
-338.90216 23.542233 144.31491 77 63 86
-411.44003 28.699808 176.98372 84 71 97
-10.263725 1.5883276 -0.8307386 156 140 117
-10.084762 1.5721369 -0.9065889 119 93 70
299.92554 -19.635218 -132.8259 69 46 66
-4.4091387 1.1176728 -2.894782 77 41 53
-332.42816 23.242546 141.5674 80 64 91
165.41364 -10.682813 -74.727844 90 65 86
245.37634 -16.193073 -109.2333 59 50 71
-18.500143 2.2657602 1.2361689 130 78 90
-465.05792 32.809666 200.02963 64 53 70
240.29225 -15.908937 -107.06716 99 77 98
21.126728 -0.796592 -12.844231 75 39 53
-18.36664 2.248546 1.1908895 84 44 55
-2.7519765 1.0151823 -3.4441717 90 48 68
375.14362 -25.308437 -164.9672 96 79 98
241.96509 -16.144255 -107.8044 69 55 72
242.0488 -16.237728 -107.85636 47 34 51
10.13943 -0.037129644 -8.541813 134 78 87
-482.2178 34.44496 207.22083 111 96 115
-477.75708 34.161633 205.41853 106 99 117
21.032873 -0.86018246 -12.818042 77 30 38
8.848969 0.034400478 -7.9968023 111 56 75
4.428852 0.7027639 -7.350614 76 33 40
10.631571 -0.0940452 -8.745517 81 36 43
-14.466999 1.7850158 1.1103221 95 54 72
-10.010497 1.4755337 -1.0913116 101 75 58
393.05673 -27.184317 -172.58502 83 60 76
-2.8156629 0.9581085 -3.439929 71 25 36
-9.709616 1.440478 -1.1351465 63 42 25
-18.480585 2.2134864 1.2147006 77 39 52
-3.9854214 0.970719 -3.038442 80 29 38
-9.503886 1.4200625 -1.1954001 119 97 60
-340.9938 24.776567 145.31705 105 82 98
235.62451 -16.228748 -105.18173 93 73 85
16.173885 -0.5996806 -10.972392 82 41 55
385.65573 -27.133518 -168.64941 99 86 96
-27.112017 2.9069006 4.1556563 181 189 235
-27.176706 2.9134974 4.1596823 175 190 231
25.463003 -1.3408196 -14.620499 67 36 44
16.173191 -0.63169676 -10.97764 87 39 55
7.752014 -0.01634236 -7.5013833 102 51 60
7.752139 -0.02832821 -7.5034895 82 34 46
26.974573 -1.5024095 -15.25225 71 41 51
-9.197542 1.3232481 -1.313934 108 82 57
25.464834 -1.3914708 -14.630042 118 69 75
-9.139261 1.3053535 -1.3381826 159 139 112
-468.60437 34.995064 201.81197 81 72 99
420.41064 -30.286575 -184.30017 105 86 106
318.25827 -22.929127 -140.72319 100 83 102
8.530133 -0.13475414 -7.8003535 136 81 87
26.216593 -1.4950866 -14.9643955 66 31 38
418.41492 -30.39207 -183.32831 92 68 90
179.60387 -12.685349 -78.730896 100 73 90
418.94406 -30.61408 -183.65605 135 112 128
7.341053 -0.06703035 -7.3622065 95 45 57
194.77551 -13.814809 -85.43745 100 71 89
-473.7428 35.770325 203.81876 131 116 135
-10.557674 1.3572676 -0.61432636 174 167 174
417.1375 -30.673346 -182.69154 92 64 79
263.11166 -19.275654 -116.96288 105 80 99
-10.326715 1.3340327 -0.7089424 197 192 188
-384.42957 29.230545 164.48349 91 74 93
-4.648818 0.96939963 -2.570821 75 30 37
-135.54358 10.829347 58.100407 99 75 89
325.75894 -23.904848 -142.64767 96 68 83
-24.436514 2.9134066 1.7346513 131 114 133
-13.02894 1.5808524 -0.105754584 68 22 35
372.62952 -27.692635 -164.06491 101 71 83
-426.923 32.752037 184.04744 142 117 136
-10.394563 1.3176666 -0.67866975 203 197 181
-10.033366 1.2837824 -0.8128572 135 124 120
6.719177 -0.08853397 -7.148058 90 41 47
-10.422501 1.309465 -0.67006576 171 162 145
-13.185085 1.57762 -0.059779435 76 33 42
-446.06924 34.25226 191.5761 133 115 137
147.33284 -10.854857 -67.2041 105 82 88
-9.791607 1.2522904 -0.8955371 183 173 163
15.837957 -0.82285535 -10.877649 114 64 67
-10.586954 1.3126187 -0.6111627 114 103 101
313.563 -23.541817 -138.8793 139 122 140
-9.933955 1.2522329 -0.8446479 191 182 165
150.8465 -11.181984 -68.80629 51 35 46
-10.719003 1.3114151 -0.54712975 164 162 150
-9.990844 1.2478154 -0.82505596 147 138 123
3.4528542 0.15353602 -6.0365953 102 59 68
-364.30878 28.238733 155.67874 94 78 104
-9.861963 1.2293519 -0.86521727 103 90 81
-10.451306 1.2803559 -0.6645347 100 90 91
2.3456066 0.22444661 -5.61708 57 22 29
258.23575 -19.603003 -115.25444 101 89 103
-10.700695 1.2837961 -0.5319115 168 162 162
-26.479406 2.7839017 3.792738 131 133 181
-9.478442 1.1674435 -1.0216806 159 147 133
-10.2517805 1.2310871 -0.7082673 108 95 87
-10.068834 1.2121012 -0.7676074 137 127 115
-10.8053465 1.2726768 -0.47936982 152 145 139
-10.836055 1.2770333 -0.48522103 163 158 154
-10.886044 1.2717502 -0.45109278 188 182 170
37.24752 -2.6829972 -19.48693 67 34 45
-307.12625 24.231028 131.05888 119 102 120
-269.4596 21.317179 114.61791 121 100 115
396.5239 -30.819876 -174.51485 95 82 89
28.333406 -1.9895234 -15.946988 65 23 27
-10.441937 1.2161735 -0.6255686 80 61 47
-10.714333 1.2371824 -0.5258823 89 76 60
138.42184 -10.681564 -63.51277 96 82 97
155.65642 -12.07356 -70.9194 103 85 101
-13.74289 1.5266467 0.08592248 99 53 63
251.46657 -19.812206 -112.28056 109 85 98
-9.801426 1.1286443 -0.8676142 69 53 40
-10.971963 1.232799 -0.44440734 84 77 85
-10.769628 1.2107006 -0.51061714 63 53 62
-11.066881 1.2392981 -0.41860577 53 41 53
-10.5102415 1.1847732 -0.5977189 78 64 64
-10.634492 1.1975383 -0.56043583 121 111 112
-10.183625 1.1518658 -0.7364915 82 67 62
-10.525723 1.1840351 -0.6010616 108 91 84
-13.824953 1.5202837 0.10532196 92 45 53
-10.630968 1.1876485 -0.54581505 143 130 121
-10.661939 1.1920832 -0.55161196 153 143 133
-10.183511 1.1488744 -0.73696846 115 97 87
-5.2916718 0.7227573 -2.6401818 98 46 58
-9.733226 1.0968696 -0.9060238 144 129 106
335.61377 -26.83183 -148.60359 75 63 75
166.67886 -13.339056 -75.6802 76 54 66
-13.539598 1.5750027 -0.14708047 128 80 92
-12.6649685 1.3626109 -0.11828319 176 162 151
-13.671417 1.5164869 0.060786527 103 52 69
318.79047 -25.773779 -141.44121 75 52 68
-14.33766 1.5278912 0.24379838 96 51 71
10.569075 -0.68879974 -8.82335 81 32 36
-3.22504 0.4808577 -3.3760197 99 42 48
-12.700368 1.3416553 -0.10089624 135 119 106
-8.001539 0.8981426 -1.5820242 137 126 134
-8.422916 0.9331351 -1.4321337 71 60 66
-12.71444 1.3409292 -0.10437919 122 104 94
-1.5758367 0.46654624 -3.9798992 83 36 44
-186.95436 15.379806 78.95485 95 82 108
-259.90198 21.717726 112.20607 135 111 124
-2.6918526 0.40982643 -3.5479038 70 24 35
-2.8807464 0.42924577 -3.504262 81 34 42
-4.205508 0.5470665 -3.0164406 68 25 35
-12.81131 1.3362051 -0.07128844 124 107 113
-13.860394 1.4497348 0.11469581 101 46 52
-14.065968 1.4707842 0.17314857 103 47 56
349.24246 -28.71479 -154.65802 55 46 65
9.83511 -0.67991155 -8.5454855 70 27 34
-5.1451993 0.6235506 -2.6916566 95 52 59
-12.749601 1.3210723 -0.08688426 188 182 170
7.329199 -0.46936977 -7.574537 64 27 35
-7.3672476 0.8131759 -1.8466955 122 100 79
-9.865417 1.0387719 -0.93917 73 55 43
-14.304826 1.4828669 0.23348029 65 19 32
-7.0762386 0.78658354 -1.9769658 101 77 65
-6.780581 0.75958896 -2.1095362 86 69 79
-5.2746024 0.6207103 -2.6536121 72 33 38
-12.192409 1.2467297 -0.20987415 84 68 78
-14.562567 1.4851829 0.29868034 134 85 91
-5.88558 0.6481006 -2.440811 53 20 29
33.971474 -2.8790753 -17.95888 126 81 102
-14.47642 1.468983 0.26649264 78 45 56
-454.7745 38.40492 196.3299 114 92 104
127.228676 -10.782565 -58.806995 112 91 106
33.04834 -2.8882108 -17.505598 112 64 86
77.611206 -6.4026465 -34.640083 105 83 95
107.05414 -9.203903 -50.15937 73 52 69
21.881292 -1.9026408 -13.398057 122 67 70
343.03094 -29.231636 -150.65175 90 77 87
349.87946 -29.804804 -153.83192 88 74 87
89.93436 -7.747946 -42.77807 89 72 82
21.98523 -1.9174752 -13.4114685 100 53 59
17.560238 -1.5411669 -11.643468 80 34 45
17.24606 -1.5143287 -11.5283165 72 29 39
17.336876 -1.5276937 -11.537963 64 24 35
9.90623 -0.88169116 -8.60809 85 43 57
238.78525 -20.502707 -105.26203 79 65 88
-2.881229 0.25940776 -3.5117476 71 24 34
-4.056406 0.37229884 -3.101335 76 26 37
40.640526 -3.70632 -20.646595 124 82 94
-13.9289875 1.3102993 0.31150082 76 29 37
-14.442023 1.414097 0.41603038 78 25 35
-433.23743 37.682625 187.41045 88 80 103
-3.8813276 0.34466004 -3.161658 127 80 90
-462.1982 40.228016 199.71309 76 68 89
-12.432346 1.1660333 -0.28977698 68 29 34
-22.238926 2.1121285 2.4855065 114 87 104
-108.85716 9.667543 46.673615 100 97 116
-16.857477 1.5501553 1.4172275 93 46 64
-18.018917 1.7383326 1.0383577 91 43 59
-454.4378 40.046444 196.447 85 80 102
141.27573 -12.395447 -62.47714 104 99 122
-460.2411 40.630962 198.93738 127 119 134
-14.996831 1.345122 1.0179399 108 67 83
-462.01303 40.812958 199.80754 112 106 120
43.339573 -4.0919466 -21.769169 145 92 108
-1.5332578 0.055915646 -4.0139976 95 47 63
-1.5798231 0.06226696 -4.0163727 102 49 67
31.762867 -3.0451121 -17.04044 152 101 120
-14.938836 1.3318789 0.98122317 99 55 72
354.93533 -31.611391 -156.23904 109 89 98
-277.50598 24.481579 118.437744 131 151 212
-9.139839 0.77027327 -1.3343753 76 33 42
165.19482 -14.977109 -75.35402 48 34 51
-12.671782 1.1119589 -0.03816898 96 54 68
-310.53842 27.82109 132.96991 26 36 85
-299.7692 26.868305 128.27454 162 187 251
174.4689 -16.175652 -79.41848 89 77 87
-0.6383752 -0.1393868 -4.300925 98 44 58
-6.103797 0.39806545 -2.3136594 108 53 72
-296.2361 26.678686 126.6898 63 77 148
-310.43735 28.05843 132.96896 93 95 134
-0.5873342 -0.1686342 -4.2822056 159 106 124
207.17053 -19.174461 -91.60095 92 79 97
-0.5637771 -0.20907983 -4.2871017 86 31 37
398.71143 -37.205467 -175.96143 124 106 128
403.55472 -37.683853 -178.21979 126 113 133
-25.501791 2.5374687 2.0153167 175 195 232
130.3195 -12.375387 -61.43448 65 47 63
-5.693799 0.28280398 -2.4358914 144 93 108
-402.43332 37.22063 174.53926 75 51 65
139.45026 -13.338107 -64.372 59 51 66
301.19687 -28.215546 -132.89473 58 49 68
455.4453 -41.480347 -200.91687 63 46 62
-349.35016 32.456806 151.63846 76 55 74
-24.16114 2.3239305 1.9354378 114 90 106
-23.806444 2.256906 2.1186433 99 71 86
1.3320409 -0.48822784 -5.1548915 91 41 53
-5.2356615 0.1499646 -2.5588176 146 94 107
-0.04490221 -0.39591387 -4.3848176 143 89 102
0.06815043 -0.48300904 -4.452789 115 60 81
-27.092266 2.4971168 3.9122539 158 168 203
0.16127637 -0.4957989 -4.4900966 108 59 81
-11.172 0.67678505 -0.47042623 79 78 122
-11.840933 0.75114 -0.26662686 141 148 194
-10.929343 0.64747596 -0.5433162 73 75 124
-25.514257 2.4439363 2.0198147 175 195 230
-10.791552 0.6263633 -0.577921 122 124 165
-17.807207 1.3100781 2.496259 106 61 82
-18.876074 1.4430902 2.6735895 94 51 70
-10.808011 0.6053831 -0.5840907 141 145 183
-21.580677 1.8254867 2.569917 112 71 87
-10.7771845 0.5990458 -0.57851654 129 116 146
-10.884684 0.61024606 -0.53880364 146 151 189
-21.563442 1.8212059 2.578108 75 43 54
-19.485142 1.5026121 2.74452 90 54 68
-21.620686 1.8198016 2.5796602 128 86 96
-17.182905 1.2090306 2.37481 81 38 57
-21.603493 1.815523 2.5878584 96 65 71
-25.42999 2.4016898 2.0033994 73 58 87
-15.3637 1.1046512 0.7107831 67 39 53
-19.534859 1.5005281 2.743967 128 90 103
-21.677757 1.8194516 2.6009514 113 70 87
-11.803683 0.6880856 -0.28094295 82 44 59
-19.580606 1.4967152 2.755957 69 38 53
-5.514127 -0.020474304 -2.2981796 91 48 67
-17.073702 1.1764703 2.3531132 84 47 64
-17.857944 1.2727143 2.4839888 89 48 64
-20.449835 1.6013583 2.8653724 139 100 118
-14.512704 0.9796964 0.4921964 95 61 75
-5.31888 -0.051974107 -2.3845582 134 88 101
-4.082862 -0.19100083 -2.8022814 110 64 75
-11.013007 0.5741306 -0.52516955 90 46 59
-12.859482 0.7823749 0.017502226 94 49 69
-20.399038 1.5851425 2.8567538 110 66 91
-20.427273 1.5891333 2.8647652 118 73 96
6.8382754 -1.3860437 -6.7547827 130 80 89
-4.370218 -0.17554343 -2.7038846 98 48 60
-12.794279 0.7635616 0.016873902 133 90 107
-9.034825 0.33978608 -1.1511757 122 77 97
-12.822234 0.76670825 0.010453406 142 98 113
-8.792216 0.30572912 -1.2255722 147 105 125
-12.702607 0.74405134 -0.034527604 101 57 74
2.2153935 -0.9437616 -5.0622253 112 63 84
51.17606 -5.822742 -25.83804 82 63 69
-17.593843 1.185758 2.4395254 100 57 76
-179.4012 17.625967 76.08137 109 104 127
-14.650099 0.91492033 0.5132196 105 62 81
-13.758957 0.80379194 0.28136778 104 58 71
-18.350437 1.2592854 2.5723271 73 39 53
-6.571066 -0.023658514 -1.9703603 89 45 60
-17.791416 1.1835111 2.4671454 104 63 71
-12.691793 0.6749196 -0.04041771 80 40 51
-18.909735 1.3235202 2.6599782 87 40 60
-14.595213 0.8941476 0.49949262 125 83 97
-18.676294 1.2898542 2.63262 75 39 51
-19.607183 1.4106951 2.7588332 113 74 95
-8.194068 0.13758115 -1.4401933 87 50 67
-14.116834 0.8273873 0.36686596 95 51 66
-23.212687 1.9069369 3.0230324 104 70 84
-12.85104 0.67087317 0.0059015215 89 45 60
-15.448737 0.97907513 0.7362705 138 103 125
-7.0436535 -0.0032918893 -1.8139791 128 80 92
-8.993564 0.21116821 -1.1772914 97 51 64
-9.500102 0.27332196 -1.0218728 100 49 64
-7.895234 0.08169402 -1.5478163 96 57 75
-22.926794 1.8460538 2.9939 116 72 89
-0.8907823 -0.7189631 -3.9487736 143 91 104
10.035892 -1.9356426 -7.9886584 87 48 66
-2.0234723 -0.5994181 -3.5494947 111 60 79
18.777874 -2.9123647 -11.368065 76 35 41
-4.1818404 -0.36819732 -2.7844174 142 99 119
-18.0313 1.2636821 1.3699622 78 39 57
16.23619 -2.6653085 -10.391754 89 52 60
12.307541 -2.229003 -8.86651 66 30 34
18.090033 -2.88022 -11.112422 78 35 45
-14.581933 0.82498866 0.5086007 79 41 56
-25.541237 2.2925491 2.0219688 172 156 166
7.2407036 -1.7064222 -6.948978 106 59 77
7.209753 -1.7062178 -6.949356 113 66 84
-9.688747 0.22167459 -0.9536312 107 56 73
-13.705197 0.70036393 0.25571454 114 71 88
-2.0812972 -0.6811999 -3.489262 101 50 67
46.92715 -6.2005215 -22.690437 109 87 90
348.3537 -38.532314 -155.55522 45 32 49
344.61197 -38.422276 -154.07141 47 35 57
336.8485 -37.57709 -150.64302 39 28 45
-245.71808 25.902018 106.846504 107 94 111
393.51663 -44.059074 -175.23598 64 60 74
260.14536 -29.75299 -117.57358 78 74 89
174.03032 -20.291855 -79.91918 80 78 91
266.5006 -31.153326 -120.25857 60 39 54
-197.80078 20.070457 89.96766 113 103 128
-230.51549 24.884117 96.31404 110 105 127
-24.044394 1.7160858 3.708802 85 49 63
-422.2407 48.029987 183.75844 73 62 79
-23.303308 1.4741035 3.6361341 101 59 73
-23.28828 1.4699061 3.6450791 81 43 58
-23.368519 1.4624261 3.6421747 89 54 74
-23.368664 1.4604092 3.6421483 98 59 77
-23.29833 1.4386891 3.6377485 93 55 70
-23.302608 1.4309554 3.644102 93 54 73
-16.94853 0.5558812 1.5658987 88 46 58
-19.449799 0.80841166 3.3725693 85 53 68
501.0106 -61.853966 -235.01984 88 66 78
28.399836 -5.3752823 -16.675232 98 66 69
-233.05643 28.367622 100.42848 78 73 96
-21.125605 0.95059264 2.8142688 98 58 82
-21.143997 0.9504544 2.825875 106 68 93
-18.324034 0.48279512 2.411808 97 53 68
59.11906 -11.012943 -27.74226 108 76 81
-279.25958 37.80272 112.35975 74 87 80
-14.22617 -0.6376599 2.6163704 124 82 104
127.92748 -22.50381 -53.42083 96 115 96
-12.595434 -1.2139165 2.1759548 61 41 52
