ply
format ascii 1.0
element vertex 846
property float x
property float y
property float z
property uchar red
property uchar green
property uchar blue
end_header
0 0 0 255 0 0
36.686745 -0.96382266 -8.679434 104 76 98
29.317543 -0.28544798 -7.5798154 44 35 56
32.84167 -0.62631685 -8.104033 58 45 63
38.547085 -1.1847858 -8.975639 139 116 136
31.891409 -0.5373213 -7.9775867 102 83 102
46.560715 -2.057991 -10.22072 89 60 80
45.237217 -1.9155318 -10.0264015 104 72 95
40.90343 -1.4624289 -9.344753 117 88 110
32.937595 -0.674171 -8.143254 56 44 66
49.062984 -2.401443 -10.650653 109 76 95
-72.303795 8.469029 5.616378 115 80 100
32.830193 -0.6925245 -8.1402855 65 45 70
47.310673 -2.2059124 -10.356428 115 92 110
33.175716 -0.77057403 -8.208376 66 48 70
-59.918224 8.666908 2.7298303 103 72 88
-63.843586 8.91733 3.5328083 83 61 74
46.338528 -2.1606302 -10.238546 108 80 105
-19.791122 3.3190856 1.4157898 93 69 101
41.036312 -1.6061335 -9.428548 97 68 88
32.242924 -0.72413564 -8.0895 94 85 104
33.22255 -0.8260527 -8.24607 48 32 58
33.094807 -0.8224498 -8.219553 61 43 65
-19.895754 3.315983 1.4430592 98 74 108
-17.740028 3.2964027 0.6983943 120 93 112
31.08358 -0.86450887 -8.021039 107 89 111
49.41021 -2.8986819 -10.899958 104 75 97
-18.072166 3.2479794 0.797228 135 110 129
-6.504545 2.645509 -2.025627 86 49 67
-5.929803 2.6043694 -2.1453414 90 46 59
-16.270754 3.198226 0.25003803 81 54 61
-7.2918806 2.6966527 -1.8684742 71 43 58
46.41194 -2.8911788 -10.587698 69 47 60
-8.329934 2.7624307 -1.6508684 81 43 58
-19.679781 3.268261 1.3419127 145 130 159
3.3641684 1.8176806 -3.8365545 80 34 45
-18.452124 3.2313313 0.93302757 120 95 116
49.397648 -3.0149047 -10.945904 93 65 88
47.433956 -2.7852013 -10.602681 59 37 58
44.462822 -2.420479 -10.137052 116 92 106
-5.249814 2.5135064 -2.2925181 82 40 54
43.663166 -2.3359385 -10.0196295 111 93 109
-10.318046 2.8068972 -1.087624 80 42 57
38.744312 -1.8129113 -9.248541 45 31 46
-8.026354 2.7069633 -1.7310588 82 45 63
-14.6477375 2.5790124 -2.237426 90 60 70
-18.605024 3.2218971 0.9726047 66 50 63
-86.27023 10.570881 7.68037 104 76 98
-17.519054 3.1981895 0.62146413 90 61 66
-70.40461 9.496981 5.1344104 99 71 85
-8.727723 2.721958 -1.5877471 91 48 67
-22.071135 3.1709018 2.3298736 114 89 110
40.54415 -2.7378237 -9.941889 104 86 98
3.7896688 1.666834 -3.9859335 94 54 63
-18.306007 3.1877177 0.8609517 126 95 111
42.61861 -2.4787467 -9.96796 102 82 94
30.845299 -1.0383065 -8.373963 127 85 99
28.185081 -0.7514678 -7.9753375 108 54 68
3.7719889 1.6398239 -3.9890013 104 70 86
41.540653 -2.3956656 -9.798193 78 53 72
-14.094737 3.0035324 -0.35450545 91 55 69
-17.851088 3.1515963 0.72403413 114 85 105
-19.91762 3.2005272 1.4027672 125 113 137
-77.20186 10.148604 6.2978797 96 81 102
12.466612 0.83780205 -5.57889 92 35 44
-14.790462 2.998534 -0.09146666 82 45 62
24.055086 -1.3548777 -7.7427616 100 76 98
-17.537655 3.129744 0.6182783 127 110 129
-14.000741 2.94532 -0.29597396 83 42 60
-17.976189 3.1410596 0.75902337 139 121 143
31.935038 -1.2556323 -8.654396 113 67 77
30.832857 -1.1368647 -8.4808445 85 43 55
-83.78198 10.63573 7.192623 111 84 93
-17.904478 3.1241305 0.72825056 111 87 111
-5.4228387 2.3625963 -2.3534455 80 42 55
-17.287323 3.0888383 0.55107635 75 58 76
-70.009 9.679313 5.1628428 98 74 96
-6.2101116 2.4131782 -2.1920853 88 50 65
43.94395 -2.8412082 -10.383765 87 53 70
-5.9715395 2.3880596 -2.2511532 89 46 65
-62.71422 7.7382545 4.592061 82 55 70
-18.52056 3.1328018 0.88851726 98 75 95
-22.218424 3.1100893 2.3806071 142 129 155
-85.82659 10.880972 7.788423 134 116 132
-21.94428 3.117327 2.2511413 117 107 132
-57.022404 8.7982025 2.3327663 92 63 83
-53.86409 8.440708 2.1652687 97 85 107
-40.1809 5.215317 1.3596727 59 43 54
-37.2974 4.8999066 0.94738483 83 59 73
-5.7230663 2.3324757 -2.313093 87 43 60
-6.210897 2.3624144 -2.2083206 115 76 94
-15.023473 2.4686291 -2.2507982 115 97 113
-5.891379 2.3402336 -2.2864637 127 86 104
-5.963019 2.3436754 -2.2663894 133 94 115
-7.4036245 2.459591 -1.965022 101 69 82
-19.295202 3.1363504 1.1615149 126 98 120
-7.895524 2.4925976 -1.8618957 115 79 93
-63.021088 7.833197 4.6514263 107 73 90
-4.315553 1.3176006 -3.791526 121 102 121
-5.7584496 2.3189583 -2.316452 90 53 71
-8.769577 2.5551622 -1.6699064 73 39 55
50.41241 -4.014671 -11.449362 111 93 109
-22.577381 3.2791111 -1.1702893 115 92 110
-12.328511 2.1666706 -2.6460438 112 87 106
-78.13615 10.476253 6.5761805 100 73 88
-21.955755 3.2052574 -1.2622473 106 89 108
-9.421711 2.5843053 -1.5387301 103 71 86
-20.006832 3.1292577 1.410937 94 70 94
35.99768 -2.902778 -9.56183 101 77 91
-21.304564 3.12887 -1.3586187 120 103 121
-19.61378 3.11968 1.2684515 101 82 104
-20.736609 3.1148584 1.7277706 124 115 136
49.903965 -3.9823716 -11.401179 77 53 67
-9.398744 2.5621262 -1.5490651 102 74 89
-15.296042 2.94784 -0.087577164 97 73 89
-6.9077635 2.3438914 -2.0903444 131 89 109
-49.746105 8.253527 1.2438302 72 62 86
-23.470129 3.3567104 -1.051083 91 76 97
-19.543026 3.0940843 1.2233491 102 78 102
-39.11887 5.133671 1.2196428 104 70 87
-8.156807 2.423942 -1.8307408 68 35 42
-15.578613 2.9404955 -0.02184041 65 37 52
-15.443411 2.9315772 -0.060051065 89 54 61
13.208714 -0.7069447 -6.377024 97 70 89
26.132025 -2.0994627 -8.238398 91 63 78
-16.586782 2.9792695 0.2644712 88 45 65
-5.74929 2.2000766 -2.3502803 121 80 96
-37.97286 5.008548 1.0575733 103 74 94
-21.647644 3.0657778 2.1073873 75 55 83
-16.382336 2.9640462 0.20242926 124 83 99
-17.157185 2.6222959 -1.9796894 121 106 129
4.4445376 1.1695361 -4.2323666 62 22 30
-16.43792 2.9608898 0.21721606 61 35 48
-17.872332 3.003001 0.69729877 92 60 84
-16.141546 2.9392192 0.12809207 96 65 80
11.022796 0.48928437 -5.4566855 71 45 56
-16.73014 2.966005 0.30338153 53 29 43
-18.339512 3.024271 0.825977 109 78 96
-16.462856 2.9532502 0.22088283 120 79 95
-15.855273 2.920105 0.042204488 107 74 93
-15.903456 2.9211376 0.059416298 74 41 58
-10.503732 2.5405529 -1.2834523 75 41 57
-47.7313 6.1767797 2.487485 119 85 99
-16.783516 2.9628015 0.31786215 91 60 75
-10.14436 2.5055516 -1.3657638 67 41 54
-10.118927 2.5020435 -1.3740602 62 32 44
-50.6119 8.504051 1.3780168 112 87 106
-16.436823 2.9393778 0.20886263 120 86 102
-10.163809 2.4970765 -1.3682367 71 30 44
-15.946336 2.9086828 0.068766914 91 58 69
-20.68494 3.0462213 1.6964818 100 75 96
-14.409988 2.263815 -2.39866 83 69 82
-13.345229 2.7146094 -0.6136784 56 28 40
-83.35079 11.209401 7.613481 97 72 94
37.843628 -3.5903866 -10.019093 59 46 63
29.995312 -2.765321 -8.891982 84 69 92
-18.627195 3.0012922 0.90494865 124 71 91
-18.794931 3.0057712 0.96328545 110 57 73
-45.136494 5.9029536 2.1248326 106 82 104
-4.8542457 2.0032716 -2.5632114 95 62 73
-18.79687 3.0029922 0.9628945 103 44 62
-16.041887 2.8850622 0.08566433 76 40 52
-18.956886 3.006404 1.0141791 128 81 99
-56.662365 8.898987 2.8619304 102 85 103
-16.543674 2.9063191 0.23038977 77 43 57
-16.573679 2.9069526 0.24138726 87 50 68
-48.27226 8.28202 0.9130487 103 83 111
-57.08255 8.94734 2.9504027 56 48 71
-18.767008 2.9922395 0.9477178 93 41 54
-15.668951 2.8455918 -0.030410338 105 71 85
-9.679153 2.4151864 -1.5735753 70 28 40
-21.85321 3.0112708 2.1793897 107 92 115
2.2884202 1.1649214 -3.8668134 57 25 30
1.6491548 0.31146333 -4.81874 93 66 81
-22.047428 2.997115 2.263609 109 83 112
-48.30301 8.320551 0.9377211 133 115 137
-72.37593 10.437443 5.8014717 40 32 43
-48.565178 8.353494 1.0183054 108 88 115
-48.395123 8.346535 0.9722126 133 111 134
-11.461866 2.4675193 -1.1215397 106 62 75
-59.147114 9.241638 3.4236164 80 61 81
-81.33472 11.393622 7.4400964 117 89 101
-26.320469 3.6094112 -0.6753982 57 34 52
-24.868177 3.426583 -0.8925482 50 29 44
-79.90597 11.292458 7.1896644 122 101 118
51.664963 -5.460178 -12.215553 45 36 55
1.8814962 1.0450115 -3.8595512 72 34 45
-18.218765 2.885043 0.7395064 65 41 57
-11.6363125 2.4292576 -1.102602 62 32 44
-22.03344 2.9512196 2.2393315 119 93 118
-11.49796 2.4103124 -1.1390164 63 29 43
-12.460336 2.4833403 -0.90663415 75 35 46
14.467123 -1.4669247 -6.828707 112 79 96
-10.528017 2.3085768 -1.374598 65 31 47
-80.73207 11.450528 7.378841 79 55 71
37.577065 -3.5325518 -9.871934 48 32 43
-52.128643 8.72112 1.9599031 92 83 102
-12.446931 2.4597056 -0.9161527 104 72 77
-13.282756 2.522583 -0.7089747 68 32 44
18.239912 -1.9996248 -7.428608 126 100 113
-13.533828 2.5407138 -0.6467904 76 38 51
-48.010437 8.463243 0.77221215 86 66 93
-51.851303 8.721394 1.9051058 88 78 103
-14.349267 2.5989587 -0.43401688 68 36 51
-9.538766 2.1786478 -1.6217521 57 23 40
-9.710445 2.1948013 -1.5818367 69 31 46
-52.32793 8.766619 2.0194604 90 67 96
-13.197334 2.494971 -0.73721474 91 61 69
-51.015026 8.708784 1.5544052 101 86 109
-13.88364 2.5456522 -0.5634067 74 34 45
-52.382896 8.788124 2.0423446 96 80 106
-9.999555 2.1992273 -1.5220529 107 72 78
-63.926125 9.914875 4.4258704 88 78 89
-8.840401 1.3132908 -3.3539174 66 47 67
-50.618397 8.662 1.5338784 98 75 95
-80.26965 11.551035 7.366028 84 62 75
-52.11507 8.781938 1.9897107 98 70 95
-52.128395 8.784519 1.9885204 108 78 102
-79.73346 11.537004 7.2893047 118 103 124
-19.560255 2.8594904 1.2063324 81 64 83
-19.01009 2.8509808 0.9757309 88 65 91
-13.741535 2.5014462 -0.61106116 91 58 67
-63.086338 9.876995 4.2998986 103 78 97
-17.119204 2.73571 0.36441427 79 47 62
-17.248323 2.7443025 0.4041293 110 74 88
-19.117014 2.8501773 1.0168597 91 77 103
-79.52334 11.542482 7.2751474 133 118 137
-81.57484 11.706681 7.640349 78 63 86
-73.78563 10.146984 6.5775285 101 74 89
-51.997948 8.810204 1.9796531 124 109 130
-49.84544 8.630526 1.4441024 84 69 90
-20.286333 2.8924901 1.3975033 78 60 84
-63.399033 9.943948 4.3797507 92 77 96
-49.978016 8.652535 1.4815016 120 103 121
-61.84781 8.456204 4.7619405 77 56 73
-22.067873 2.8832083 2.236687 103 78 107
9.534759 -1.1385311 -6.197031 114 96 112
8.428746 -0.9951504 -6.0392694 89 75 88
-67.25512 9.24449 5.589448 75 60 83
-6.429339 1.7853016 -2.4031103 90 47 64
-6.871492 1.8140873 -2.2737854 91 49 63
-17.15756 2.713454 0.3647484 61 34 49
-52.306843 8.860087 2.0601385 97 74 92
20.07372 -2.5012538 -7.8195815 70 53 71
29.846025 -3.7251484 -9.315055 89 74 95
5.139482 0.38963678 -4.5884666 60 27 38
-52.30678 8.863878 2.0621676 111 88 106
-17.254284 2.7151818 0.39445856 111 70 84
-17.296612 2.7191722 0.41119492 107 69 82
1.3895379 0.82521534 -3.8806038 63 33 43
26.644691 -3.3582344 -8.837732 94 73 90
-17.15776 2.7050176 0.36546725 71 39 54
-21.687668 2.873417 2.056106 84 64 89
-17.254858 2.7066197 0.39506885 115 77 90
-82.29005 11.799941 7.8703933 101 69 82
-22.09752 2.8693817 2.2458081 88 68 95
-49.50989 8.652778 1.3733802 121 106 125
-49.43143 8.649101 1.354034 83 68 91
-17.184683 2.692949 0.36824304 67 35 50
-48.5498 8.580906 1.1188164 74 65 86
-4.9602814 1.5757773 -2.745746 90 54 64
-5.0364313 1.5801983 -2.7241335 103 69 83
-48.925915 8.657477 1.0794512 88 67 86
-79.831665 11.7414055 7.418949 102 71 86
-74.995766 10.522551 6.8236575 125 106 125
-52.354256 8.917775 2.0957396 109 96 114
-49.510784 8.670756 1.3840137 119 105 130
-60.173447 9.705707 3.7927222 94 69 88
-12.857462 2.3432581 -0.88420844 104 85 70
-15.630887 2.5792656 -0.14257942 109 58 75
-19.008621 2.7857482 0.9474864 84 61 81
-12.55021 2.3074138 -0.9658952 147 136 134
-15.840625 2.5930526 -0.08183137 106 59 77
-12.777928 2.320718 -0.9050108 134 119 100
-16.380947 2.6230698 0.08868244 108 54 68
-17.057543 2.6523001 0.31936294 81 42 60
-50.13548 8.751973 1.5611532 105 92 110
-52.386703 8.954453 2.121525 123 106 124
-11.284342 2.1611304 -1.2846767 147 135 111
-11.76813 2.2071202 -1.1706804 164 149 130
-10.917718 2.1172535 -1.3740296 134 116 102
-11.651388 2.192039 -1.1993755 95 78 60
-51.59691 8.89397 1.9325813 94 83 100
-12.059308 2.2316887 -1.101184 140 124 108
-77.30649 11.623037 7.0277452 108 82 93
-11.975733 2.219038 -1.1225141 90 71 54
-75.31211 11.426106 6.676985 103 78 97
-25.286507 2.7121027 3.9936736 157 155 179
-52.403244 8.978945 2.1331248 109 89 114
-10.244463 2.0298955 -1.535813 103 82 81
-67.73543 10.623116 5.279398 98 89 108
-10.297539 2.032375 -1.5194311 109 92 82
-51.52849 8.904588 1.9235833 104 92 114
-10.285975 2.026816 -1.5292147 83 66 56
-8.960734 1.879882 -1.8586622 68 43 47
-12.114134 2.2026885 -1.0991571 102 77 55
-49.96666 8.782818 1.5359023 93 75 101
-72.11484 11.146192 6.11704 88 74 87
-12.221146 2.2064815 -1.0713687 117 90 71
-21.55985 2.8145592 1.9783505 64 36 58
-80.88837 11.999842 7.7276936 147 120 137
-21.619265 2.8143582 2.005027 76 53 73
-21.752872 2.8139982 2.0655334 77 56 73
-50.826736 8.968284 1.425943 91 64 79
-21.828968 2.809373 2.099 80 57 77
-22.074514 2.8098834 2.2148573 89 76 94
-60.793518 9.922363 3.9777944 102 76 101
-21.861994 2.8080983 2.1138992 106 90 116
-81.022964 11.923144 7.818867 116 99 117
-18.23461 2.6768467 0.67556787 92 57 61
-81.13801 12.0011015 7.8169465 77 53 69
-12.279245 2.1887314 -1.0690072 130 109 88
-64.83839 10.390264 4.785834 113 96 112
-22.061874 2.8042538 2.2069452 89 69 94
-79.91341 11.694567 7.6788025 71 54 73
-61.569794 10.04005 4.1479135 117 99 115
-12.174932 2.1604314 -1.0987085 130 108 85
-11.035526 2.0359085 -1.3809383 171 162 145
-12.573523 2.1967704 -1.0041603 184 169 146
-22.65508 2.7895896 2.4982696 183 198 239
-6.0265455 1.4769547 -2.552744 70 35 41
-22.648859 2.7875648 2.4945338 145 149 187
-50.10229 8.856993 1.6042682 88 69 97
-12.479625 2.1762826 -1.0335678 217 207 182
-12.523112 2.1791062 -1.0189826 199 191 168
-12.247151 2.1446295 -1.0975618 165 152 133
-12.291484 2.147565 -1.0827649 178 167 147
-10.577094 1.9651049 -1.5077823 163 151 135
-68.31896 10.871259 5.4787292 89 64 85
-12.597619 2.1735752 -1.0082784 160 143 133
-12.393675 2.147503 -1.0647156 219 208 188
-12.5328 2.1623912 -1.0306588 205 194 176
-10.463571 1.9417583 -1.5409318 180 167 150
-12.24502 2.131659 -1.1078099 190 182 163
-12.31141 2.1360931 -1.0855979 203 196 177
-4.463776 1.2474421 -2.9054542 57 24 35
-10.477118 1.9383798 -1.5422716 179 166 149
-23.39837 2.7208846 2.9735525 155 167 207
-60.399094 9.989508 3.9558792 97 79 103
12.578192 -1.0438029 -6.1610384 53 22 27
-7.1620216 1.5550147 -2.3153145 52 22 30
-21.89747 2.7717412 2.1180763 133 112 131
-23.41111 2.7191281 2.9803236 122 128 176
-11.418128 2.0239823 -1.3076271 143 132 112
-77.83163 11.971619 7.268816 88 64 77
-4.8802567 1.277176 -2.8209052 64 27 35
-8.305151 1.6819133 -2.0598216 55 22 33
-15.516884 2.4248269 -0.21627524 103 75 87
-12.2354145 2.1156301 -1.1168401 197 188 171
-21.50399 2.7650816 1.9275546 81 58 76
-7.4300547 1.5712435 -2.2611847 60 27 34
-12.162254 2.1024072 -1.1392659 197 186 166
-22.079744 2.767886 2.1997006 84 60 76
-74.56797 11.6525135 6.674212 110 100 125
-76.005295 11.807674 6.942427 61 43 57
-48.396873 8.753927 1.1600914 102 77 99
-78.200424 12.035303 7.354174 65 51 66
-25.422577 2.645258 4.107637 168 175 217
-66.591774 10.743883 5.1865897 110 103 119
-12.218671 2.1018043 -1.1257826 164 151 135
-18.561924 2.6364126 0.76546377 65 30 37
-75.08844 11.722081 6.7785926 67 53 76
-77.709854 11.994786 7.2645884 104 87 105
-10.347527 1.8993251 -1.5851187 164 149 130
-21.96631 2.7622244 2.147256 84 66 88
-11.342167 1.9995445 -1.3420066 161 149 127
-25.422148 2.6427834 4.10821 147 161 200
-77.90384 12.021704 7.2978697 106 97 118
-12.215199 2.0979857 -1.1353147 201 194 175
12.590576 -1.1071925 -6.1883087 65 30 37
-12.01521 2.0693996 -1.1855482 150 135 116
-18.672855 2.6377933 0.8015179 107 64 74
-58.64155 9.83167 3.6055703 130 106 122
-65.911385 10.6857 5.059515 85 64 79
-11.848338 2.0491984 -1.2288524 144 126 102
-12.266424 2.0968795 -1.1315384 158 142 129
-6.021822 1.3756543 -2.5862067 79 37 51
-7.2132583 1.5178559 -2.3219545 79 48 63
10.526796 -0.83949316 -5.8128967 71 30 44
-12.073428 2.072264 -1.1709008 191 183 160
-10.866389 1.9306256 -1.464632 189 177 151
-10.915974 1.9343164 -1.4485456 174 162 138
-12.115713 2.0737033 -1.1756648 154 139 120
-79.06797 12.163525 7.551035 126 107 127
-11.261812 1.970425 -1.3765739 179 169 142
-10.978963 1.9364341 -1.4439049 147 130 110
-16.108866 2.4632657 -0.06577107 70 37 46
-20.185379 2.7088432 1.3564117 95 70 91
-54.275246 9.368332 2.6658247 90 66 82
-16.63635 2.526108 0.024638576 62 24 37
-11.104395 1.9440666 -1.414259 182 173 144
-79.31653 12.203688 7.6047783 126 105 124
-12.014361 2.047739 -1.206182 127 106 85
-12.182014 2.0640147 -1.1636897 146 129 111
-74.0862 11.687623 6.636875 101 74 89
-59.77865 10.010618 3.8704894 128 103 122
-11.279979 1.9541215 -1.3794731 155 140 117
-12.114441 2.0524683 -1.1866539 157 143 117
-10.437649 1.8589922 -1.5864252 106 77 61
-6.1192174 1.3468785 -2.582157 76 40 44
-11.15776 1.9369547 -1.4096512 171 154 126
-11.082191 1.9242843 -1.4240066 176 159 131
-12.170152 2.0530274 -1.1729617 135 115 91
-48.475876 8.806967 1.205472 127 112 131
-10.470571 1.8550421 -1.5793223 162 141 120
-10.850432 1.8975786 -1.4861087 125 103 82
-11.010466 1.9166158 -1.4481419 165 148 122
-11.88327 2.0178685 -1.2442209 117 87 63
-12.286562 2.0630825 -1.1454483 164 148 123
-66.95652 10.88091 5.2902946 33 30 47
-76.51699 11.982007 7.100919 122 107 128
-12.372312 2.0711613 -1.1248248 150 135 114
-11.273745 1.9446465 -1.389545 149 135 109
-12.089926 2.0373974 -1.1949043 117 92 72
-10.952677 1.9036651 -1.4641956 157 141 116
-18.695211 2.608978 0.7968981 113 71 81
-10.479474 1.8477254 -1.5807369 96 69 52
-68.942894 11.130448 5.6786027 85 59 72
-12.294846 2.0552793 -1.1468233 155 138 118
-17.247953 2.5015552 0.31345788 83 51 62
-10.655049 1.8671145 -1.5426687 113 87 70
-12.1898575 2.041857 -1.1755899 149 132 106
-11.3336735 1.9373778 -1.3756989 138 116 95
-61.99639 10.309255 4.3347487 77 60 76
-12.279757 2.047223 -1.1554298 117 95 74
12.255718 -1.1932516 -6.195739 63 26 33
-10.522667 1.8425063 -1.5743666 138 115 97
-11.121408 1.9061238 -1.428881 148 134 108
-13.389372 2.14668 -0.83627313 112 81 79
8.525876 -0.6778588 -5.491445 69 36 47
6.2375007 -0.36004412 -5.0535502 58 22 32
-5.1196146 1.1850839 -2.8163598 76 42 58
-10.843171 1.8716857 -1.4976482 150 130 103
-12.647964 2.0758796 -1.0374465 188 175 156
-12.573169 2.0786908 -1.1368817 162 146 121
-7.5194526 1.4773937 -2.2868075 84 50 66
-11.348718 1.923854 -1.3781037 128 106 83
-12.652069 2.076131 -1.0674945 175 163 139
-18.980373 2.611941 0.89012975 73 30 39
-8.542707 1.5937817 -2.050714 82 39 49
-51.108704 9.095422 1.920846 89 75 88
5.931206 -0.34081247 -5.0013137 98 53 60
-12.726194 2.0780253 -1.0469134 149 136 117
-59.819035 10.075813 3.9046664 79 62 78
-13.472287 2.1412416 -0.8186072 144 126 112
-13.5531845 2.1505873 -0.7999524 181 166 147
-17.294834 2.4862795 0.3205056 76 37 56
-50.895958 9.077227 1.8690168 85 76 93
-61.605053 10.293558 4.272996 123 114 133
-12.522273 2.0541577 -1.1030979 129 108 89
-55.46646 9.571571 2.9679537 112 99 116
-79.34637 12.298979 7.674537 61 40 47
-12.662172 2.0681956 -1.0790612 159 142 126
-18.103842 2.5442297 0.5870823 78 41 59
12.242291 -1.248676 -6.202371 90 42 54
-17.515968 2.4985683 0.3904089 102 58 75
-18.104963 2.542561 0.5869469 87 46 64
-18.656998 2.5807228 0.77522033 64 28 40
-12.742657 2.069363 -1.0491773 134 115 98
-12.80581 2.068382 -0.98808956 140 121 107
-56.761658 9.735332 3.2597756 58 38 50
-12.78294 2.0657609 -1.0250576 172 157 138
-49.86562 8.987653 1.6082767 77 62 81
-68.99038 11.218006 5.7332335 66 50 63
-13.597343 2.1402273 -0.79647243 134 118 105
-13.78638 2.1620643 -0.7538603 156 142 131
-54.393 9.472457 2.7284973 113 101 121
-53.67289 9.394456 2.5595949 70 56 79
-6.5745854 1.3251277 -2.513604 76 35 43
-6.937325 1.3719805 -2.4354665 78 36 40
13.654068 -1.3704672 -6.4614444 73 35 50
13.463112 -1.3485649 -6.4153905 81 35 46
-10.749242 1.8244 -1.533907 77 52 32
-15.314675 2.304186 -0.31159472 96 63 84
-57.30562 9.815525 3.3829658 74 60 85
-12.854702 2.0628614 -1.0239264 115 88 71
-17.66569 2.495626 0.43249 101 55 68
-18.718342 2.5713181 0.79191834 98 57 65
-66.186 10.903074 5.1978354 98 81 99
-7.338414 1.4088305 -2.351102 70 32 43
-7.402637 1.4145436 -2.331468 57 22 28
-63.922813 10.628922 4.7506213 63 44 64
-8.190336 1.5116577 -2.15664 68 28 37
-8.250807 1.5169146 -2.1378608 62 22 31
-4.725061 1.0722557 -2.9345212 77 40 57
-15.289439 2.2924013 -0.32544187 90 41 60
-68.529106 11.199205 5.664924 109 95 120
-13.160317 2.0790095 -0.9150715 166 151 132
-13.566516 2.1259005 -0.8299448 93 75 73
-16.15662 2.3771951 -0.08821735 87 39 53
-65.0492 10.782394 4.9771795 55 46 65
-13.028285 2.0656881 -0.9669926 113 92 73
-12.946477 2.059717 -1.0055891 130 109 88
-8.574985 1.5420406 -2.068436 61 26 32
-59.981873 10.16669 3.9754093 95 73 94
-17.117023 2.4371939 0.2481392 75 34 50
-18.779934 2.5634365 0.80850726 102 62 70
-56.913643 9.802264 3.311944 48 36 56
-65.9027 10.901011 5.161505 49 36 56
-13.214204 2.0764616 -0.9218418 123 103 79
-17.33543 2.452985 0.320319 71 39 50
-17.709734 2.4809105 0.43962958 81 41 52
-20.853598 2.6723065 1.6091646 66 28 39
-20.91949 2.674612 1.6375533 98 56 70
-18.12833 2.5111763 0.5820272 70 37 46
-20.90035 2.6729043 1.6295773 84 46 59
-23.396418 2.653369 2.9498496 128 142 189
-62.4065 10.481983 4.4863973 95 78 97
-62.435062 10.48749 4.485069 90 71 91
-15.867755 2.3265505 -0.16296819 81 36 43
-15.307592 2.2722127 -0.32892168 62 20 32
-66.10122 10.948035 5.2157636 57 44 61
-15.641428 2.3030252 -0.23109916 61 23 36
-56.48642 9.7711315 3.2265959 81 64 83
-59.55748 10.142735 3.8955414 84 61 77
-17.327694 2.4407022 0.31360844 72 38 52
-66.05352 10.953269 5.206676 35 27 42
-56.68574 9.806661 3.276288 97 90 106
-18.291286 2.5114784 0.63299763 73 35 46
-17.253452 2.4280837 0.28712413 70 38 53
-15.381541 2.264947 -0.31413254 61 33 45
-18.8462 2.5482395 0.8239213 115 72 79
-20.75652 2.655084 1.5628285 69 32 40
-17.226933 2.420954 0.27593425 85 46 65
-18.847271 2.5466237 0.8237894 104 63 69
-56.6641 9.817926 3.2742364 86 85 103
12.040393 -1.3919877 -6.25653 129 73 84
-61.937717 10.472753 4.404709 74 58 71
-49.43582 9.016266 1.5281588 90 75 98
0.59283864 0.24315955 -4.0230923 65 29 33
9.541018 -1.0321946 -5.812278 97 43 57
-66.39327 11.050346 5.3047132 81 65 76
12.576383 -1.5087622 -6.3758073 73 32 40
-60.860245 10.358541 4.190117 99 79 91
-6.2180886 1.1959131 -2.6102757 67 24 33
-18.922636 2.5346508 0.84434897 110 64 75
20.826271 -2.787361 -7.9116807 86 42 57
5.50166 -0.5014881 -4.9730906 94 43 52
-53.053776 9.430786 2.462868 122 107 126
20.83755 -2.793629 -7.914461 101 51 63
-18.835184 2.5246668 0.8116157 69 36 47
-60.04102 10.279449 4.029502 89 77 87
15.038111 -1.9172413 -6.8472934 63 23 32
-20.631432 2.6285226 1.5032083 76 40 52
-18.979229 2.5290575 0.861453 107 62 69
-21.612707 2.658014 1.9358991 110 86 100
-48.663868 8.974375 1.3253891 120 105 126
-17.596558 2.4198797 0.38193887 93 47 58
-54.11539 9.578282 2.7293591 94 72 85
-16.189829 2.3153956 -0.09986332 82 33 39
-17.586973 2.4142365 0.37584367 91 44 60
7.1294208 -0.75887334 -5.4110074 91 46 53
-60.88131 10.422018 4.2225976 92 77 100
7.0796504 -0.7590223 -5.410819 70 28 38
12.207568 -1.5374092 -6.3756313 71 25 28
-61.190617 10.464563 4.2925234 119 95 111
-11.715696 1.8000264 -1.3329637 103 73 49
-13.465037 2.0171242 -0.9074013 161 152 147
-12.093733 1.8439147 -1.2390677 133 111 88
-12.372033 1.8773569 -1.1677227 185 169 135
-12.073001 1.8400291 -1.2468053 155 139 113
-49.79718 9.116141 1.6546241 112 102 126
5.9041667 -0.613527 -5.1867676 84 34 43
-12.129585 1.8409655 -1.233102 156 139 111
-56.446934 9.890682 3.2777617 82 66 93
-24.990728 2.5710907 3.8250341 178 189 235
-49.00422 9.043067 1.4365351 89 75 101
-11.5878725 1.768469 -1.3727292 123 100 69
-12.030143 1.8192954 -1.2637914 110 84 61
6.4204807 -0.7147338 -5.300946 85 39 52
-16.643404 2.3359566 0.026885945 82 31 46
-65.52584 11.062675 5.191643 102 75 94
-11.474708 1.7451416 -1.4037721 89 62 45
-8.705218 1.4047418 -2.1007686 59 16 26
-11.4292145 1.7390205 -1.4197055 90 64 49
-58.332485 10.151174 3.7023954 86 62 76
-17.756771 2.4011576 0.41444093 97 46 63
-17.833454 2.4070203 0.4388825 137 84 100
-59.433426 10.293896 3.944784 67 49 73
-13.605145 2.0074084 -0.895847 210 207 200
-13.673755 2.0145764 -0.87579846 187 182 179
-57.338703 10.033026 3.4908013 136 115 132
8.850977 -1.1115773 -5.7812147 117 68 72
-13.656805 2.010701 -0.8831828 219 217 205
-14.360974 2.086424 -0.6829049 190 185 191
-58.96246 10.244948 3.8488634 135 107 121
-14.344366 2.083218 -0.6896862 204 199 205
-13.843101 2.02712 -0.83959824 139 132 126
-21.221115 2.6103501 1.7478437 109 82 101
-11.87226 1.7840889 -1.3385135 175 166 157
-13.767153 2.015924 -0.8589698 204 198 184
-17.615328 2.3776717 0.36249104 118 71 79
-17.784512 2.3931732 0.41700786 118 73 80
-12.812985 1.9004381 -1.1054661 147 138 129
-17.992794 2.4104974 0.48585165 131 85 98
7.429125 -0.9288011 -5.519213 113 68 73
-13.399809 1.9688456 -0.95818055 159 150 141
0.9674641 0.0049236375 -4.175978 69 28 34
-13.2442665 1.946813 -0.9982669 182 179 164
-13.172614 1.9386227 -1.0186336 153 143 131
-14.153883 2.0527492 -0.7573618 119 111 109
-18.095188 2.413463 0.51961255 85 38 56
-52.856827 9.510188 2.462513 113 97 123
-13.359248 1.9596635 -0.97263426 205 199 185
-18.096376 2.411807 0.51948684 105 58 76
-6.516916 1.0760733 -2.6293046 94 42 54
-7.6653566 1.2292707 -2.364542 105 57 73
-13.38827 1.9589791 -0.9666061 181 174 158
-18.170347 2.4161332 0.5432432 148 102 115
1.7850075 -0.13698001 -4.344402 97 57 68
-14.001866 2.0278463 -0.8038027 147 143 134
-14.381117 2.0692985 -0.69475245 200 200 198
-18.140018 2.4060652 0.5335495 96 48 60
-53.969193 9.666483 2.740615 90 72 94
-15.708394 2.1761777 -0.2273644 92 40 52
-14.129721 2.030718 -0.7736982 165 164 162
-12.021073 1.7697536 -1.3146648 160 142 118
-53.06694 9.563635 2.5266876 116 103 123
-18.531116 2.4268923 0.6743206 78 35 45
-11.968546 1.7571905 -1.3301231 132 110 86
-13.74163 1.9792478 -0.8852719 100 91 84
-11.947794 1.7532184 -1.3379649 122 98 72
-13.003756 1.8892105 -1.0786244 179 172 153
-13.596236 1.9603989 -0.92502683 147 144 129
-53.342163 9.605605 2.594438 77 62 81
-14.33033 2.0415022 -0.7254869 184 178 166
-53.224068 9.596825 2.5687444 109 92 108
-76.36821 12.547046 7.3863177 89 70 76
-60.34928 10.509145 4.1860046 91 85 87
-11.8422785 1.7275268 -1.3692766 118 97 80
-59.44816 10.395571 3.9860768 109 98 104
-12.026 1.7503773 -1.3260713 135 117 103
-12.070666 1.7542094 -1.3106955 116 98 88
-14.1832485 2.014764 -0.7718247 75 66 51
-13.715295 1.957755 -0.9018601 80 67 51
-13.594238 1.9416502 -0.93515193 57 38 31
-12.071433 1.7467326 -1.3208365 152 145 129
-10.582074 1.5412488 -1.6659145 140 124 109
-13.205727 1.8850304 -1.044095 131 118 102
-14.469368 2.033634 -0.6983111 51 40 48
-14.7563715 2.06326 -0.60939854 79 66 73
-14.127002 1.9926585 -0.79324555 99 90 93
-14.243168 2.0060213 -0.76153624 82 71 77
-11.188203 1.6206422 -1.5474386 138 122 97
-13.172091 1.8758537 -1.0507958 131 118 101
-14.034416 1.9804156 -0.8191081 70 59 55
-13.8265705 1.9548793 -0.8781862 63 54 47
-13.917061 1.9651657 -0.8516052 116 105 99
-14.154066 1.9916229 -0.78761554 144 133 127
-13.726621 1.9397101 -0.9042016 109 95 86
-10.686916 1.5498666 -1.673256 147 136 130
-13.425585 1.9011135 -0.98349494 57 44 36
-8.868588 1.3021792 -2.1102567 74 32 42
-18.893417 2.4229267 0.79203653 104 52 64
-8.965526 1.3166388 -2.0933926 85 35 46
-13.434711 1.8989252 -0.9845504 89 73 58
-13.341698 1.8856212 -1.0122356 148 138 111
-12.714861 1.8061261 -1.1774153 79 67 69
-12.60877 1.7899048 -1.2059742 57 45 45
-6.595275 0.98157597 -2.6545796 79 37 51
-10.129461 1.4600693 -1.8127232 134 113 96
-8.708765 1.2689314 -2.157333 82 39 56
-12.781394 1.8082267 -1.1649446 112 101 95
-12.823091 1.8117373 -1.1501675 122 112 103
-15.919485 2.1663945 -0.27471226 90 42 56
-15.891766 2.1641319 -0.2506915 89 42 52
-12.429575 1.7597413 -1.257236 111 101 99
-14.485346 2.0051048 -0.70215946 139 127 101
-9.564767 1.3663721 -1.9584731 64 34 44
-9.8144045 1.401613 -1.8989817 115 98 114
-11.793126 1.666968 -1.4179997 134 127 135
-12.459258 1.7539483 -1.2510251 63 44 40
-12.7399025 1.789862 -1.1810805 63 48 43
-14.51158 2.0035408 -0.69639796 131 119 95
-12.782625 1.7924305 -1.1663082 43 29 29
-18.963263 2.4121938 0.8069628 66 23 30
-11.750458 1.6602757 -1.4341663 124 114 122
-52.70552 9.611375 2.4775064 107 94 112
-53.981556 9.771061 2.7877445 71 64 80
-12.13189 1.708047 -1.338762 72 59 66
-12.176899 1.7109139 -1.3234513 59 48 54
-13.204445 1.8373626 -1.0476141 76 63 54
-25.04321 2.5059958 3.8378108 126 139 184
-19.957096 2.476493 1.1898719 110 66 79
-54.684277 9.867561 2.9631965 85 66 85
-7.839325 1.121271 -2.384997 73 29 42
-7.931655 1.1307393 -2.355784 62 21 29
-58.16429 10.330878 3.764469 126 105 114
-11.264577 1.5785726 -1.5570148 80 53 36
-13.085373 1.8109299 -1.0836165 40 28 28
-13.342045 1.8437977 -1.0153385 56 44 32
-11.101076 1.5545281 -1.5953016 110 92 72
-10.716825 1.50072 -1.6899973 93 69 57
-10.766471 1.505418 -1.6733391 102 76 61
-11.014909 1.5423881 -1.6192988 120 102 82
-52.78809 9.641197 2.5097353 110 95 116
-13.087992 1.8079858 -1.0837747 63 53 43
-13.197822 1.8223737 -1.0570364 102 91 71
-9.016551 1.2660474 -2.1014602 70 29 35
-15.143623 2.0445151 -0.49654284 123 112 128
-13.252157 1.8261335 -1.0440382 106 91 68
-15.110623 2.0410297 -0.50937593 102 90 104
-12.689907 1.749235 -1.1979928 48 29 25
-15.450733 2.0684469 -0.3999283 94 78 91
-53.921635 9.799728 2.7930722 49 46 57
-13.198334 1.8079561 -1.058313 90 66 54
-9.618492 1.3320087 -1.9651772 51 21 31
-21.843449 2.5523155 2.0135446 153 134 153
-20.159994 2.4717433 1.2594799 130 93 111
-6.698917 0.90839225 -2.6672287 82 44 55
-20.249954 2.4710152 1.292678 142 103 122
-6.660869 0.89576817 -2.6782696 83 42 56
-20.871952 2.5085151 1.5544094 119 107 131
-74.31906 12.56811 7.11728 104 86 102
-20.908041 2.5070899 1.5711911 102 83 111
51.275776 -8.632355 -14.168173 113 65 87
-18.661453 2.341413 0.6845126 98 56 60
-18.690723 2.3434715 0.6935122 111 66 73
-74.986176 12.670158 7.2573667 62 45 63
-18.731966 2.3428805 0.70722544 76 33 43
-50.347282 9.405153 1.9088614 78 59 79
-20.322521 2.4598887 1.3164221 132 83 102
-50.332523 9.409509 1.9053932 98 78 90
-16.386698 2.1345537 -0.11935931 80 27 33
-19.54552 2.401332 1.0114473 76 34 48
-7.975152 1.0456445 -2.3889577 79 29 38
-6.8462486 0.8811243 -2.6538694 68 21 31
-17.551405 2.225315 0.29232463 79 36 53
-20.365278 2.459108 1.3331826 79 40 58
-7.8128443 1.0182623 -2.4274874 131 81 90
-18.634403 2.3218322 0.66757405 80 38 50
-20.35622 2.4549282 1.3286101 118 84 100
-19.468603 2.3893542 0.97889644 75 37 52
60.683693 -10.613226 -16.099627 117 79 92
51.16887 -8.773687 -14.227069 114 78 92
-19.47098 2.3858395 0.97833526 75 34 50
-17.636065 2.2540054 0.24436288 87 39 53
-18.638952 2.315571 0.6666694 86 40 51
-73.41628 12.552507 6.984435 68 53 72
-7.473963 0.9517666 -2.5173788 129 83 93
-7.1898007 0.904235 -2.5877035 63 28 34
-7.255192 0.9101027 -2.5674808 68 35 42
-16.833504 2.1592813 -0.0032426326 78 31 47
-5.438119 0.633408 -3.0096655 105 59 69
-5.5464597 0.6457401 -2.9763722 81 33 45
-8.025883 1.0070037 -2.3954885 89 47 61
-21.831177 2.499809 1.9886744 144 120 134
-22.284033 2.510845 2.215236 153 131 144
-22.073626 2.5022724 2.1081173 114 87 102
-51.169315 9.583433 2.1641827 71 56 99
-51.120903 9.58087 2.1534266 41 32 85
-51.21678 9.593061 2.1786373 121 113 172
-51.265087 9.5992155 2.1913037 140 139 197
-22.09048 2.4999702 2.1155367 110 83 98
-51.12221 9.583936 2.1550028 54 45 112
-10.206951 1.2785721 -1.8961873 95 39 52
-22.068834 2.4964893 2.1037369 72 51 68
-19.999508 2.3885128 1.1679217 72 30 34
-50.137875 9.469169 1.8912832 107 102 124
-4.9261312 0.49811116 -3.1643958 88 34 47
-10.266379 1.2811534 -1.8897375 140 88 101
-5.004138 0.50073564 -3.1542847 149 96 112
-50.116528 9.476956 1.8919793 108 96 118
-50.275257 9.498551 1.9322033 114 114 142
-50.468674 9.522269 1.9863765 34 42 79
-50.58182 9.539358 2.0180106 119 110 165
-50.448864 9.525371 1.983416 107 103 138
-50.147285 9.491481 1.9016421 120 107 135
-21.702868 2.4663658 1.9194331 118 91 108
-50.74894 9.579024 2.0706177 39 54 123
-22.155472 2.479865 2.1408148 113 88 107
-20.4458 2.397576 1.3439213 126 71 92
-50.41427 9.547311 1.984475 108 105 136
-20.49094 2.398806 1.3600574 157 110 130
-22.03813 2.4696307 2.0790322 130 112 128
-23.350946 2.4700751 2.8100479 177 192 235
-4.722018 0.40344036 -3.2485962 107 49 63
-22.883583 2.475084 2.5173986 164 177 212
54.142723 -10.564846 -15.646861 112 56 69
-22.486605 2.4619799 2.301312 108 83 102
-26.0573 2.348654 4.637191 129 117 139
-14.767688 1.7868112 -0.72192264 68 70 118
-14.611324 1.7678539 -0.77421564 75 79 124
-16.983814 2.0404942 -0.008750157 104 63 81
-16.956678 2.0374541 -0.02026572 87 50 67
-21.43708 2.402891 1.7643049 113 70 89
-21.421104 2.4015043 1.7560433 101 62 83
-22.67214 2.4453678 2.393623 113 86 103
51.672283 -10.399508 -15.33286 94 65 67
-17.041565 2.0233204 -0.0021000286 90 62 76
-21.101778 2.365677 1.5972757 143 110 131
-20.484734 2.3248055 1.3160565 72 37 43
-20.5926 2.3284442 1.3635807 126 82 95
-20.406933 2.3141212 1.2808875 123 77 88
-20.59364 2.3269691 1.3634726 91 55 65
-20.739042 2.3368397 1.4275054 112 68 83
-21.070099 2.3559816 1.5797955 109 65 88
-20.63461 2.3283496 1.3802496 76 44 57
-20.369759 2.308356 1.2628497 87 47 58
-19.062965 2.2155898 0.69449306 114 70 83
-22.539965 2.41421 2.3123748 77 60 79
-19.375841 2.2591066 0.7638417 90 49 67
-19.774715 2.2868743 0.9396818 100 66 83
-69.46753 12.542616 6.4345617 60 47 64
-16.598923 1.9323826 -0.1701223 74 36 49
-17.06527 1.9809372 -0.015114516 119 74 95
-17.093487 1.9823685 -0.0037119864 99 60 78
-16.855556 1.9534656 -0.087142654 83 45 60
-22.089823 2.3885899 2.0757515 133 118 137
-17.637594 2.0354877 0.18324196 101 59 81
-17.639011 2.0338433 0.18315336 110 66 93
-21.964699 2.377447 2.0085478 110 90 118
-14.778334 1.6847148 -0.7641575 105 60 81
-13.325693 1.488055 -1.2032014 75 35 46
-17.162304 1.9644701 0.008611471 88 51 69
-25.640017 2.356312 4.246766 75 66 85
7.7244205 -2.001125 -6.301449 111 65 68
7.0558667 -1.8920282 -6.1530933 83 38 43
-59.400005 11.135732 4.327913 94 86 107
-59.68481 11.182243 4.393823 67 58 79
1.1638248 -0.8900251 -4.854668 94 51 68
-63.59957 11.930461 5.323841 35 27 42
-63.36883 11.895921 5.273705 30 26 43
-23.880976 2.2819145 3.197953 87 94 112
-25.118607 2.0645962 4.459649 99 102 135
-25.003569 2.060128 4.3440623 107 119 143
-24.780773 2.0770617 4.1441293 86 94 117
-23.15429 2.2564294 2.6953661 83 47 61
-23.186476 2.2484176 2.7143254 86 54 69
-23.160423 2.2444963 2.6948376 83 49 66
-25.03232 2.0536406 4.3190575 128 134 166
-23.16695 2.2417133 2.698791 87 50 68
-56.301888 11.011542 3.774401 76 63 80
-56.013756 10.97578 3.706249 101 98 119
-55.809948 10.972179 3.6648855 49 36 53
-23.162537 2.2164586 2.679965 111 66 86
-23.028475 2.1959238 2.5885737 76 38 53
-23.040508 2.1961246 2.5961719 86 49 67
-21.758263 2.1247978 1.7947621 88 48 72
-22.723244 2.1553984 2.3738747 93 56 74
-22.709763 2.1461027 2.3612204 136 97 116
-23.58884 2.1108634 2.9523745 75 52 68
-19.851646 1.7479484 0.6243574 76 46 58
-19.334976 1.6831554 0.36719438 44 34 43
-19.391304 1.6880423 0.3929652 63 67 79
-19.40225 1.687372 0.3982623 70 75 81
