ply
format ascii 1.0
element vertex 923
property float x
property float y
property float z
property uchar red
property uchar green
property uchar blue
end_header
0 0 0 255 0 0
-0.42928258 0.06430273 -0.51538914 50 41 62
0.20776886 0.40820882 -3.8160267 68 47 66
0.048444573 0.34017316 -3.1617863 125 104 123
-0.67454094 -0.5146144 5.0068254 103 85 109
-0.22148453 0.20077154 -1.8345127 70 57 75
-0.54138845 -0.030672492 0.39401385 99 76 96
-0.77659243 0.3215369 -2.934177 88 61 76
-0.33182958 0.13100666 -1.1690754 105 83 106
0.49517566 0.51355505 -4.9051266 85 60 81
0.42068514 0.48727354 -4.654597 65 52 70
-0.5157672 -0.0069544227 0.16723523 85 65 90
-0.79253703 -0.4306501 4.272787 66 51 58
-0.78980464 -0.45251706 4.4888167 173 157 142
-0.7876436 -0.40698776 4.0554137 75 32 39
0.047915056 0.33236548 -3.1525931 81 64 83
-0.4728264 0.029596724 -0.18931502 93 74 96
-0.78371644 -0.3748727 3.748596 56 54 59
-0.78382874 -0.38528082 3.8488054 128 118 117
-0.4301999 0.06226554 -0.5083858 75 56 76
-0.7886123 -0.38552672 3.8576434 57 37 49
-0.78062385 -0.38576683 3.8614554 91 48 57
-0.43032047 0.062038835 -0.50746197 79 60 80
-0.77907574 -0.383301 3.8403208 102 47 53
-0.7862247 -0.3831442 3.844268 194 168 155
-0.78427464 -0.39478424 3.9593542 120 70 71
-0.48862812 0.016319267 -0.060075644 91 67 89
-0.79433286 -0.44806114 4.484858 100 49 54
-0.082771905 0.26943055 -2.5527601 118 99 121
0.4084964 -0.7644987 7.2829733 96 82 108
-0.78987914 -0.42561698 4.279267 162 143 126
-0.78962445 -0.43582442 4.3785095 152 134 120
-0.78366065 -0.34050092 3.450839 93 79 104
-0.0821572 0.26929164 -2.562356 99 79 104
-0.7966312 -0.43616605 4.3895054 161 152 137
-0.22193879 -0.19318478 1.9149792 86 61 83
-2.442838 -0.42470276 4.4774027 136 140 201
-0.7744033 -0.32795817 3.3323736 111 101 126
-0.49529317 -0.16650492 1.6998262 67 45 66
-0.794243 -0.38291028 3.8777373 86 65 84
-0.7861274 -0.43365052 4.373163 50 41 36
-0.7746553 -0.34764153 3.531868 137 127 161
-0.49410385 -0.16554746 1.6915642 71 43 65
-0.7859179 -0.34881052 3.546503 148 144 179
0.5906484 0.52819127 -5.1614003 98 73 92
0.20589489 0.39334595 -3.8141863 84 66 82
-2.9486654 -0.5092532 5.382883 122 144 191
-0.7729005 -0.3243605 3.3144386 131 116 147
-0.79005295 -0.37015465 3.779442 130 128 129
-0.7896024 -0.43113217 4.3787084 195 179 156
-0.7784624 -0.33517766 3.432729 82 82 116
0.2539481 0.40947473 -3.9985363 113 96 114
-0.7826309 -0.42914623 4.3679795 87 81 69
-0.77566063 -0.31363663 3.2304995 75 50 45
-0.7814131 -0.34422374 3.5379965 133 133 157
-0.27923214 0.15963036 -1.5007254 107 86 103
-0.78091544 -0.355099 3.6534185 75 57 69
-0.78262115 -0.4271397 4.3680615 104 133 139
0.20532694 0.3870848 -3.7966173 69 50 70
-0.79037935 -0.428808 4.3907967 61 75 84
-0.76164 -0.27850243 2.8953917 139 108 103
-0.77283734 -0.3113553 3.2245326 188 182 156
-0.7976797 -0.44008917 4.512345 58 65 71
-0.71339333 -0.37789944 3.8824825 99 86 112
-1.9202594 -0.5611735 5.928753 82 61 80
-0.2243832 0.19119388 -1.8245379 89 71 97
-0.3322561 0.12704471 -1.1787117 89 80 101
-0.7701493 -0.32112354 3.3245118 70 41 61
-0.08210569 0.26170814 -2.5403924 74 54 79
-0.786166 -0.43689325 4.483943 24 30 46
-0.31572145 0.13749191 -1.2863214 74 65 86
-0.7751675 -0.32074368 3.3279402 84 51 46
0.60993 0.42328575 -4.2661304 117 88 106
-0.5770461 -0.063740864 0.74338084 75 56 76
-0.77427953 -0.31045574 3.2280805 104 86 76
0.56917536 0.51514983 -5.1335063 92 67 89
-0.7700284 -0.309087 3.2186348 163 146 130
-0.78168005 -0.35175553 3.6467583 118 104 93
-0.33352312 0.1258773 -1.1726816 59 45 62
-0.7716105 -0.31967393 3.3280466 191 183 160
-0.7537477 -0.27473974 2.8763008 140 129 123
-0.7906942 -0.434163 4.4798183 182 178 167
-0.77595884 -0.31979418 3.337615 127 115 101
-0.20537049 0.19632095 -1.8951776 86 64 85
-0.5412531 -0.02921426 0.39754885 54 35 55
-0.78382844 -0.3719557 3.8690145 103 102 146
0.41185594 -0.6662091 6.580365 62 43 62
0.34620646 -0.5995057 5.9263487 113 104 125
-0.7929614 -0.32311475 3.3826904 109 90 86
-0.7743126 -0.3082951 3.2286735 115 96 89
-0.7774221 -0.31933814 3.3409646 139 128 110
-0.7822047 -0.36108553 3.7656162 76 78 126
-0.5287087 -0.017900372 0.28338218 62 43 62
-0.76873624 -0.29692337 3.1186876 123 99 89
-0.7824755 -0.35013735 3.6572502 65 71 107
-0.79478294 -0.3611975 3.7718034 54 54 80
-0.770825 -0.3072133 3.2283165 103 100 85
-0.7930897 -0.40179494 4.1856704 62 55 71
-0.7914686 -0.43209797 4.4920697 181 177 178
-0.14632119 0.2302465 -2.252478 85 57 79
-0.7544228 -0.26381728 2.7898736 141 133 120
-0.77433074 -0.3070942 3.2289996 151 142 127
-0.7824788 -0.34930962 3.6573782 81 84 129
-0.031687047 -0.22756839 2.222936 78 57 76
-0.75053936 -0.26268134 2.7799006 121 114 98
-0.7807339 -0.33812577 3.5459764 93 73 82
2.6484156 1.016257 -10.847854 125 102 120
-0.73983413 -0.24032426 2.5535758 127 113 110
-0.75717133 -0.27349478 2.8918984 152 149 134
0.59072626 0.5170466 -5.21566 108 93 114
-0.76673234 -0.295677 3.121333 141 139 126
-0.7659092 -0.3150674 3.3165386 83 55 51
-0.7798664 -0.35795096 3.7525678 114 135 190
-0.73516756 -0.23006949 2.4544487 122 108 121
-0.14645064 0.22807409 -2.241293 114 100 125
-0.16559759 0.21773216 -2.1354656 84 68 95
-0.7883343 -0.38979128 4.0877614 57 61 106
-0.75379384 -0.25296104 2.6952457 154 136 126
-0.7924356 -0.42855337 4.4825993 141 142 160
-0.7837675 -0.33681354 3.5524383 132 129 114
-0.7380504 -0.24913236 2.6588128 146 115 112
-0.76739615 -0.2938534 3.1162913 86 54 77
-0.77934694 -0.37755296 3.9716694 73 77 125
-0.5339896 -0.3061729 3.2248342 126 102 126
-0.7280419 -0.22692393 2.434485 122 86 90
-0.7721834 -0.3034074 3.2175467 114 84 112
-0.77474433 -0.33436584 3.5343509 114 130 164
-0.7526632 -0.2708432 2.8876295 105 87 103
-0.64683163 0.16819659 -1.6235365 90 59 77
-0.7579633 -0.27162308 2.9009657 157 136 145
-0.7738922 -0.3145167 3.341932 97 94 101
-0.7777275 -0.3757922 3.968987 121 129 175
0.6634165 0.5361405 -5.467827 110 89 106
-0.7406157 -0.23852848 2.5620291 183 164 150
-0.7694665 -0.30283943 3.2262304 156 141 162
-0.667416 0.45929208 -4.6302776 131 112 132
2.5438516 -0.87891144 8.9201145 74 55 75
0.63928306 0.5265729 -5.3762937 90 68 89
-0.7754071 -0.41491422 4.3791447 84 64 55
-0.7875957 -0.41620395 4.3977575 63 36 43
-0.77096003 -0.41488966 4.3833027 64 47 40
2.477658 -0.8736907 8.889233 114 90 104
-0.78542906 -0.40492117 4.2837534 187 175 185
0.20340571 0.37782997 -3.8315346 86 72 87
0.25469586 0.39100164 -3.97328 85 61 83
0.29722428 0.41336137 -4.206974 75 52 72
-0.7850474 -0.37402266 3.972389 156 143 153
0.22371487 0.38587186 -3.9239273 98 87 104
-0.46313778 0.22201051 -2.190312 53 36 54
-0.4012077 0.07868907 -0.7173054 119 100 119
-0.79474956 -0.41305178 4.387449 92 105 149
-1.5211177 0.6193312 -6.049225 72 57 76
-2.0938702 -0.6541351 6.966615 112 88 110
-0.7201771 -0.37736437 4.0193806 81 62 82
-0.77234346 -0.30076882 3.2333074 106 93 111
-0.7196735 -0.38547516 4.1029634 66 47 67
-0.76884633 -0.30041444 3.232824 174 179 182
-0.7945989 -0.41377586 4.408719 99 104 144
-0.7819915 -0.4014989 4.2784505 188 186 189
-0.7212726 -0.39719224 4.230647 96 74 95
0.15506381 0.35608745 -3.6301785 111 98 116
-0.7352544 -0.23497939 2.553522 150 144 144
-0.7853604 -0.35220006 3.772728 49 58 91
-0.7790561 -0.36091787 3.8614798 159 146 127
-0.7688467 -0.30892074 3.3242426 67 111 122
-0.78028005 -0.4006097 4.2757764 156 151 145
-1.4257675 -0.4183079 4.4564924 74 57 76
-0.75337744 -0.26623297 2.8844976 145 146 177
-0.76407856 -0.28838623 3.116924 150 147 174
-0.7879422 -0.34210983 3.677935 16 38 51
-0.78542703 -0.36105204 3.873111 79 77 88
0.15062863 0.35554 -3.634449 71 52 74
-0.78963405 -0.40176532 4.30114 188 181 175
-0.770284 -0.29925117 3.2363663 61 85 109
-0.7830192 -0.36083055 3.878062 113 107 111
-0.79214984 0.33580488 -3.3707886 86 57 77
0.96051335 0.6087104 -6.333033 92 73 93
-0.6597218 -0.5008257 5.3294287 102 89 109
-0.7170784 0.2550617 -2.5445557 85 57 79
-0.06360154 0.26196605 -2.658053 94 67 86
-0.78559965 -0.33962217 3.6649275 33 43 55
-0.74536324 -0.39633384 4.2544866 50 37 54
-0.7414267 -0.24473825 2.6756527 141 137 164
-0.7750684 -0.35810962 3.863895 139 126 117
-0.65165615 -0.47970378 5.1247587 62 48 65
4.183293 -0.8310464 8.473413 41 42 73
-0.7731982 -0.30700898 3.3341792 23 37 50
-0.7779931 -0.31868592 3.4589968 53 72 87
-0.88410693 0.44451275 -4.522907 87 68 96
4.163641 -0.82836753 8.461686 65 68 109
-0.0863454 0.25211132 -2.5661826 102 78 94
-0.69500834 -0.17759606 1.9772255 70 47 67
-0.769651 -0.29753324 3.2427826 63 73 75
-0.7766514 -0.35688776 3.8668725 90 79 75
-0.14808741 0.219596 -2.2261095 110 96 113
-0.73917603 -0.23380461 2.576273 171 174 193
-0.6513992 -0.4856788 5.2102623 61 44 62
-0.7676571 -0.28642252 3.1330237 150 129 134
-0.7724052 -0.29618764 3.2344747 103 107 108
-0.78944904 -0.33710578 3.6642594 69 106 124
-0.7154723 -0.3792285 4.107813 96 72 96
-0.78419256 -0.36619237 3.9811673 121 107 96
-0.7299088 -0.2293339 2.5351164 111 104 135
-0.73833096 -0.24120605 2.6626499 152 132 144
-0.77411133 -0.33476353 3.651707 25 42 58
-0.7724212 -0.29498118 3.2347786 41 57 72
-0.77646226 -0.3145408 3.4403255 17 50 65
-0.7465825 -0.24301675 2.6905525 151 148 167
0.1309341 0.34351286 -3.5779343 117 99 113
-0.022643939 0.27510333 -2.84178 101 72 90
-0.7452091 -0.24141754 2.6757448 157 155 169
-0.7490538 -0.26186305 2.8942459 60 44 54
-0.77847385 -0.3642822 3.9809554 57 29 43
-0.007585966 -0.25039238 2.6357274 83 58 79
-0.76150143 -0.28338915 3.1263828 63 90 101
-0.777171 -0.33361655 3.6578274 62 100 111
-0.5532135 -0.038670156 0.51618546 96 68 90
-0.6860925 -0.4359968 4.7407026 122 100 121
-0.04469562 0.2646006 -2.735613 113 88 107
-0.771904 -0.3520483 3.8587973 82 44 59
0.10665117 0.3313073 -3.4566891 86 65 82
-0.9255175 -0.19535826 2.191915 85 58 77
-0.78024167 -0.3330227 3.663922 14 42 56
-2.1970043 -0.7222214 7.718516 89 68 87
-0.7837981 -0.34279412 3.7708235 12 30 44
-0.7848672 -0.33324406 3.6730027 64 88 100
-0.7830121 -0.3525779 3.8788362 114 97 103
-0.7744744 -0.3608128 3.9645936 140 126 113
-0.045727603 0.26384994 -2.7413778 82 61 80
-0.44669876 0.046356928 -0.39538276 128 103 124
1.8388472 0.7616156 -8.192562 84 65 87
-0.76968855 -0.30069456 3.335467 52 81 85
-0.7769338 -0.3017959 3.3511517 66 99 108
-0.7144797 -0.36490944 4.022198 113 94 113
-0.56779027 0.1169141 -1.1495928 71 57 74
2.0086584 0.78521377 -8.467014 133 115 137
-0.77948856 -0.3313554 3.6713898 30 39 48
-0.7705391 -0.28162825 3.1410382 39 69 71
-0.7132963 -0.3625495 4.0001764 103 86 105
-0.76227194 -0.26053518 2.9154468 183 187 160
-0.7523748 -0.25844464 2.8972359 71 96 100
-0.75807637 -0.27843338 3.1123977 16 30 43
-1.3993345 0.46276706 -4.722198 103 75 90
-0.7556257 -0.25844523 2.8990552 56 68 66
-0.7216988 -0.36314362 4.022752 86 73 90
-0.7129322 -0.19460607 2.2106438 64 41 51
-0.6937267 -0.38996053 4.3106785 115 99 128
-0.76498353 -0.27910885 3.1284802 37 35 46
1.9609923 -0.71458685 7.096683 67 48 67
-0.7669045 -0.29786262 3.3455515 103 62 70
-0.773375 -0.29820338 3.3517797 129 103 104
-0.75811154 -0.2761176 3.1130419 108 84 74
0.1303549 0.3314818 -3.538998 92 69 89
-0.7505251 -0.25531173 2.8999615 90 84 70
-0.75593585 -0.26595274 3.016974 141 135 121
-0.7583403 -0.2945631 3.3277016 58 45 37
0.9141744 0.5677476 -6.1801767 104 87 105
0.29568005 0.38983217 -4.2002254 75 54 69
-0.16847879 0.20175417 -2.1178076 101 77 91
-0.31880248 0.12488653 -1.2717576 110 100 127
-0.7613222 -0.28430864 3.226792 70 62 59
-0.76692754 -0.29510123 3.3461134 137 130 114
0.36450917 0.4117062 -4.4526367 74 49 68
-0.22812277 0.17331311 -1.8093541 84 65 71
0.24708755 -0.5157731 5.495479 78 60 76
-1.3940182 -0.42911345 4.81503 78 63 86
-0.773702 -0.30534735 3.4684596 105 99 85
-1.3517828 -0.4091018 4.597783 77 62 83
-0.28390288 0.14288619 -1.4767979 109 94 115
1.6952261 0.7166471 -7.9430366 98 74 96
-0.38736406 0.082736984 -0.81491566 53 44 61
-0.3883802 0.080899045 -0.7962225 54 42 66
-0.35260233 0.10494151 -1.0649334 44 32 52
1.1898983 -0.5777102 6.1280646 123 95 117
-0.15056363 0.21158782 -2.2579398 120 99 116
-0.59031314 -0.0700284 0.88440746 117 98 118
-1.1377622 -0.28677073 3.3083477 74 54 66
-0.6825054 -0.42537814 4.8514466 130 105 124
0.7273692 -0.7318684 7.818222 97 73 95
-1.2160766 -0.31647676 3.6547034 75 54 69
-0.6770646 -0.41333646 4.7309303 103 78 99
0.88928515 0.5467149 -6.1144257 117 95 108
-0.66605383 -0.15138386 1.8140861 82 54 76
-0.902239 0.19371635 -2.052146 44 36 49
-0.62937796 -0.10968955 1.345427 75 50 71
-1.7894503 -0.44854328 5.276804 108 95 113
-0.59639937 -0.07703708 0.982011 99 61 82
0.08673382 0.29449216 -3.279449 96 72 94
-0.750984 -0.11688789 1.477233 80 74 102
-1.0624957 -0.5874466 6.90174 84 33 50
-1.0875171 -0.47403854 5.619314 111 58 76
0.27290684 -0.74363774 8.258195 86 72 97
0.014661854 -0.28284314 3.2177162 107 94 111
-0.48420352 0.06960116 -0.7028824 98 74 96
3.341893 -0.79886806 9.162773 83 101 141
0.8310254 0.51380813 -5.998724 72 49 67
-1.06299 -0.35238907 4.2942777 117 60 77
0.5539581 0.4371074 -5.1261616 118 105 125
-0.31765065 -0.49013534 5.529437 95 67 89
0.6043895 -0.72217876 8.235607 91 70 89
-0.4203178 -0.3126081 3.6446755 101 74 93
-1.0198871 -0.47736663 5.8147345 97 44 60
-0.45753402 0.320133 -3.6658225 121 102 121
-1.0280986 -0.44066116 5.4035363 71 25 35
-0.4575613 0.32445967 -3.7234147 96 73 93
-0.3579696 -0.296381 3.519814 88 69 89
-0.95523393 -0.6045726 7.406874 107 48 68
3.37883 -0.7691497 9.143113 72 81 124
-1.0123577 -0.51975477 6.477229 103 49 62
0.5287861 -0.47839257 5.6483564 76 57 79
-1.015971 -0.49233022 6.1634974 87 41 54
-0.061268784 -0.6616634 8.148746 99 75 91
-0.08477194 -0.6611146 8.15357 117 98 117
0.7305622 0.46638575 -5.6907425 94 77 96
-0.9720325 -0.2507218 3.2239196 82 35 45
-0.10585824 -0.6474119 7.996028 114 101 119
0.7672775 0.4806154 -5.8711863 89 70 90
-0.66140854 -0.40376118 5.0705566 109 76 95
-1.0272396 -0.43368208 5.485298 81 33 47
-0.968654 -0.52589715 6.612009 72 36 50
-0.13179362 -0.64440346 8.001518 89 62 79
-0.13058105 -0.65146345 8.092596 88 61 76
0.7980975 0.4812777 -5.9222283 109 91 115
0.807408 0.480074 -5.9169927 83 60 80
-0.479573 0.114164494 -1.2717003 116 95 110
0.82008904 0.48456708 -5.9795194 92 70 91
-0.9186187 -0.20694533 2.711581 82 39 59
-0.98658913 -0.52413315 6.630929 119 75 90
-0.9715097 -0.51028544 6.4582195 106 65 79
-0.6105647 0.18661846 -2.153088 90 61 79
3.3749826 -0.7538756 9.130142 139 151 191
-0.9841037 -0.5097575 6.472237 86 40 53
-0.5218407 -0.5038128 6.366317 79 57 80
-0.20950332 -0.62291664 7.827367 108 77 93
0.97560024 0.5171925 -6.439377 77 56 71
-0.54902107 0.13721555 -1.5355313 80 61 80
0.11435685 -0.60745424 7.324692 95 76 96
-0.98658305 -0.5079204 6.474617 91 43 59
-0.17182513 -0.6237541 7.8776894 106 77 97
1.399349 -0.5437158 6.530812 94 79 102
-0.6278447 -0.43401843 5.548279 103 70 91
-0.52944314 -0.49165452 6.2829065 96 75 108
3.2245784 -0.7374645 9.125509 55 68 110
1.6600103 0.6235127 -7.925989 92 64 89
-1.0163369 -0.24922563 3.3375318 68 35 46
1.6558878 0.61938626 -7.9006925 113 90 116
3.1476068 -0.7413556 9.220426 85 90 122
1.7131919 0.6258256 -8.0084095 113 96 112
-0.29112124 -0.5825001 7.49582 123 91 112
-1.0184865 -0.2484257 3.3438375 126 95 113
3.1717439 -0.7302686 9.115562 99 107 130
-2.6609054 -0.33869356 4.706615 142 161 217
1.7303503 0.6250305 -8.055613 122 97 116
0.59667516 -0.638759 7.7096496 88 72 98
2.2001085 -0.5773736 6.3380885 114 123 166
0.7666791 -0.6695346 8.149528 90 76 99
-0.23397043 -0.591144 7.6922517 118 88 112
1.8921736 0.6389178 -8.310502 94 70 86
2.959121 -0.7205627 9.150238 52 41 55
1.9544958 0.6477573 -8.460973 84 61 77
2.5310216 -0.61048204 7.023227 125 139 184
-0.4084821 -0.542081 7.130065 114 88 113
-1.204183 -0.58149594 7.741818 68 24 37
-0.39192128 -0.53028524 7.026904 90 70 95
0.07053231 -0.17137945 2.1651742 82 60 81
-0.18427521 -0.5845339 7.778496 105 91 108
-0.27431378 -0.5623927 7.5082693 106 85 102
-1.1575673 -0.4083767 5.6083665 63 29 43
-0.36379337 -0.5312638 7.166245 113 105 128
-0.38731948 -0.5288235 7.156281 59 32 41
-0.36669683 -0.52802867 7.149508 83 63 88
2.9603093 -0.687504 9.040877 79 73 85
3.2316918 -0.6862782 9.126639 30 38 61
-1.885102 -0.5127776 7.0302305 83 64 83
1.9490376 0.6146414 -8.454018 114 105 126
2.787011 -0.61947036 7.652204 104 109 151
1.6989946 0.5850537 -8.041056 76 53 69
1.9946364 0.618447 -8.529495 123 112 129
1.7424282 0.58544624 -8.060607 92 76 103
-0.40726063 -0.5058925 7.0129385 52 34 46
1.7607824 0.59025806 -8.137168 106 94 118
-1.0635629 -0.27468857 3.948554 94 44 56
1.7695762 0.58813196 -8.169207 82 70 94
1.7541821 0.5837668 -8.155026 100 81 101
-0.90675014 0.17663494 -2.2828407 90 65 86
1.7668264 0.5811477 -8.159599 115 100 123
-1.4719163 -0.28866595 4.1714053 110 84 93
1.762778 0.5764781 -8.155521 114 97 115
-0.30704883 -0.52442116 7.44767 77 54 70
-0.3319606 -0.508586 7.244843 66 45 60
-0.38935176 -0.49497336 7.0979056 77 53 67
1.7895576 0.5719276 -8.206081 78 63 84
-0.9343178 -0.15713257 2.4229467 82 34 46
-0.88404894 0.43504098 -5.8853664 82 60 73
1.8916215 0.5735881 -8.352964 97 76 95
1.7954737 0.5633935 -8.207153 95 77 99
1.8180676 0.560506 -8.24194 80 63 82
-0.82064444 -0.10250793 1.6608613 77 41 53
3.4612703 -0.6353887 8.998779 111 122 168
1.9874138 0.57373893 -8.548134 72 59 85
1.4008074 0.5031303 -7.4889083 96 80 90
-0.83560073 -0.10615775 1.7540038 127 91 105
-0.95493674 -0.15748301 2.54922 77 46 52
1.5076696 0.5065476 -7.698377 82 65 84
1.604119 0.51537526 -7.8992677 74 63 80
1.6253163 0.5145074 -7.92169 82 64 86
1.9904441 0.5510085 -8.528863 95 79 105
2.0173643 0.54754096 -8.575425 123 107 134
-0.43503812 0.027505938 -0.29365662 76 49 64
2.1152015 0.55480963 -8.738064 123 105 129
2.0414522 0.547339 -8.658097 113 99 125
-0.1917298 -0.493788 7.794167 122 98 111
-0.38795793 -0.5540885 8.857594 104 60 73
-0.42648795 0.030811341 -0.35662904 85 63 76
2.8191385 -0.56836087 8.431862 47 41 45
-0.67817605 -0.5401954 8.804559 124 76 88
1.0351866 0.41070288 -6.6206493 81 58 78
-1.0592291 -0.45790434 7.536497 128 80 94
-1.040937 -0.46188447 7.6011033 120 73 91
-0.33531594 -0.53195506 8.662801 92 44 58
-0.20176847 -0.49854672 8.139132 106 63 83
-1.046732 -0.44859585 7.459041 120 84 96
-1.0436709 -0.4572041 7.601786 109 73 85
-0.04368632 -0.16041201 2.4978917 122 98 114
-0.24622443 -0.51320064 8.433349 99 45 58
-0.12498929 -0.4847918 7.9766693 77 54 72
-1.0574219 -0.45145413 7.5492835 63 33 45
-1.058502 -0.44079658 7.3861732 111 73 86
-0.5478888 0.02067112 -0.26274064 115 97 111
-1.066935 -0.43153155 7.292125 71 33 46
-0.11714402 -0.482131 8.049635 127 102 123
-1.0869865 -0.4199635 7.156598 71 30 44
1.3949571 0.44955617 -7.531756 57 38 57
-1.1351804 -0.3708647 6.3545003 80 47 54
-1.0471497 -0.44196025 7.5203714 69 28 42
-1.1521513 -0.37900415 6.500044 51 28 38
-0.385761 -0.5250028 8.888451 69 33 37
1.9374564 0.5016127 -8.491988 134 111 127
1.874486 0.49572176 -8.389725 68 46 69
1.7545862 0.48062506 -8.125751 132 109 129
-0.4460167 0.023274919 -0.24731803 72 51 66
-1.1374464 -0.379575 6.539346 71 36 43
-1.0840845 -0.417004 7.152656 100 62 73
1.7781569 0.48583898 -8.221495 129 111 133
-0.94264686 -0.41514787 7.121105 92 57 64
3.432194 -0.56213856 9.140306 137 157 194
-1.0323242 -0.43807918 7.539663 115 73 85
-1.019521 -0.42967302 7.396957 103 63 74
-1.0784036 -0.41391292 7.1459184 56 26 36
-0.93340516 -0.41807744 7.2003293 48 16 27
2.713252 -0.5208441 7.823871 52 57 97
1.7793083 0.48196107 -8.236376 98 76 97
-1.0315801 -0.43179157 7.473102 85 44 62
3.4343615 -0.55540895 9.093295 90 101 147
-1.1017768 -0.38091627 6.6602983 62 30 43
-0.21362649 -0.46614945 8.009484 67 35 46
-0.94010574 -0.40532166 7.061238 93 58 64
0.07980995 -0.497374 8.508598 99 71 94
1.3766298 0.43496168 -7.464413 78 61 79
-0.042265166 -0.48458862 8.318746 103 71 86
-1.0781643 -0.39630416 6.9458537 96 60 70
2.05064 0.50027746 -8.681708 95 79 105
2.4603522 -0.5112835 7.8177085 38 35 52
1.0318619 0.38427842 -6.6382723 83 64 83
1.2443657 0.41531825 -7.225764 108 88 99
0.7093011 0.33151802 -5.7224665 102 80 101
-0.45980868 0.018996222 -0.18842527 75 51 67
1.4545808 0.43431252 -7.579432 83 60 76
-1.1332152 -0.37040487 6.605255 100 70 80
2.7068696 -0.50533295 7.815831 95 104 135
-0.9917615 -0.17600478 3.273122 65 37 49
1.1486319 0.394717 -6.9498725 77 58 77
-1.0178604 -0.18327563 3.4173784 95 64 72
-0.10749254 -0.45461145 8.064826 98 68 80
1.4557073 0.42875153 -7.6155014 82 57 76
-0.9909695 -0.39352608 7.103413 66 30 40
-0.9897694 -0.1696578 3.197144 57 29 43
-0.9185829 -0.38378355 6.979398 66 25 33
-0.98575413 -0.16833133 3.1857283 56 29 44
-0.9712397 -0.16631491 3.1490622 81 48 57
-0.9883873 -0.17211361 3.2586372 96 58 71
0.0012494372 -0.46605545 8.360866 129 105 119
-0.8482786 -0.10728035 2.1202462 123 75 89
-0.99587095 -0.17117526 3.2853258 91 56 63
1.8453406 0.45514655 -8.376807 87 67 92
-0.9767584 -0.15965442 3.095811 58 31 40
-0.96519625 -0.14994173 2.9226198 66 34 45
-0.903337 -0.12525019 2.473741 64 32 45
0.010053172 -0.45175162 8.329324 104 73 88
-0.81270164 -0.09264178 1.8834264 54 28 41
-0.080155715 -0.3154853 5.490017 118 96 109
0.0010062937 -0.4491035 8.330178 115 91 107
-0.09289638 -0.4294914 8.0612135 65 41 55
-0.9860007 -0.3716404 7.107575 82 35 43
-0.054982435 -0.4348162 8.164992 80 62 78
1.6861067 0.42794022 -8.085575 61 41 53
1.7756314 0.43549955 -8.246504 120 102 114
1.9322587 0.4473947 -8.560642 112 86 99
-0.89692897 -0.15909508 3.1901014 57 26 34
2.0639086 0.45024264 -8.724595 128 107 122
-0.9134489 -0.16393824 3.316918 72 36 50
1.712196 0.41958514 -8.156608 118 92 105
-0.18693994 0.08482654 -1.5045701 74 30 43
-0.83792895 -0.09887288 2.089271 73 41 54
1.756966 0.42055538 -8.194898 117 101 112
-0.28748026 0.060210492 -1.0258486 87 36 43
1.7592834 0.41932112 -8.213956 76 53 71
3.0619867 -0.48130986 9.145188 107 116 147
2.1868868 0.44339222 -8.901582 95 76 96
1.666441 0.40345588 -8.061003 88 71 90
-0.26823732 0.063117 -1.1106787 55 15 23
-0.9431764 -0.17070189 3.573513 61 25 37
-0.76846045 -0.07283256 1.628625 111 71 82
1.5174749 0.3882109 -7.790348 59 39 51
1.5264081 0.3866165 -7.772136 53 35 49
-0.8360903 -0.111312754 2.3982732 58 23 27
3.3951058 -0.47231412 8.85147 146 159 201
1.8260314 0.41179255 -8.3464365 130 107 125
0.25009355 -0.43511626 8.789715 93 71 92
-0.11242347 -0.39221022 8.078796 95 67 82
2.633063 -0.44999352 8.95863 55 40 61
-0.96070236 -0.20057361 4.3262987 62 27 33
1.8762515 0.4045372 -8.490702 88 67 84
-0.90755343 -0.12436984 2.7712562 110 67 77
-0.9657321 -0.18697648 4.070833 79 38 52
-0.9281889 -0.12989841 2.8996482 108 66 76
1.6295407 0.3806036 -8.013431 73 52 61
2.0749357 0.41367316 -8.769535 78 59 78
2.7175245 -0.44791096 9.033138 34 25 42
2.1443286 0.4169606 -8.864113 92 71 88
2.7028744 -0.44662252 9.016114 60 38 59
2.4998143 -0.43487343 8.822403 81 58 84
2.1143494 0.41132137 -8.804715 95 80 101
-0.89651173 -0.117426544 2.6688635 63 31 36
1.8392334 0.38913748 -8.400653 58 47 63
2.5180144 -0.42847717 8.83173 93 69 93
-0.12402176 -0.3670318 7.924633 107 90 109
-0.2284305 -0.3521161 7.698428 75 51 65
-0.2207253 -0.35489535 7.796429 63 45 59
2.2044146 -0.38769218 6.61145 113 129 155
-0.9540497 -0.1714703 3.9643674 61 28 37
-1.1725506 -0.31087542 7.181536 62 28 42
-0.6029724 -0.36763728 8.22571 65 37 49
-0.60250497 -0.3653027 8.188364 56 34 46
1.7494957 0.36723268 -8.2443285 140 116 129
1.5227609 0.34671056 -7.791927 81 65 78
-0.9325759 -0.15014532 3.5607483 69 32 40
-0.60713404 -0.3564368 8.097846 96 60 70
2.6688313 -0.4071847 7.789931 97 108 138
-0.9720598 -0.20196031 4.747788 96 64 69
1.4639355 0.33893788 -7.7219043 84 65 84
-0.98739296 -0.22577758 5.3160286 61 30 38
-0.9807271 -0.22415571 5.3053284 64 32 43
-0.8607164 -0.11027291 2.7174897 74 39 46
2.0963135 0.3776175 -8.828874 100 79 96
-0.91541797 -0.14068522 3.4460824 85 53 56
1.9082438 0.36143216 -8.506441 117 102 123
-0.9783904 -0.21202265 5.120404 86 54 59
1.8682185 0.35953286 -8.485559 81 63 85
-0.86603653 -0.10992147 2.8202858 82 42 53
-0.23129056 0.06250021 -1.3473316 79 56 66
-0.6141508 -0.31380907 7.7076693 98 65 76
-0.6650732 -0.28841117 7.1566567 63 25 36
-0.60920256 -0.3073075 7.656856 58 26 37
-0.85579026 -0.056702342 1.6339598 72 51 68
-0.983623 -0.21573235 5.6362276 74 34 45
1.9067297 0.32019362 -8.524436 107 95 115
-0.19532335 0.06447318 -1.5596843 62 32 44
2.0945396 0.32382223 -8.825622 125 108 127
-0.9810709 -0.14948057 4.239973 88 68 61
2.2259073 0.32681784 -9.006377 69 51 65
2.6232715 -0.34288597 7.63171 100 115 146
-0.9875894 -0.14649852 4.244581 56 27 31
3.1929593 -0.3533345 8.486566 94 96 137
2.4414518 -0.33185387 7.299672 68 74 98
-0.9416408 -0.12804613 3.7901971 125 109 94
0.70067614 0.17768982 -4.980491 72 49 65
-0.8929802 -0.1059582 3.2450345 50 24 23
2.0508325 -0.33002883 7.978564 112 88 110
-0.5933165 -0.2682226 7.846771 48 23 27
0.51513255 -0.3210178 9.175229 70 43 60
-0.0122358 -0.3212929 9.722555 162 114 126
3.5225258 -0.33074746 9.134779 111 122 168
2.0077198 0.28393185 -8.739394 111 98 118
1.9715859 0.28229156 -8.69264 73 61 85
2.4529588 -0.3078514 8.833582 121 100 119
3.5538268 -0.3241056 9.134414 132 144 184
1.9932654 0.27913228 -8.662465 86 67 86
2.0871432 0.2838038 -8.876603 77 62 85
2.5580518 -0.29549018 8.823914 71 45 58
-0.8934938 -0.09534782 3.259511 130 108 97
0.09895871 0.097717606 -2.9977813 58 23 30
-0.87304366 -0.08710076 3.0305958 133 111 100
0.15328299 0.096541464 -2.9854014 80 56 70
-0.17328542 0.061258428 -1.8187745 74 31 38
1.0791576 0.21132612 -6.9135246 76 52 68
-0.8842804 -0.08621892 3.068836 134 106 95
3.566631 -0.3016196 9.159545 95 100 140
4.4922714 -0.2935732 8.643555 82 98 124
-0.9035633 -0.0892364 3.19888 93 57 59
-0.7652633 -0.04686146 1.8131359 71 44 53
-0.89286906 -0.08478737 3.0937293 115 86 78
-0.6923076 -0.030286679 1.2631705 64 26 39
-0.91129595 -0.11515903 4.1321425 174 164 137
-0.9863087 -0.1129436 4.0980554 166 155 137
-0.30467573 -0.26338583 9.006207 88 42 52
-0.9902577 -0.11191386 4.106856 119 103 90
-0.9240337 -0.11669469 4.2516184 179 167 141
-0.86937505 -0.07527918 2.871571 108 72 72
-0.9942227 -0.110879645 4.1156883 140 127 110
-0.7930056 -0.05298432 2.1059995 70 30 39
-0.91162914 -0.11033968 4.150644 181 168 136
-0.6170541 -0.0149441175 0.7681152 69 31 42
-0.7575556 -0.04506907 1.8506534 59 19 27
-0.9452448 -0.10259776 3.9236715 105 81 57
-0.9204669 -0.11444452 4.34705 176 166 141
2.0979254 0.24198872 -8.910645 61 56 79
-0.9357837 -0.119675316 4.55379 146 138 115
-0.64112157 -0.019683482 0.9502752 55 27 39
0.634896 -0.26248804 9.300328 85 68 87
-1.0102545 -0.10669967 4.151422 195 189 167
-0.9832448 -0.100919224 3.9389834 149 139 127
-0.93766356 -0.11730006 4.556703 182 172 145
-0.91299003 -0.09007483 3.5813713 134 108 81
-0.9831728 -0.09796201 3.8558655 187 174 157
-0.8900925 -0.08846527 3.523948 113 90 59
-0.93725467 -0.11398557 4.462523 137 121 106
-0.9408029 -0.11544222 4.5725713 184 173 145
-0.21550968 0.04828511 -1.6402721 71 38 45
-0.92961264 -0.08342632 3.3945174 168 150 128
0.6116661 -0.25004444 9.263043 45 33 47
-0.9588789 -0.11691349 4.6985564 92 73 59
-0.93445647 -0.110892735 4.4666276 120 99 82
1.4126662 -0.23587152 10.090222 70 51 70
-0.9459124 -0.112587616 4.59189 119 95 83
-1.0271393 -0.10322062 4.282063 188 175 158
-1.0252074 -0.105170764 4.3725204 201 193 172
0.7487963 0.12967467 -5.0325365 75 34 48
-1.016099 -0.10178312 4.2661905 201 190 170
-1.0194895 -0.10382023 4.350778 166 158 139
-1.002472 -0.09538689 4.071965 160 143 125
0.0063780365 0.0727214 -2.7325878 83 41 53
-0.17359647 0.051266067 -1.8516222 80 37 44
-0.70518506 -0.029019134 1.4185739 66 33 44
-1.0078366 -0.10177873 4.3436027 185 178 159
-0.9681363 -0.111933455 4.7249007 152 134 114
-1.0182569 -0.1064562 4.541191 157 151 137
-0.97405595 -0.10217919 4.351308 154 148 136
-1.0585469 -0.109682195 4.710116 188 176 152
-1.0265033 -0.10094366 4.3835864 196 180 154
0.53923064 0.10480446 -4.161973 82 41 49
0.6284885 0.11346373 -4.5318594 83 38 45
-1.0502862 -0.103850864 4.52054 143 125 103
-1.0481485 -0.11048303 4.7864385 98 89 92
-0.98669267 -0.11042586 4.758584 104 78 65
-0.9783649 -0.11012201 4.7431564 180 164 139
-0.945653 -0.106220834 4.589787 142 125 107
0.73039365 0.12035059 -4.84066 69 45 59
0.12463378 0.08154985 -3.1892786 68 32 42
-1.0153787 -0.09918284 4.368484 196 189 161
-1.0129558 -0.09443034 4.198301 148 128 104
-0.9780263 -0.10635072 4.650619 165 152 135
-1.0415902 -0.10174786 4.5017457 133 115 93
0.5463662 0.10406977 -4.226973 83 36 46
-0.99666053 -0.10632667 4.686049 112 93 78
-0.98829126 -0.10529675 4.669816 158 143 120
-1.0322738 -0.10431006 4.65624 100 83 67
-0.9657801 -0.10176084 4.5247893 118 99 82
-1.0028841 -0.105114214 4.6976156 159 144 121
-0.9683967 -0.10341531 4.6211815 134 113 92
-0.98929316 -0.09719177 4.391316 161 146 125
-0.12677516 0.054479904 -2.1220567 82 40 52
-1.0158174 -0.099388346 4.5344934 133 112 91
1.7425237 0.19180432 -7.6051106 59 50 71
1.9083003 0.19507165 -8.606354 49 37 61
3.457629 -0.23642105 9.0600195 98 101 144
1.7420704 0.19175754 -7.6720705 66 58 82
2.0078785 0.19849843 -8.825484 45 37 58
0.030044183 0.06972584 -2.8594084 70 33 40
-1.2507789 -0.10990013 5.11562 72 32 43
0.5416474 0.09812627 -4.1960115 72 27 30
-1.2508644 -0.10590301 4.973802 79 36 46
0.5970989 0.10049813 -4.3711705 62 32 40
0.003625772 0.06517809 -2.7074475 79 44 48
-0.19441557 0.044251546 -1.7855333 73 39 53
-0.8928371 -0.084971465 4.1260433 82 66 50
3.2094548 -0.23369221 8.361948 123 134 180
-0.89729124 -0.081975386 4.030972 78 61 51
3.210792 -0.22969633 8.452423 96 108 148
-0.8954481 -0.080981806 4.026888 101 88 72
-0.9045405 -0.08100779 4.046222 67 49 35
-0.91251326 -0.08000997 4.054038 104 85 70
-0.92614806 -0.07791613 4.000441 77 58 44
-0.91183025 -0.079412185 4.0615087 118 103 82
-0.91485655 -0.08129856 4.170696 68 50 40
-0.87491333 -0.073349275 3.7927654 80 62 50
-0.88013923 -0.07564721 3.9076655 106 89 71
-0.8975786 -0.06829471 3.6684246 77 55 44
-0.89113516 -0.06966687 3.736526 151 132 102
-0.91214705 -0.07210999 3.8768508 123 98 76
-0.91179866 -0.0741104 3.985587 162 145 115
3.366562 -0.20516963 9.115517 108 123 162
0.19583714 0.072229736 -3.4715836 72 32 41
-0.1539635 0.043301977 -1.9514633 107 61 71
0.24349791 0.076767236 -3.7182276 62 26 36
-0.89067155 -0.07212399 3.930064 181 168 136
-1.039091 -0.080614634 4.4245405 110 88 91
-1.0298847 -0.07818534 4.31852 106 84 86
-0.899636 -0.07182967 3.9496477 178 163 134
-0.6448628 -0.15368713 7.919966 95 47 59
-0.91789424 -0.07215509 3.989924 181 167 138
-0.91355246 -0.071732074 3.9890456 139 123 97
-0.9144415 -0.06928376 3.898548 174 157 131
-0.9335202 -0.11146347 6.085362 70 35 42
-0.2638183 0.030896712 -1.3686181 75 35 46
-0.21731119 0.03602772 -1.6479422 62 24 37
-0.90127057 -0.12350407 6.7443604 70 27 37
-0.9045553 -0.07239526 4.157033 130 119 97
-0.2766026 -0.029255666 1.4037052 68 54 71
-0.8996789 -0.071267635 4.137326 105 92 76
-0.96276397 -0.10167478 5.7500877 72 29 36
-0.90589106 -0.11942463 6.6823583 73 31 43
0.2671771 0.07002271 -3.7279623 98 53 60
-1.1190621 -0.08434499 5.105693 145 135 136
-1.2397448 -0.0822207 5.097792 61 28 37
-1.1400414 -0.08213379 5.050602 156 145 141
-1.1188793 -0.079664595 4.9466343 113 102 98
-1.1283444 -0.08261157 5.1224294 165 155 145
-1.1112483 -0.078334466 4.9417214 164 152 140
-1.1084968 -0.08291724 5.192715 194 185 176
0.6834061 0.08590845 -4.931623 57 29 41
-1.122913 -0.080913685 5.1226764 185 180 161
-1.0181091 -0.047431625 3.4688761 55 23 36
-1.0391132 -0.07975065 5.04441 98 83 76
-1.1210915 -0.07968523 5.1078477 170 159 141
-1.1334596 -0.07513415 4.8909674 159 160 155
-1.0392238 -0.07702804 4.955727 143 130 121
-0.9365301 -0.07209098 4.6781 155 142 126
-1.1530554 -0.07805546 5.1890836 91 89 92
-1.1135093 -0.078234375 5.188764 125 113 113
-1.0965208 -0.07787027 5.1692257 137 128 123
-0.20824224 0.030437872 -1.6174101 73 32 40
-1.1367329 -0.07570879 5.146647 123 114 115
-1.0831258 -0.07415117 5.0464025 176 170 154
-0.9860662 -0.07060145 4.789019 160 154 142
-1.1841441 -0.074191175 5.1540504 185 175 163
-1.1597866 -0.07364072 5.1069427 120 109 107
-1.1485957 -0.074779965 5.1685195 180 181 167
-1.1737913 -0.06815564 4.8097205 134 111 119
-1.1318735 -0.07402337 5.1369567 192 184 173
-1.0450279 -0.082006425 5.619156 169 159 150
0.14504492 0.055098433 -3.3611703 65 28 35
-1.141301 -0.073038235 5.154225 117 108 103
-1.0463341 -0.07107158 4.988881 160 146 135
-1.162808 -0.074431695 5.2885623 106 102 103
-1.1894141 -0.0702035 5.092711 65 51 42
-1.1937643 -0.07123376 5.1715307 80 65 58
-1.150582 -0.072970115 5.265634 110 100 101
-1.0148365 -0.068166554 4.9420314 158 147 143
-1.0417529 -0.068302274 4.979593 160 153 143
-1.0386219 -0.069636226 5.074258 94 78 81
-1.1749017 -0.07054635 5.2163553 52 43 38
-1.1528525 -0.07099115 5.269038 168 160 147
-1.0654657 -0.07887907 5.7348313 184 174 165
-1.1675009 -0.062059227 4.8137965 101 88 95
-1.0511849 -0.067499906 5.107234 88 71 64
-1.1689386 -0.06677024 5.1220956 99 98 104
-1.0610824 -0.07529416 5.640404 125 106 100
-1.1616448 -0.06623308 5.1078734 83 82 87
-1.1648197 -0.06878222 5.29008 43 32 38
-1.153829 -0.065660305 5.1033845 108 107 112
-1.1153961 -0.06962175 5.381776 150 141 132
-1.1780208 -0.0653428 5.1497617 164 158 144
-1.036409 -0.06398364 4.9795704 113 98 91
-1.0650252 -0.07229481 5.5712805 153 145 132
-1.1715539 -0.066049196 5.219361 150 147 140
-1.1501368 -0.06689665 5.2625046 84 64 63
-1.0562335 -0.0730591 5.6321545 153 142 136
-1.0483428 -0.07293998 5.633425 127 113 104
-1.0601494 -0.06360416 5.033894 62 44 42
-1.0195143 -0.073451184 5.679413 176 166 154
-1.0657437 -0.071039274 5.559027 153 143 131
-1.1500187 -0.06527841 5.261673 134 127 109
-1.1070489 -0.06579358 5.268884 48 38 47
-1.0405172 -0.0723773 5.709065 100 82 78
-0.9421733 -0.08175445 6.3844514 138 86 98
-1.1343075 -0.06618636 5.4129715 148 144 135
-1.0489798 -0.06950293 5.619777 159 154 151
-0.46352568 0.039774045 -1.9448813 99 52 58
3.664561 -0.14577135 9.062735 114 131 177
0.21587534 0.04970608 -3.5835974 87 39 51
-1.0356356 -0.06924603 5.700675 165 158 152
-0.93959117 -0.07878067 6.3804274 93 44 50
-0.4648675 0.039162807 -1.9499848 54 23 29
0.41503668 0.0586199 -4.370578 65 24 30
-1.0655471 -0.06865461 5.7572484 181 171 161
-0.9211024 -0.07767652 6.376861 70 24 34
-0.9969777 -0.06463629 5.477735 77 52 47
-0.98437726 -0.0641123 5.445872 160 148 132
-0.9558077 -0.068721235 5.769178 66 23 30
-0.9460954 -0.07220868 6.039602 64 24 32
0.46400908 0.05981669 -4.590679 63 23 34
-1.0620152 -0.06527978 5.6506176 103 88 91
-1.0496708 -0.06862669 5.89353 125 110 103
-0.99926823 -0.06291557 5.5570745 91 72 76
3.5921495 -0.13664019 9.129524 151 166 207
-1.0256201 -0.043238197 4.0823307 42 35 25
-0.96841073 -0.06566267 5.7980566 77 35 47
-0.68331546 -0.009455653 1.251418 90 43 53
-1.0268215 -0.041820012 4.0098624 40 31 26
1.6553288 -0.1269399 8.106957 134 106 118
3.681916 -0.13425776 9.089182 109 120 166
-1.0503672 -0.040757157 3.9708061 72 30 40
3.6601784 -0.13359131 9.076065 150 159 198
-0.99896616 -0.059596427 5.4786177 107 91 92
-0.63319534 -0.0050119134 0.89863884 72 29 39
-1.0293769 -0.06282998 5.77635 87 67 68
1.665233 0.093236774 -8.32455 73 64 85
-0.96442467 -0.057146505 5.4400616 65 30 36
3.5823822 -0.12925386 9.127399 110 122 170
1.7691517 0.091055065 -8.440683 90 82 103
-0.6213273 -0.0035409324 0.8079923 104 67 75
3.7062747 -0.12628046 9.0704565 103 114 160
2.687195 -0.14851195 7.812309 67 70 105
-0.50395566 0.020646336 -1.4785908 80 42 55
3.7111747 -0.11910257 9.0736265 119 130 176
-0.8366916 -0.01821128 2.3797755 70 34 44
3.7505188 -0.11640954 9.031778 145 162 205
-0.9238026 -0.05692883 6.385564 87 36 45
-0.9487551 -0.05354876 6.1213846 70 23 33
-0.9374754 -0.050876755 6.224882 110 70 78
-1.0076588 -0.023307398 3.408679 75 28 38
-0.6955773 -0.006296611 1.3567622 66 26 35
3.173198 -0.1239677 8.267214 118 132 179
0.57305515 0.038938023 -4.6003594 71 35 47
2.9123986 -0.123347774 7.4218397 126 139 184
-1.0283238 -0.029482795 5.9165735 137 88 107
0.51820326 0.02515379 -4.3509765 109 62 80
1.013616 -0.058565665 9.562295 124 111 131
2.9636974 -0.10214665 7.7941093 119 131 179
1.0163187 -0.044058714 9.579226 84 57 66
-1.1799766 0.0018675744 5.2253695 119 126 170
-1.149025 0.0025760476 4.7400217 55 59 106
-1.1760864 0.0022864598 5.1956587 125 136 182
-0.93128836 0.0055151638 2.66071 77 42 62
-1.0843246 0.0055343434 3.957782 91 47 64
-1.185494 0.0045275413 6.642667 87 46 62
-1.1780081 0.0054315175 5.720598 71 40 58
-0.95342034 0.0033249836 8.492067 84 43 57
3.3556542 -0.04330886 8.601201 130 145 188
3.3644464 -0.043412637 8.613303 127 144 188
2.6990225 -0.059828814 7.80245 61 69 106
-0.34843153 0.006061124 4.2824144 63 38 44
-1.1589153 0.012153338 5.0247526 72 40 55
-1.1793803 0.0136283655 6.629926 73 47 60
-1.1489031 0.014305479 7.2040586 80 48 61
2.8648582 -0.00816146 9.062544 81 61 72
-1.1470207 0.017587652 7.4316974 118 80 93
1.0496007 0.007487014 9.6210575 107 93 108
-1.132853 0.015391691 4.720391 71 46 65
-1.0726519 0.014394827 3.9264092 133 89 104
0.7436233 -0.012800662 -4.700695 54 31 41
0.73898494 -0.015176671 -4.6582856 71 39 54
-0.18548864 0.00058922486 1.3183608 87 62 81
0.38005868 0.019253222 -6.843991 74 42 57
2.7691681 0.013841885 9.012676 74 51 69
-1.0218178 0.03539268 8.257756 89 47 57
-1.0228617 0.037055284 8.368016 61 25 37
-0.9303208 0.037366755 8.551215 58 32 43
-0.22629769 -0.026441451 -7.04675 84 45 50
0.06198975 -0.010417458 -4.4722543 80 48 69
-1.0748248 0.039187137 7.992179 88 49 67
-0.9867277 0.041614536 8.36532 71 35 47
-0.94897014 0.042129703 8.556805 73 39 53
-1.4789068 0.023666967 4.9935474 101 58 78
-0.31203255 -0.03088292 -6.8938828 75 39 53
0.9398537 -0.028184835 -5.182133 77 65 87
-0.30683595 -0.042880777 -6.9497705 77 49 63
1.6484863 0.035553746 7.187843 76 51 70
0.36685205 0.034474663 5.3547983 118 116 138
-2.803685 0.09746925 6.4842634 60 79 121
-3.168608 0.13906145 7.9859924 73 43 55
-1.0733675 0.16272786 9.812434 78 38 47
-3.0472429 0.18989949 10.098353 72 40 55
2.3542404 0.09302554 8.093527 76 50 63
-3.2696316 0.20148921 8.592977 73 41 62
-3.3452537 0.21864183 9.218778 74 43 58
0.41692775 -0.06435875 -2.9485097 85 48 66
-3.3297107 0.2381806 9.602001 98 55 75
0.07026769 -0.040973935 -1.9151211 81 48 69
-0.55156004 0.22244316 9.619362 98 55 62
-2.4116075 0.18603052 7.365952 79 46 65
-0.7560768 -0.02933348 -1.3384258 114 93 110
-0.274799 0.25468618 9.803076 77 35 49
-0.2645686 0.25456646 9.785815 75 43 58
-0.3334499 0.22188556 8.730843 84 53 71
-0.46340698 -0.073956124 -3.2004502 75 53 65
-0.66192997 0.27235404 9.512766 69 52 62
3.5818644 0.24019386 9.2500725 117 141 179
3.598323 0.24557379 9.259432 106 126 161
-0.70230085 0.2850265 9.638982 124 83 97
-0.7367601 0.2899055 9.698365 79 52 67
3.2695525 0.24975443 9.020866 34 35 55
2.8389187 0.26353756 8.974768 121 118 135
4.1333303 0.26949158 9.345217 147 154 183
1.2403005 0.15922225 5.3457885 127 124 145
0.12737666 0.3243844 9.814482 137 100 117
4.0093446 0.2754182 8.768676 88 83 106
4.4668927 0.3024334 9.271325 91 87 112
4.46745 0.31781507 9.435183 88 76 100
3.1675713 0.29774928 8.815615 68 60 73
3.161214 0.2979115 8.800394 60 53 61
3.3779972 0.306784 8.896543 38 38 46
0.3149341 0.37377828 9.871335 86 80 94
0.31456342 0.37353387 9.844799 75 73 87
4.402028 0.34780917 9.387745 84 81 88
4.1717205 0.37072018 9.101689 80 91 121
3.9889147 0.36870682 8.985975 102 116 145
3.986852 0.3702857 9.006 78 85 114
3.989562 0.37161282 8.970177 85 79 113
3.9698558 0.37211043 8.97216 114 115 146
2.9342728 0.37972686 8.616465 79 66 73
2.876529 0.3807014 8.456857 63 67 79
