ply
format ascii 1.0
element vertex 86
property float x
property float y
property float z
property uchar red
property uchar green
property uchar blue
end_header
0 0 0 255 0 0
-0.4264146 1.080063 -3.491379 57 57 57
-0.42523474 1.0126677 -3.2744648 100 100 100
-0.4284288 1.1314789 -3.675897 84 84 84
-0.4241022 0.89778817 -2.9236639 40 40 40
-0.4303704 1.1741089 -3.8687606 154 154 154
-0.42618275 0.82280993 -2.717359 127 127 127
-0.43433496 1.1867988 -3.9850152 131 131 131
-0.42651692 0.79367006 -2.6576197 130 130 130
-0.43427962 1.191653 -4.072842 123 123 123
-0.43337128 1.178667 -4.0913935 136 136 136
-0.42440197 0.82173073 -2.810719 65 65 65
-0.42439398 0.8710463 -3.0452197 139 139 139
-0.43094745 1.1359227 -4.019696 151 151 151
-0.42249963 0.96810585 -3.447314 89 89 89
-0.42641047 1.0929638 -3.9062085 99 99 99
-0.42245346 1.0303036 -3.6858804 59 59 59
-0.6405653 -0.36729747 1.8691877 110 16 104
-0.6396654 -0.34401667 1.7862128 180 27 179
-0.6419316 -0.3421113 1.7828478 148 10 147
-0.6396547 -0.36833733 1.909944 141 10 142
-0.57990164 0.323513 -1.5993462 173 181 36
-0.5799873 0.32721594 -1.6259218 171 173 48
-0.57926667 0.31752533 -1.5766488 181 189 42
-0.6420487 -0.32682535 1.7635957 125 19 127
-0.64029664 -0.36051574 1.9333488 143 14 140
-0.5803118 0.32762992 -1.6593952 147 149 24
-0.5802479 0.3062443 -1.5474997 61 55 0
-0.6422383 -0.31832147 1.759198 96 0 101
-0.5816457 0.3215525 -1.6837554 178 184 36
-0.5806695 0.29453996 -1.5347894 78 80 0
-0.64055496 -0.34211254 1.9338503 125 11 125
-0.5806584 0.3141938 -1.6907213 38 33 0
-0.5812273 0.2850984 -1.5328804 40 39 0
-0.58182675 0.30584347 -1.6918247 76 79 0
-0.64038247 -0.3128878 1.872947 110 1 108
-0.6416852 -0.30617675 1.8451517 95 10 95
-0.58222705 0.27239552 -1.5579742 48 46 0
-0.5824985 0.29011875 -1.6721965 75 82 5
-0.58280015 0.27900723 -1.6419321 91 94 0
-0.58199745 0.27065212 -1.5915695 36 40 0
-0.5828387 0.27321255 -1.6156735 41 35 0
-0.40803364 -0.14405769 3.3747098 88 0 0
-0.3678005 -0.27931243 7.5498514 91 16 10
-0.43605545 -0.44690198 -9.398608 115 50 10
-0.43840086 -0.34587416 -7.339342 159 84 27
-0.44506273 -0.5315847 -10.809373 156 86 26
-0.46592295 -0.6056389 -11.579241 79 30 0
-0.46473843 0.022453574 -0.21718842 145 76 21
-0.47294688 -0.6697902 -11.680034 144 75 33
-0.48038757 -0.7114789 -12.16886 96 34 0
-0.47229138 0.1065258 1.1175866 163 78 11
-0.47846097 -0.76052314 -12.179136 161 76 12
-0.47774133 -0.8227924 -12.466884 182 99 29
-0.46875423 0.0710457 0.52766645 157 90 35
-0.45335612 -0.16391465 -2.7329202 140 73 18
-0.47353345 -0.91716886 -12.892664 179 109 47
-0.4450239 -0.56964064 -7.889455 105 59 10
-0.4555257 -0.93803555 -12.608312 110 54 19
-0.45039746 -0.83361965 -11.165473 78 20 0
-0.61704904 0.3239224 1.9104161 49 169 168
-0.6162231 0.3292972 1.9378816 0 54 61
-0.61485356 0.34097394 1.9706868 13 117 110
-0.6170136 0.32202202 1.8472886 12 210 211
-0.61798286 0.32624257 1.8228834 38 140 142
-0.6132599 0.3565211 1.9910232 30 162 167
-0.6174821 0.33280188 1.8160027 0 118 109
-0.61239254 0.3657674 1.9946275 12 143 138
-0.61667556 0.34115583 1.8189374 43 153 154
-0.6118372 0.37279075 1.9862959 42 162 161
-0.61512613 0.35542196 1.8359753 9 109 111
-0.6125841 0.36729124 1.8673184 4 117 111
-0.6128437 0.37272248 1.891227 35 182 176
-0.6108972 0.3785946 1.9207848 0 63 67
-0.15918592 3.3317995 9.763925 18 94 19
-0.10428796 3.684715 10.764412 0 91 0
-0.041793987 4.1707335 12.020937 17 140 16
-0.0061843693 4.413046 12.502084 32 151 33
0.0005930068 4.46372 12.454224 18 152 17
-0.24855806 2.721819 7.5042806 13 101 14
0.005124363 4.483757 12.329708 0 66 0
-0.22478457 2.8928976 7.826907 16 151 13
-0.05128838 4.0852714 11.031497 3 117 4
-0.18187459 3.1652744 8.464693 3 86 4
-0.15233956 3.4141686 9.118245 38 157 39
-0.11997593 3.633797 9.71079 0 69 0
