ply
format ascii 1.0
element vertex 985
property float x
property float y
property float z
property uchar red
property uchar green
property uchar blue
end_header
0 0 0 255 0 0
-0.4264146 1.080063 -3.491379 57 57 57
-0.42523474 1.0126677 -3.2744648 100 100 100
-0.4284288 1.1314789 -3.675897 84 84 84
-0.4241022 0.89778817 -2.9236639 40 40 40
-0.4303704 1.1741089 -3.8687606 154 154 154
-0.42618275 0.82280993 -2.717359 127 127 127
-0.43433496 1.1867988 -3.9850152 131 131 131
-0.42651692 0.79367006 -2.6576197 130 130 130
-0.43427962 1.191653 -4.072842 123 123 123
-0.43337128 1.178667 -4.0913935 136 136 136
-0.42440197 0.82173073 -2.810719 65 65 65
-0.42439398 0.8710463 -3.0452197 139 139 139
-0.43094745 1.1359227 -4.019696 151 151 151
-0.42249963 0.96810585 -3.447314 89 89 89
-0.42641047 1.0929638 -3.9062085 99 99 99
-0.42245346 1.0303036 -3.6858804 59 59 59
-0.6405653 -0.36729747 1.8691877 110 16 104
-0.6396654 -0.34401667 1.7862128 180 27 179
-0.6419316 -0.3421113 1.7828478 148 10 147
-0.6396547 -0.36833733 1.909944 141 10 142
-0.57990164 0.323513 -1.5993462 173 181 36
-0.5799873 0.32721594 -1.6259218 171 173 48
-0.57926667 0.31752533 -1.5766488 181 189 42
-0.6420487 -0.32682535 1.7635957 125 19 127
-0.64029664 -0.36051574 1.9333488 143 14 140
-0.5803118 0.32762992 -1.6593952 147 149 24
-0.5802479 0.3062443 -1.5474997 61 55 0
-0.6422383 -0.31832147 1.759198 96 0 101
-0.5816457 0.3215525 -1.6837554 178 184 36
-0.5806695 0.29453996 -1.5347894 78 80 0
-0.64055496 -0.34211254 1.9338503 125 11 125
-0.5806584 0.3141938 -1.6907213 38 33 0
-0.5812273 0.2850984 -1.5328804 40 39 0
-0.58182675 0.30584347 -1.6918247 76 79 0
-0.64038247 -0.3128878 1.872947 110 1 108
-0.6416852 -0.30617675 1.8451517 95 10 95
-0.58222705 0.27239552 -1.5579742 48 46 0
-0.5824985 0.29011875 -1.6721965 75 82 5
-0.58280015 0.27900723 -1.6419321 91 94 0
-0.58199745 0.27065212 -1.5915695 36 40 0
-0.5828387 0.27321255 -1.6156735 41 35 0
-0.40803364 -0.14405769 3.3747098 88 0 0
-0.3678005 -0.27931243 7.5498514 91 16 10
-0.43605545 -0.44690198 -9.398608 115 50 10
-0.43840086 -0.34587416 -7.339342 159 84 27
-0.44506273 -0.5315847 -10.809373 156 86 26
-0.46592295 -0.6056389 -11.579241 79 30 0
-0.46473843 0.022453574 -0.21718842 145 76 21
-0.47294688 -0.6697902 -11.680034 144 75 33
-0.48038757 -0.7114789 -12.16886 96 34 0
-0.47229138 0.1065258 1.1175866 163 78 11
-0.47846097 -0.76052314 -12.179136 161 76 12
-0.47774133 -0.8227924 -12.466884 182 99 29
-0.46875423 0.0710457 0.52766645 157 90 35
-0.45335612 -0.16391465 -2.7329202 140 73 18
-0.47353345 -0.91716886 -12.892664 179 109 47
-0.4450239 -0.56964064 -7.889455 105 59 10
-0.4555257 -0.93803555 -12.608312 110 54 19
-0.45039746 -0.83361965 -11.165473 78 20 0
-0.61704904 0.3239224 1.9104161 49 169 168
-0.6162231 0.3292972 1.9378816 0 54 61
-0.61485356 0.34097394 1.9706868 13 117 110
-0.6170136 0.32202202 1.8472886 12 210 211
-0.61798286 0.32624257 1.8228834 38 140 142
-0.6132599 0.3565211 1.9910232 30 162 167
-0.6174821 0.33280188 1.8160027 0 118 109
-0.61239254 0.3657674 1.9946275 12 143 138
-0.61667556 0.34115583 1.8189374 43 153 154
-0.6118372 0.37279075 1.9862959 42 162 161
-0.61512613 0.35542196 1.8359753 9 109 111
-0.6125841 0.36729124 1.8673184 4 117 111
-0.6128437 0.37272248 1.891227 35 182 176
-0.6108972 0.3785946 1.9207848 0 63 67
-0.15918592 3.3317995 9.763925 18 94 19
-0.10428796 3.684715 10.764412 0 91 0
-0.041793987 4.1707335 12.020937 17 140 16
-0.0061843693 4.413046 12.502084 32 151 33
0.0005930068 4.46372 12.454224 18 152 17
-0.24855806 2.721819 7.5042806 13 101 14
0.005124363 4.483757 12.329708 0 66 0
-0.22478457 2.8928976 7.826907 16 151 13
-0.05128838 4.0852714 11.031497 3 117 4
-0.18187459 3.1652744 8.464693 3 86 4
-0.15233956 3.4141686 9.118245 38 157 39
-0.11997593 3.633797 9.71079 0 69 0
-3.6880689 3.3381603 -2.3408315 125 125 125
-3.705463 3.310126 -2.380404 141 141 141
-3.6483266 3.336308 -2.2672555 173 173 173
-3.6946566 3.2349496 -2.3810287 158 158 158
-3.5679293 3.2932549 -2.133412 73 73 73
-3.6494784 3.1368494 -2.3277025 113 113 113
-3.5872808 3.0526903 -2.247408 85 85 85
-3.4201548 3.148559 -1.894428 161 161 161
-3.524944 2.9859924 -2.1585038 142 142 142
-3.359691 3.0670354 -1.8161091 183 183 183
-3.4345772 2.9121258 -2.018495 89 89 89
-3.3109229 2.974367 -1.7531565 153 153 153
-3.3028347 2.9066427 -1.7799621 179 179 179
-3.3549552 2.8760364 -1.8924239 93 93 93
-3.3186538 2.8797865 -1.8224976 170 170 170
-5.083279 -0.14792727 -2.6668274 80 0 77
-5.098677 -0.43227172 -2.5209036 133 21 123
-4.8511105 -0.19263753 -2.5906997 87 0 80
-4.726982 -0.30358842 -2.505849 78 0 74
-1.4965487 1.8235754 4.0837135 164 161 46
-1.4904886 1.8292129 3.983968 155 160 31
-1.488605 1.8065071 4.197632 161 161 37
-4.6709585 -0.5076747 -2.3911762 111 23 109
-1.4584928 1.8117961 3.8689063 110 109 3
-1.4536558 1.7662164 4.3541956 67 60 0
-4.692866 -0.5542897 -2.373485 104 0 108
-1.411542 1.7287621 4.463111 92 90 15
-1.4127618 1.7868093 3.852668 39 37 0
-1.3693006 1.7528284 3.8833683 169 171 44
-1.368418 1.6990709 4.5186834 133 133 3
-1.3274751 1.6710178 4.53655 187 185 50
-1.3246809 1.7205114 3.9377708 57 54 0
-1.325723 1.6728317 4.537985 105 101 10
-1.2766091 1.6451896 4.499135 151 150 32
-1.2726462 1.6781232 4.0596313 111 110 0
-1.2361432 1.6458341 4.222292 141 144 37
-1.2390678 1.6313407 4.4115376 102 105 14
-1.23061 1.6336541 4.317028 134 136 9
0.3900827 -0.05230661 2.0247262 146 66 17
0.38421276 -0.07237522 1.9841082 162 76 25
0.41078532 -0.023652073 2.088266 149 76 31
0.44342592 -0.013346913 2.1502821 120 58 9
0.45732903 -0.16542292 1.9660014 146 74 24
0.5038733 -0.013019186 2.2320144 100 48 9
0.501804 -0.1886851 1.9932284 120 57 13
0.54139423 -0.019607188 2.268876 84 22 0
0.54049736 -0.19684228 2.031406 158 86 28
0.5846797 -0.042953335 2.295334 113 56 13
0.5992765 -0.20009412 2.1035428 171 92 36
0.63422894 -0.083544806 2.2971115 200 107 38
0.63764423 -0.17433406 2.177516 78 28 0
0.65861434 -0.12924328 2.2714164 76 12 0
0.6542954 -0.14958633 2.231068 37 13 0
0.10437278 -2.8690066 0.62940943 42 158 158
0.08581298 -2.90731 0.62439233 30 167 160
0.14468305 -2.8354177 0.64882874 39 175 173
0.23013245 -2.795237 0.6970646 0 103 94
0.09890866 -2.952321 0.6409732 23 160 153
0.13623787 -3.010935 0.67991215 2 108 108
0.3082334 -2.7853875 0.74615 21 154 151
0.18990207 -3.021319 0.71456873 8 88 89
0.36615345 -2.7883854 0.78437084 21 123 125
0.2295734 -3.0279353 0.74088037 10 127 121
0.4241411 -2.8083367 0.82614857 19 145 141
0.3339673 -3.0052125 0.80036116 0 77 75
0.41273096 -2.9702463 0.8443932 46 148 153
0.4407284 -2.9332087 0.8544549 21 162 171
0.4698 -2.8972256 0.8671221 0 78 72
2.6688027 -1.2185531 3.1806583 17 148 16
2.6806448 -1.1744901 3.2217817 32 141 34
2.691669 -1.2956078 3.1396825 2 60 0
2.7183828 -1.1096916 3.2988791 27 140 26
2.7343035 -1.3195451 3.165661 0 104 0
2.7651763 -1.0722308 3.3667204 0 72 0
2.802174 -1.0539768 3.407863 1 95 9
2.7622726 -1.311183 3.18517 21 118 23
2.8004642 -1.2921163 3.2271132 0 105 0
2.8296092 -1.0449276 3.4256775 0 85 0
2.870733 -1.0648197 3.4489167 36 183 43
2.8435318 -1.2487311 3.293933 29 137 26
2.8724594 -1.0588236 3.440692 20 126 15
2.8855064 -1.1846178 3.368128 41 146 45
2.8939564 -1.1070747 3.429735 28 130 30
2.8916981 -1.1468 3.4045494 5 147 1
-3.1563704 2.2693717 -4.8546543 40 40 40
-3.1689796 2.20586 -4.7369027 73 73 73
-3.1216435 2.3217912 -4.957953 104 104 104
-3.1622405 2.115289 -4.6047635 122 122 122
-3.0552905 2.3665044 -5.093054 181 181 181
-3.128823 2.0318053 -4.5263143 93 93 93
-2.9311337 2.3545682 -5.215734 160 160 160
-3.0784373 1.9849752 -4.4914317 97 97 97
-3.0293548 1.9675272 -4.5020204 101 101 101
-2.881138 2.3062265 -5.183063 165 165 165
-2.9575126 1.9743682 -4.583787 150 150 150
-2.8912375 2.0158155 -4.7071657 116 116 116
-2.8420243 2.1285973 -4.9368496 125 125 125
-3.138758 -1.8950176 1.1548074 112 10 120
-3.1263707 -1.8578359 1.1222246 138 8 140
-3.0179183 -2.0702577 1.3856107 84 4 89
-2.9970305 -1.8030765 1.0930874 100 0 98
-2.8917408 -1.8327134 1.1572094 78 0 72
-2.7826474 -2.05109 1.4459621 114 0 118
-2.779825 -1.9639782 1.3515304 154 18 162
1.5073202 5.3295355 -18.030327 132 134 11
1.3702934 5.1956005 -17.497147 136 139 24
1.6864622 5.4418087 -18.612675 103 103 15
1.2071935 4.959815 -16.69936 37 38 0
1.9508034 5.5329638 -19.295 148 148 34
1.1854581 4.827633 -16.39523 88 90 0
2.1671169 5.533245 -19.845057 95 99 4
1.2190732 4.736093 -16.235363 109 109 19
2.265043 5.479527 -19.891914 83 85 2
1.2983767 4.6801977 -16.228348 143 148 22
2.298394 5.3705683 -19.765057 105 110 0
1.4588042 4.6645 -16.450203 121 123 13
2.2023413 5.167329 -19.088062 170 174 28
1.7107508 4.7463965 -17.089912 95 92 11
2.0255895 4.961968 -18.181505 83 83 9
1.8574986 4.8322787 -17.534126 59 62 0
0.35253185 0.71187025 1.4701015 96 38 0
0.3570954 0.7429021 1.4377805 159 74 9
0.3621434 0.77575696 1.4100327 88 28 0
0.37525275 0.7900948 1.4157804 131 67 23
0.37126407 0.6615233 1.6208954 75 20 0
0.4027617 0.8300076 1.4768955 157 88 31
0.41332895 0.6463024 1.7906889 135 70 28
0.4524129 0.8735561 1.6185087 127 60 18
0.4827061 0.8918637 1.7304803 95 34 6
0.45075503 0.64797294 1.9243944 117 44 0
0.48311386 0.666404 2.0248957 137 75 28
0.5165991 0.89265704 1.8706671 139 68 14
0.5319274 0.7039915 2.1620169 87 33 0
0.5603706 0.7596666 2.2097385 166 97 40
0.57265073 0.8027077 2.2123795 171 79 14
0.5766318 0.83523875 2.1939268 109 42 0
1.363905 -1.9014153 4.9604745 6 100 102
1.3780637 -1.9350345 4.9882884 19 133 133
1.3701991 -1.8619008 4.95426 5 128 126
1.4252107 -1.9625098 5.04298 24 205 196
1.4053415 -1.7986742 4.974451 0 76 70
1.4612366 -1.755567 5.035382 37 146 151
1.4963814 -1.9835036 5.1460757 2 72 80
1.513004 -1.7353252 5.0824466 7 153 143
1.5495863 -1.9708576 5.1935844 38 158 157
1.5888044 -1.9512607 5.240192 0 56 58
1.5697579 -1.7285135 5.155881 38 133 137
1.6588694 -1.9019161 5.288543 32 151 145
1.6374203 -1.7332329 5.228559 29 135 133
1.691161 -1.8416857 5.3178325 0 82 83
1.6874083 -1.8008746 5.3034086 26 181 175
1.6770177 -1.7622226 5.2986636 0 73 69
3.0232563 0.8193213 7.0435357 23 116 27
3.047214 0.7770504 7.036197 11 135 21
3.0197015 0.8739929 7.065436 6 142 8
3.0700717 0.76652753 7.0509706 40 192 45
3.0943816 0.74292594 7.0632377 12 128 3
3.0331013 0.969369 7.1450024 21 118 15
3.1048565 0.74090856 7.088552 37 180 39
3.1591952 0.744882 7.1441126 29 132 27
3.1987588 0.76954377 7.19515 5 120 1
3.104541 1.0939398 7.311019 0 105 0
3.2380779 0.80887294 7.261441 34 142 41
3.1424901 1.1189137 7.3621564 27 125 24
3.2770221 0.885159 7.3450336 35 143 32
3.2015083 1.1246467 7.4241633 30 127 30
3.2945685 0.98111695 7.41321 18 165 14
3.2826655 1.0356488 7.443752 32 137 34
-1.8708154 0.8575111 0.27439588 124 124 124
-1.8647133 0.8830757 0.26643458 190 190 190
-1.8599868 0.9056576 0.26976916 34 34 34
-1.8551387 0.84032416 0.21532097 42 42 42
-1.8339572 0.93848145 0.23767123 107 107 107
-1.8241873 0.82983273 0.15740871 181 181 181
-1.7916918 0.97397864 0.16588095 159 159 159
-1.7998489 0.83303404 0.10594439 157 157 157
-1.7726539 0.975278 0.14728422 116 116 116
-1.7716295 0.85114515 0.030121794 55 55 55
-1.7412952 0.98396677 0.06986048 139 139 139
-1.7305925 0.8827125 -0.050640658 94 94 94
-1.7093897 0.9116416 -0.06358499 160 160 160
-1.6981568 0.95776755 -0.057018418 144 144 144
-1.5515897 -1.540245 2.686881 119 19 118
-1.5417761 -1.4817135 2.6335888 147 13 148
-1.471438 -1.6149515 2.785199 149 12 152
-1.5179352 -1.4597049 2.6354907 99 0 97
-1.4460834 -1.6183219 2.7997432 113 16 113
-1.4910208 -1.4536355 2.641417 75 0 76
-1.4205021 -1.6136945 2.80378 156 22 147
-1.4639429 -1.4553399 2.6521366 153 35 155
-1.3933812 -1.5928881 2.8076923 195 28 178
-1.4286046 -1.4773607 2.6878757 146 10 146
-1.3826315 -1.5560445 2.7781906 70 0 75
-1.398836 -1.50325 2.723106 106 0 105
-1.2608172 1.536611 1.3314298 92 88 15
-1.2406955 1.5276548 1.2548985 112 111 5
-1.2742478 1.5454268 1.4079312 95 94 0
-1.2762663 1.5560261 1.5063039 114 114 16
-1.202922 1.5112327 1.1815796 132 132 22
-1.1549599 1.5020466 1.1087896 173 174 36
-1.271964 1.5531416 1.6016934 126 126 2
-1.2533413 1.551554 1.6235065 105 108 17
-1.1346107 1.4941083 1.1355244 158 164 40
-1.127411 1.484872 1.1983747 161 160 42
-1.239796 1.5384008 1.6692514 75 71 0
-1.1202451 1.4808006 1.2964442 87 85 0
-1.210764 1.5197237 1.6743106 142 141 35
-1.1664523 1.5053998 1.5745839 168 171 40
-1.1305324 1.4851924 1.4247493 43 43 0
-1.143658 1.494637 1.4995091 168 166 57
-2.32098 -0.01612546 16.472586 162 93 34
-2.5198107 -0.04641822 17.52073 59 16 0
-2.118701 0.021998513 15.328735 181 97 24
-1.8733716 0.08350945 13.888565 108 53 12
-2.6259007 -0.014681701 17.888718 153 82 18
-1.7503791 0.13513544 13.172661 137 71 19
-2.6361995 0.050563935 17.738157 109 51 11
-1.6977454 0.17533208 12.892974 130 66 20
-2.5462523 0.11909135 17.086624 84 21 0
-1.6915021 0.21360327 12.8453455 162 88 27
-2.427112 0.17577267 16.35938 102 50 13
-1.7194183 0.2586978 12.949902 87 32 2
-1.8249563 0.2840796 13.403959 165 87 38
-1.9273714 0.29340717 13.8699465 149 82 30
-2.019251 0.2901601 14.287301 85 26 0
0.38376585 -0.8824263 4.5827646 0 107 98
0.39394593 -0.89856744 4.575813 25 120 126
0.37536627 -0.86109823 4.59763 44 147 152
0.41840145 -0.90969276 4.5829916 22 126 137
0.3787363 -0.8219149 4.6287355 24 109 116
0.45377716 -0.9076227 4.613249 18 97 102
0.39856216 -0.78837055 4.6731286 0 57 66
0.4793344 -0.89674765 4.641395 0 86 81
0.41887277 -0.77187085 4.6900444 41 167 166
0.49785152 -0.8777399 4.665837 27 125 128
0.5166014 -0.8466022 4.688733 0 67 61
0.4731928 -0.7544585 4.7342014 21 136 129
0.51902705 -0.808089 4.726404 19 158 151
0.5103207 -0.78528357 4.7332926 35 143 143
0.57780033 0.65295553 6.2443156 30 151 38
0.6034136 0.63060325 6.209556 14 143 17
0.56387204 0.6775938 6.2601852 31 174 33
0.5456497 0.7242932 6.2966046 27 132 37
0.6771798 0.62249553 6.1536837 39 154 37
0.56213623 0.7902736 6.3049884 0 67 0
0.6976087 0.6365483 6.1366253 10 140 4
0.71030784 0.65793467 6.141347 26 152 29
0.5842258 0.8046847 6.2890105 0 74 0
0.7175117 0.6970754 6.148337 22 128 38
0.62145936 0.8096927 6.253792 0 52 0
0.70813024 0.74210125 6.1680994 0 66 0
0.6899825 0.77017957 6.189226 10 81 13
-7.194402 -0.7174093 -18.147795 60 60 60
-7.359763 -0.69328445 -18.918644 188 188 188
-7.520286 -0.69010997 -19.746874 82 82 82
-7.351723 -0.9988576 -18.815676 129 129 129
-7.1678247 -0.4791248 -19.056278 153 153 153
-7.3010635 -1.1861955 -19.04687 170 170 170
-7.431939 -0.64149976 -20.908817 36 36 36
-6.7729115 -0.42263237 -18.7979 152 152 152
-7.1716194 -1.2429869 -18.973026 138 138 138
-6.9208035 -1.202869 -18.555988 162 162 162
-6.904222 -0.6077521 -19.780626 165 165 165
-6.8806067 -0.80297846 -20.187202 66 66 66
-6.8930693 -1.2609369 -19.24192 77 77 77
-6.718656 -1.1270634 -19.147263 166 166 166
-6.5000253 -0.8085533 -18.713959 160 160 160
-6.457753 -0.89767444 -18.415068 134 134 134
-6.986884 -7.216068 -8.338714 70 1 68
-6.6050158 -6.9144683 -8.23543 140 11 130
-6.193699 -6.673917 -6.7559867 145 12 153
-6.41219 -6.8090997 -8.020762 119 20 126
-6.0306916 -6.3884416 -7.240506 158 15 159
-5.4025707 -5.788933 -5.796183 156 20 152
-5.8075294 -6.430931 -6.8700495 88 0 85
-5.9757566 -6.7667117 -7.233884 84 6 81
7.282784 2.5576189 136.61945 42 46 0
6.43418 3.239067 120.192566 35 35 0
6.350615 2.0779696 125.77154 55 57 0
6.3538275 4.0541368 122.061806 114 116 7
4.526369 1.358411 122.288574 142 138 47
5.5595407 4.728792 118.548035 77 81 0
3.8232598 1.4797422 120.28782 128 129 1
4.879347 4.877925 116.43335 172 171 27
4.881967 5.107101 128.21986 178 180 47
3.20906 1.7792464 118.20911 138 133 41
3.2827759 4.684417 109.55058 164 161 56
2.8130755 2.2840946 124.59212 108 100 19
2.7238903 4.2567325 112.17352 76 74 0
2.7531812 3.1951451 132.39044 100 98 0
2.4414244 3.7683527 112.474464 96 96 8
2.6418247 -4.6857944 -19.827492 82 20 0
2.6991298 -5.013839 -20.534012 126 61 21
2.7723105 -4.7146745 -20.433794 100 44 11
2.4613214 -4.436651 -17.673893 100 39 0
3.3177016 -5.015345 -22.237871 122 66 17
2.5415938 -4.4326806 -17.19395 138 66 16
2.7114143 -4.6728463 -17.799421 90 36 8
3.3846693 -4.861194 -21.573914 139 57 0
2.853037 -4.704592 -17.842432 129 57 9
3.5007455 -4.89589 -21.396172 146 81 25
3.8858495 -5.546263 -23.363539 77 25 1
3.0872679 -4.7683854 -18.24225 154 79 21
3.4236586 -4.5933113 -19.636019 154 87 34
3.5220103 -4.90608 -20.115946 174 86 14
3.3162081 -4.8636503 -18.988749 69 26 0
3.4242322 -4.8743916 -19.453186 142 76 24
-0.14453168 4.901176 10.824693 0 66 65
-0.14271055 4.7714896 10.681848 25 163 174
-0.14652827 4.7536798 10.67713 0 89 93
-0.16076948 5.174432 11.136708 0 45 45
-0.17388394 4.882311 10.873097 4 103 98
-0.18685965 5.3638883 11.341343 34 134 134
-0.20953745 5.036793 11.086602 20 150 140
-0.26228642 5.528591 11.732589 30 192 181
-0.21262003 5.492664 11.485745 9 145 143
-0.24261107 5.2297535 11.337781 0 80 84
-0.24695666 5.6961074 11.735005 34 134 134
-0.30006614 5.6919785 11.926116 39 193 191
-0.2967377 5.9294286 12.039044 26 150 142
-0.3306632 5.824205 12.058907 9 99 97
-0.3535594 6.2284927 12.4530115 0 75 74
-0.34663138 6.046139 12.254795 30 168 179
-0.35173553 6.0275273 12.266647 0 107 107
-1.8134911 6.3983593 13.248693 22 127 24
-1.8562263 6.4285545 13.344739 10 144 9
-2.042147 6.673312 13.764312 12 97 6
-1.7724047 6.352319 12.981525 19 164 25
-1.7532375 6.2642198 12.831724 35 143 34
-1.8684281 6.4364824 13.059442 30 169 26
-2.0037708 6.598661 13.296022 36 151 32
-2.29568 6.8829503 13.971864 0 55 0
-2.553358 7.3603334 14.642405 33 193 33
-2.2447631 6.934173 13.818069 0 80 0
-2.3583963 7.0308166 14.081827 0 115 5
-2.2565212 6.890371 13.811418 5 101 14
-0.910753 1.9347004 3.8753805 93 93 93
-0.8727278 1.9388199 4.0354223 143 143 143
-0.8441977 1.9713886 4.0992336 170 170 170
-0.9255817 1.8875769 3.8259456 87 87 87
-0.8067197 1.9942786 4.167918 148 148 148
-0.9107724 1.8704004 3.8349245 32 32 32
-0.81890863 1.9845496 4.032394 102 102 102
-0.8915226 1.8651485 3.8567302 53 53 53
-0.7468909 2.0061524 4.256207 90 90 90
-0.7788847 1.9804442 4.0823393 147 147 147
-0.8208277 1.8910146 4.063679 51 51 51
-0.8256106 1.880738 3.9515014 112 112 112
-0.76242286 1.9638033 4.091359 124 124 124
-0.75172794 1.9250344 4.173748 81 81 81
-0.8062881 1.9178958 3.8949387 81 81 81
-0.73310465 1.9451225 4.2182846 90 90 90
-2.8129787 -1.5019609 0.8128543 98 0 101
-2.7331169 -1.388409 0.94164056 113 20 109
-2.4656644 -1.1075767 1.3258209 169 27 163
-2.7588265 -1.6743469 0.8220018 154 25 151
-2.1202464 -0.6724142 2.0779998 171 25 172
0.14099926 2.3730614 9.806755 41 40 0
0.14407535 2.3644502 9.975216 68 66 0
0.13571693 2.4066298 9.751431 106 107 5
0.10995994 2.3474078 10.1121435 162 160 51
0.09504115 2.350354 10.149653 174 179 33
0.12751666 2.442575 10.10901 181 184 33
0.07948482 2.4127898 9.3884115 215 217 28
0.066271216 2.3535168 9.781017 177 180 41
0.057425987 2.3723834 9.87032 213 214 32
0.047444146 2.3636558 9.578077 58 58 0
0.07806295 2.4312117 9.858242 92 91 9
0.06849773 2.4245732 10.058605 142 138 30
0.05117878 2.3881137 9.865334 75 71 0
0.061913535 2.4124174 10.109366 152 155 16
0.3543892 3.6428163 9.452663 111 18 11
0.18906616 1.7629517 4.998272 93 42 13
0.18894124 1.7486608 4.987917 125 60 6
0.20141503 1.753589 4.9255714 135 61 12
0.19760258 1.7191554 4.9367213 58 23 0
0.20229675 1.7224859 4.989129 140 65 10
0.20708355 1.8147315 5.1178074 150 80 21
0.2112797 1.7194794 4.9999213 134 66 19
0.22163925 1.8033613 5.0761395 113 42 0
0.22092952 1.7222073 5.0154657 156 85 31
0.2301348 1.8001497 5.085884 123 58 18
0.22264525 1.7440556 5.0806623 187 108 42
0.22651695 1.7467618 5.0881095 157 80 24
0.23974769 1.7914478 5.092882 70 20 0
0.2402775 1.7472315 5.060416 159 92 37
0.24327633 1.7748457 5.085097 143 76 34
0.24357139 1.7610368 5.0751643 144 64 1
0.019987063 0.18385296 4.36087 16 152 142
0.023965463 0.21613799 4.383111 0 102 98
0.019389294 0.04600619 4.2109904 36 157 152
0.02752709 0.18264727 4.334494 36 142 140
0.04529458 0.18660815 4.3173685 7 110 109
0.020904858 0.20865391 4.455958 26 159 164
0.067899734 0.22416979 4.3577404 21 127 125
0.040289123 0.07105987 4.3110995 0 114 112
0.08430994 0.23561393 4.376891 7 126 122
0.050131787 0.17461722 4.455369 0 50 48
0.0694723 0.09647693 4.3625917 0 86 87
0.09362871 0.34588423 4.538948 34 135 129
0.09169632 0.13459523 4.401323 0 101 111
0.10403075 0.3901923 4.6241794 6 133 140
0.12207133 0.15604155 4.354643 47 177 179
0.11431744 0.107223235 4.340866 0 87 88
0.1213245 0.11562952 4.329567 22 165 161
-1.2923816 5.3067513 11.199659 16 152 20
-1.3927253 5.4909863 11.490363 0 68 0
-1.3470435 5.2790794 11.245369 5 114 5
-1.405538 5.620991 11.505935 16 162 17
-1.3583333 5.4820304 11.273142 1 101 0
-1.310899 5.102318 11.015718 0 98 0
-1.4007486 5.5275717 11.307768 21 107 16
-1.441622 5.56138 11.344567 24 139 18
-1.4968871 5.587603 11.390215 2 120 0
-1.547782 5.507224 11.420299 23 178 25
-1.4390029 5.362291 11.141801 7 89 4
-1.5425762 5.53158 11.401992 0 60 0
-1.7309273 1.1117473 4.986881 92 92 92
-1.7184186 1.1134245 4.992743 181 181 181
-1.7083715 1.1147242 4.997556 85 85 85
-1.6770834 1.1088899 5.0078583 69 69 69
-1.7323772 1.0999671 4.981879 178 178 178
-1.7231364 1.0872576 4.9807925 146 146 146
-1.6457974 1.0983815 5.0165076 125 125 125
-1.7096955 1.0775406 4.982178 101 101 101
-1.6275358 1.0898157 5.0196724 68 68 68
-1.6904217 1.0678502 4.9848685 152 152 152
-1.6134298 1.0798559 5.019515 97 97 97
-1.6594002 1.0574503 4.9920397 89 89 89
-1.6033374 1.0675116 5.0178833 38 38 38
-1.631752 1.0541952 4.9991713 101 101 101
-1.6184766 1.0555103 5.0039053 176 176 176
-1.607295 1.0568779 5.0102553 57 57 57
-2.5255747 0.77031994 4.972209 128 23 124
-2.5549479 0.7336608 4.994554 149 15 138
-2.48619 0.74841666 4.976809 122 0 119
-2.5325475 0.71319026 4.9988976 148 23 143
-0.9219174 0.9565342 5.047479 80 80 0
-0.90777445 0.9601802 5.054517 62 62 0
-0.934777 0.9393602 5.023777 82 81 0
-0.871546 0.958804 5.05743 53 56 0
-0.83771086 0.9525213 5.049291 91 90 10
-0.90688014 0.919147 4.9949055 168 169 52
-0.8167925 0.946413 5.0396533 84 88 0
-0.8845873 0.9116834 4.9840217 186 188 45
-0.80019206 0.93860465 5.0265985 44 42 0
-0.84838694 0.9043281 4.976589 73 73 0
-0.78867143 0.9264507 5.0052752 100 103 0
-0.81931466 0.90639174 4.976838 176 178 43
-0.7918751 0.916175 4.989652 167 171 35
-0.80236334 0.91008204 4.9812446 167 173 49
-1.9858708 0.44697228 4.9393864 151 7 16
-1.9088744 0.33551237 4.9278836 129 5 3
-0.3435305 0.35713986 4.422305 127 63 17
-0.3498462 0.34607285 4.422978 147 75 27
-0.2988057 0.36670616 4.4044375 133 71 12
-0.3296844 0.3073576 4.389984 147 74 31
-0.26334155 0.36135557 4.3807893 138 65 14
-0.30812523 0.29342893 4.371479 146 66 13
-0.23856412 0.35303444 4.3642793 114 50 12
-0.28315413 0.28429735 4.355031 153 73 22
-0.21495984 0.33890256 4.341577 141 59 3
-0.24983229 0.27943408 4.3308344 185 106 40
-0.19632435 0.31343502 4.322099 207 112 30
-0.21552613 0.27951443 4.3123274 142 75 30
-0.19170135 0.29991478 4.3083305 136 62 25
-0.19859098 0.28731394 4.3062005 132 56 0
-1.278339 -0.44107342 4.6725373 38 161 158
-1.2621229 -0.4409411 4.6640406 7 85 85
-1.288514 -0.4544093 4.67686 24 169 164
-1.2935203 -0.47184855 4.676159 24 166 167
-1.2282768 -0.45139965 4.6456947 23 139 138
-1.1913445 -0.4733502 4.623916 24 145 138
-1.2762469 -0.5084065 4.6627355 31 183 186
-1.2575632 -0.5330988 4.6494718 51 159 162
-1.1669375 -0.49484783 4.608284 23 127 130
-1.2384113 -0.5535374 4.6383133 0 66 61
-1.1500874 -0.5162724 4.597872 18 152 143
-1.1988273 -0.5804771 4.6124425 24 137 135
-1.1335583 -0.5495091 4.581668 5 95 96
-1.1832995 -0.58011705 4.6047945 44 195 188
-1.1603563 -0.5942788 4.591194 13 128 123
-1.1356066 -0.57648796 4.5812125 25 154 160
-1.146111 -0.5877314 4.5850835 21 102 103
0.22529042 -1.704584 3.4278536 0 60 0
0.2084152 -1.7234474 3.4347472 0 105 0
0.254509 -1.6960015 3.4066668 0 75 0
0.21999009 -1.7817819 3.4163535 29 184 31
0.32581466 -1.7185383 3.3515365 20 142 21
0.42018536 -1.7822363 3.266662 40 156 31
0.47938952 -1.8319575 3.214011 16 150 15
0.52629536 -1.8846346 3.1673555 31 160 31
0.3763915 -1.9779428 3.2618103 9 121 9
0.47706833 -2.0517385 3.1697824 0 72 0
0.5512723 -2.0761557 3.1083283 6 108 8
0.605328 -2.0418944 3.0741167 15 117 7
0.58923584 -2.0701246 3.080573 17 106 16
0.11426003 5.744009 2.5012681 90 90 90
0.18333639 5.745439 2.4726403 170 170 170
0.24906127 5.7485495 2.4423823 53 53 53
0.11155031 5.686782 2.5898714 186 186 186
0.42378145 5.70678 2.4407663 163 163 163
0.16828105 5.6180916 2.6703656 149 149 149
0.6134264 5.630923 2.4830744 92 92 92
0.25804177 5.5628066 2.71655 145 145 145
0.7235112 5.575303 2.5236614 71 71 71
0.35512394 5.5033455 2.7649858 136 136 136
0.8055268 5.5179567 2.575655 56 56 56
-4.920772 4.8575616 3.7894669 114 11 116
-4.7223053 4.9434185 3.820603 121 29 130
0.8804695 5.436165 2.6625075 170 170 170
0.5520498 5.425399 2.7986336 151 151 151
0.7123241 5.380934 2.7993925 85 85 85
0.8559113 5.385742 2.740033 116 116 116
-4.8879876 4.7608967 3.8533032 165 28 167
0.80280805 5.371494 2.7786665 62 62 62
-4.5174704 4.7934484 3.9644542 130 3 132
-4.766498 4.6180077 3.969513 89 1 88
-4.4283366 4.6030445 4.093896 153 26 155
-4.4223394 4.5293756 4.133866 85 0 78
4.7538342 3.480433 3.224453 167 169 59
4.8410583 3.4889085 3.1878114 94 94 6
4.66697 3.4555528 3.2710323 162 162 32
4.6020675 3.3826547 3.3404832 119 121 14
5.0862546 3.4311497 3.1344726 75 72 0
4.6722784 3.2400599 3.4031038 138 140 5
5.300026 3.3207843 3.1233976 39 42 0
4.7504025 3.1624455 3.4102871 139 138 45
5.420502 3.2336268 3.1277878 29 27 0
5.499931 3.1415346 3.1455214 169 172 43
4.865896 3.0710523 3.41096 69 72 0
-2.7453754 1.9884982 5.4525285 84 0 0
5.075183 2.9573772 3.398796 100 104 0
5.5452204 3.010675 3.1952186 143 143 33
5.276683 2.9110446 3.3442748 121 116 32
5.3984046 2.9077609 3.3001826 140 144 8
-2.3172257 1.2265387 5.668341 147 22 30
6.2657924 -0.6160541 3.5727713 104 38 0
6.327959 -0.5819989 3.5317888 168 82 31
6.558507 -0.63591516 3.420162 211 108 29
6.564099 -0.63121855 3.4172044 89 30 0
6.2218275 -0.8379695 3.588603 150 72 8
6.6873145 -0.7278909 3.3478258 177 86 29
6.7434564 -0.7969838 3.3137753 141 73 28
6.3125 -1.0050181 3.5316155 162 87 32
6.770307 -0.8930242 3.2822022 153 71 13
6.7696424 -1.0177175 3.2829635 194 101 23
6.7749667 -1.0124915 3.2796738 55 12 0
0.27013218 -2.7334151 5.9366307 0 89 85
0.20483603 -2.762228 5.94675 20 110 111
0.33212385 -2.7056627 5.916644 35 113 113
6.553626 -1.1535963 3.3892097 141 57 0
6.713803 -1.1126748 3.3046424 144 60 0
6.643101 -1.1515045 3.340043 89 42 14
0.17284563 -2.8866699 5.958368 0 52 50
0.451329 -2.7618988 5.8861938 45 152 158
0.19621058 -3.0439947 5.948612 0 86 87
0.5658562 -2.8740962 5.854149 5 99 99
0.23537076 -3.1600866 5.933892 29 172 170
0.6308643 -2.980633 5.833819 0 73 72
0.3014178 -3.2708063 5.9230623 0 105 105
0.6717564 -3.0982358 5.824638 16 128 130
0.3986769 -3.3861365 5.8852663 0 85 94
0.67956567 -3.2565072 5.81107 1 95 97
0.6452265 -3.3814008 5.8220105 40 176 174
0.5281156 -3.4350383 5.847625 0 90 88
0.57914037 -3.4112754 5.834051 16 159 153
2.1039813 -7.6314487 4.1628704 4 154 7
2.0471 -7.695271 4.1845145 30 136 25
2.293596 -7.6343412 4.037437 41 153 41
2.3788416 -7.7323995 3.9222586 32 130 29
2.4282334 -7.84137 3.8555644 0 83 0
2.0328782 -8.241186 4.0043864 7 84 4
2.4521153 -7.965287 3.8001485 22 116 22
2.2215471 -8.356142 3.8008907 17 159 25
2.299971 -8.326664 3.7534592 31 136 31
-5.0334024 -1.4350842 -17.519169 55 55 55
-5.0512867 -1.5758681 -17.70926 180 180 180
-5.0308833 -1.6799799 -17.807981 90 90 90
-4.950892 -1.8065883 -17.849207 58 58 58
-4.957346 -1.2745962 -17.216957 130 130 130
-9.927931 4.7481394 5.3053784 116 21 111
-9.727816 4.7336583 4.622904 87 5 89
-4.8407288 -1.1459128 -16.898952 40 40 40
-4.810462 -1.8449304 -17.707642 94 94 94
-10.008873 4.6785917 5.812541 165 17 165
-4.7209835 -1.0836918 -16.66478 176 176 176
-4.7282887 -1.8160359 -17.56441 44 44 44
-10.010742 4.605136 6.2154036 104 3 105
-9.336815 4.6047544 4.166794 93 6 110
-4.6203685 -1.0741763 -16.515228 51 51 51
-4.6064334 -1.7526182 -17.332859 80 80 80
-9.964495 4.559395 6.39853 56 0 55
-4.4737916 -1.1169404 -16.37723 172 172 172
-4.463014 -1.6181706 -16.984081 33 33 33
-4.387985 -1.2448767 -16.422476 116 116 116
-4.384377 -1.3538333 -16.551817 61 61 61
-9.472161 4.3549805 6.0082517 85 0 86
-9.243327 4.3734612 5.342182 71 0 68
-0.97278726 -1.3208846 -11.861126 178 183 55
-0.9508962 -1.4379579 -11.970222 80 77 8
-0.9535225 -1.2020339 -11.673255 182 182 36
-0.94085133 -1.4369162 -11.97706 149 151 18
-0.840797 -1.018938 -11.265047 63 63 0
-0.82136333 -1.5909525 -11.981715 32 32 0
-0.6490121 -1.6906508 -11.826769 172 177 49
-0.67777926 -0.95271116 -10.881133 97 97 11
-0.53146464 -0.92930293 -10.638306 177 177 57
-0.49973768 -1.7073301 -11.624503 164 167 28
-0.38360718 -0.9517576 -10.437062 178 182 35
-0.35042965 -1.6859479 -11.374471 166 164 55
-0.18362492 -1.0547217 -10.256856 42 42 0
-0.15316959 -1.5891678 -10.952177 145 145 33
-0.045583606 -1.1831611 -10.259011 173 168 51
-8.225328 1.225357 13.117193 131 19 17
-0.015459028 -1.3184777 -10.391168 168 170 25
3.9762242 -1.9714496 -2.2630775 74 27 0
3.9541197 -1.9284115 -2.0984948 120 50 1
4.0438914 -2.037474 -2.3640287 119 48 0
3.9875793 -1.9282392 -1.8275207 118 52 4
4.168977 -2.1464705 -2.4298303 136 67 12
4.07746 -1.9485668 -1.5828688 156 79 25
4.349126 -2.237962 -2.3333719 90 32 0
-4.3775907 -2.9535482 12.762459 0 42 43
-4.246017 -2.8690467 12.522759 46 159 157
-4.114467 -2.790275 12.334204 7 72 78
4.474793 -2.293956 -2.2021313 45 14 0
-4.5037255 -3.1452653 13.011214 0 65 67
-3.8859186 -2.8034031 12.1283245 27 132 125
4.3248734 -2.0594964 -1.2432537 155 82 31
-4.5322804 -3.3497312 13.275575 40 142 144
-3.7243588 -2.8830514 12.029874 22 112 120
4.6885443 -2.3809385 -1.7523215 144 70 7
-4.507591 -3.4868565 13.317364 20 150 148
-3.6404593 -2.9903808 12.047394 0 95 91
4.602837 -2.281355 -1.26519 103 41 2
4.725928 -2.365328 -1.4783173 124 53 9
4.6789417 -2.3252444 -1.3526776 64 21 0
-4.4422574 -3.590005 13.323616 48 158 159
-3.6035924 -3.134019 12.173398 11 109 110
-4.2761874 -3.6960635 13.257198 0 74 72
-3.6505444 -3.338968 12.354193 14 146 148
-4.0330963 -3.6796093 13.008779 0 94 95
-3.9188538 -3.6139114 12.845635 24 171 163
-2.659151 -8.944558 14.535454 14 104 16
-2.8100588 -9.0688505 14.67783 11 123 15
-2.1997666 -8.824458 14.1668005 2 98 1
-2.016945 -8.924005 14.038219 1 149 3
-3.099893 -9.611711 14.981942 4 94 0
-3.0891445 -9.74628 15.028683 0 62 0
-1.944778 -9.048281 13.978665 31 152 36
-3.0176737 -9.887225 14.939011 4 71 0
-1.9298471 -9.217976 13.993093 18 156 21
-2.5682797 -9.945243 14.594768 31 116 33
-2.3836646 -9.847931 14.426011 26 156 22
-14.592437 -4.8779764 6.4034843 71 0 72
-14.7405 -4.9844275 6.582702 154 27 158
-5.6189594 -0.2705853 -3.0819488 119 119 119
-5.655375 -0.23982851 -3.0443091 107 107 107
-5.515268 -0.26638517 -3.1567495 141 141 141
-5.5927196 -0.19276193 -3.0788276 120 120 120
-5.262758 -0.21633062 -3.3405488 68 68 68
-14.811854 -5.224869 6.8313003 166 14 159
-5.4179087 -0.09886641 -3.1925268 92 92 92
-14.783003 -5.2937174 6.883993 134 22 132
-4.901897 -0.07462853 -3.6252198 33 33 33
-4.741475 -0.03461203 -3.714071 153 153 153
-14.197054 -4.968398 6.3492823 124 11 125
-5.188595 0.015480545 -3.3617105 117 117 117
-4.9804363 0.07759326 -3.497573 142 142 142
-4.4774857 0.10950283 -3.930305 170 170 170
-14.592079 -5.360741 6.877945 130 11 129
-4.6148744 0.22465956 -3.7824318 64 64 64
-4.222041 0.2553586 -4.1228557 104 104 104
-4.31959 0.31277707 -4.020426 65 65 65
-4.2397356 0.30207905 -4.082728 173 173 173
3.3261626 3.10421 -9.810603 142 150 12
3.0567753 2.9505427 -9.487101 134 139 13
3.6932015 3.2870333 -10.191984 140 140 40
4.3926578 3.6171923 -10.857177 138 143 23
2.846639 2.6656559 -8.951041 41 40 0
5.0354967 3.8715322 -11.381513 37 35 0
-15.1499605 -9.448578 9.427286 107 12 16
3.0748515 2.7452726 -9.055769 42 42 0
5.4234543 4.017746 -11.655011 46 52 0
3.358661 2.8030534 -9.206707 77 74 0
3.9703665 3.0161371 -9.664983 131 130 22
5.8247504 4.099052 -11.71743 114 116 7
4.6414056 3.3386154 -10.279069 42 42 0
5.5052767 3.8307557 -11.231124 101 100 18
5.1359 3.601266 -10.805539 114 114 0
-14.111121 -13.648995 10.714962 11 147 135
-14.00723 -13.566174 10.66334 0 71 61
-14.253945 -13.809165 10.799935 40 164 166
-14.403698 -14.02404 10.90971 26 168 172
-13.89993 -13.588317 10.63445 48 158 157
4.136623 -1.5347413 -4.829386 150 67 0
3.691356 -1.8287195 -4.3744187 154 82 24
4.546989 -1.3258307 -5.2071753 160 95 39
-13.88088 -13.699753 10.667187 15 168 165
4.9976854 -1.1707416 -5.5741973 87 32 0
-14.577498 -14.3457155 11.065509 0 100 95
3.16828 -2.269451 -3.7885168 193 109 37
-14.636235 -14.508737 11.123913 28 169 163
-13.911272 -13.855013 10.728972 42 147 140
2.7211246 -2.7016153 -3.2473726 152 79 26
5.11558 -1.2983999 -5.55399 182 97 43
-14.677391 -14.67754 11.190478 15 131 130
-13.997401 -14.070393 10.827795 18 141 146
2.5304673 -2.959998 -2.9660466 136 69 14
5.069827 -1.4895154 -5.3976603 176 89 10
-14.658038 -14.822835 11.234336 15 110 114
-14.132259 -14.33522 10.950781 9 90 93
2.4651902 -3.1766686 -2.7854893 128 50 14
-14.553498 -14.831281 11.2071295 26 124 123
-14.443263 -14.723374 11.15448 44 161 155
2.5698757 -3.2904403 -2.7658172 66 18 0
4.402571 -2.224703 -4.5184 113 49 13
3.0222218 -3.1312764 -3.1399717 181 97 25
3.3408747 -2.974362 -3.4151573 153 83 24
3.7663383 -2.7198792 -3.825029 65 24 0
-18.377611 -23.397028 13.7383175 0 39 0
-18.498951 -23.569593 13.754258 0 73 0
-18.219599 -23.212818 13.730247 0 47 0
-18.660465 -23.863518 13.79458 18 153 24
-18.103107 -23.138678 13.743458 19 129 32
-18.804981 -24.14004 13.833009 10 72 9
-18.039541 -23.177666 13.778828 27 158 18
-18.033499 -23.268085 13.811896 24 124 26
-18.845615 -24.309937 13.870455 0 61 0
-18.833696 -24.392311 13.900137 0 79 0
-18.83445 -24.394066 13.900055 9 212 8
-18.07548 -23.418432 13.851519 11 133 14
-18.756067 -24.403196 13.934302 0 82 0
-18.60688 -24.27268 13.951237 0 55 0
-18.490591 -24.1371 13.949494 31 157 31
-18.356495 -23.949265 13.938558 0 86 0
-6.448126 5.595056 5.621593 70 0 67
-5.338249 6.2793145 6.8072867 114 1 107
-5.1861525 6.3162804 6.967198 81 2 83
-17.516386 -12.09886 -41.536026 85 85 85
-17.606853 -12.084446 -40.98003 131 131 131
-17.265076 -12.071791 -41.734665 140 140 140
-5.20255 6.219312 6.944396 90 0 92
-7.7713776 4.103369 3.967757 159 10 154
-16.768051 -12.07748 -41.80902 65 65 65
-17.702211 -12.326048 -40.529602 187 187 187
-5.5077243 5.8561907 6.615521 152 14 153
-5.4388714 5.9051943 6.670382 188 28 176
-16.21526 -12.10922 -41.417747 41 41 41
-17.187351 -12.48357 -39.21627 88 88 88
-15.924605 -12.246889 -41.184307 55 55 55
-15.698305 -12.344559 -40.76268 79 79 79
-16.884737 -12.603775 -38.958126 57 57 57
-16.346941 -12.63704 -38.60398 92 92 92
-15.443234 -12.425498 -39.83857 38 38 38
-15.843632 -12.588881 -38.54012 148 148 148
-15.528096 -12.610261 -39.330353 100 100 100
-15.655048 -12.654784 -38.960262 83 83 83
3.1442358 12.32101 15.18437 112 13 16
-7.9397726 -10.596518 -20.677944 178 182 62
-8.0888815 -10.623257 -20.32402 122 125 8
-8.005969 -10.504874 -20.186905 186 190 31
-7.8070292 -10.829179 -21.275368 162 170 23
-7.52648 -10.964212 -21.56867 149 148 22
2.5469878 11.651618 14.79713 151 12 15
-7.117547 -11.028166 -21.370049 152 149 42
-7.8022428 -10.49076 -18.764557 42 38 0
-7.5687613 -10.403267 -18.296408 150 151 23
-6.901753 -11.16694 -21.275225 150 152 17
-6.7114444 -11.173422 -20.88018 183 184 48
-7.3357053 -10.483874 -18.087103 165 165 55
-6.705247 -11.231151 -20.922983 103 102 12
-6.972933 -10.657578 -18.078373 41 44 0
-6.7095613 -10.87756 -18.466206 39 44 0
-6.4632773 -11.036888 -19.26871 73 78 0
-6.5722394 -10.995785 -18.852324 99 92 20
-1.3302569 3.428292 10.081701 1 137 127
-1.1913111 3.708087 10.317642 33 128 130
-1.4152486 3.2058482 9.91163 49 140 143
-0.9977756 4.047423 10.615526 0 85 83
-1.5235206 2.862916 9.66774 30 140 131
-0.80759454 4.2765555 10.863463 5 64 70
-1.5379324 2.6373966 9.55512 27 132 127
-0.74887466 4.3286276 10.933843 0 46 52
-1.4913596 2.5824754 9.570818 5 124 120
-0.7028022 4.2746677 10.953518 0 73 76
-1.3985696 2.6415527 9.679365 25 131 131
-1.1093683 -15.764624 -16.069386 95 45 8
-1.1918954 -15.63923 -15.669661 147 72 15
-0.96647364 -15.901676 -16.389236 117 61 14
-0.72930247 4.053777 10.848466 23 126 131
-1.2220683 2.875427 9.936177 0 54 58
-1.2342324 -15.544135 -15.154972 170 85 20
-0.71090955 -16.085403 -16.66124 132 62 3
-0.84005916 3.7120101 10.622817 0 56 58
-0.9164934 3.4970145 10.467078 32 157 153
-1.1210039 -15.429995 -14.5596 110 46 0
-0.46641484 -16.301994 -16.76755 188 91 22
-0.2991221 -16.369307 -16.644672 152 75 33
-0.86649567 -15.490499 -14.218205 118 52 0
-0.18677917 -16.311377 -16.36509 80 27 0
-0.08807827 -16.21554 -15.776721 128 65 14
-0.5847968 -15.655893 -14.244205 82 23 0
-0.34365997 -15.900532 -14.609632 133 64 5
-0.14193593 -16.13047 -15.276452 134 62 4
-0.2289923 -16.00007 -14.88283 101 44 15
3.0061069 9.952096 15.26477 16 99 11
3.1008248 10.19565 15.35607 0 115 8
2.8981023 9.652657 15.1580715 0 71 0
2.8099654 9.342378 15.042228 5 96 1
3.2271085 10.510407 15.476419 33 193 43
3.3773854 10.816397 15.595836 4 102 3
2.7865536 9.174506 14.9920845 15 153 14
3.40572 10.84003 15.603537 22 140 30
3.4098172 10.826528 15.606811 23 145 24
2.844373 9.197929 15.023603 12 135 10
3.369098 10.638007 15.548699 0 81 0
3.2899673 10.34823 15.461152 13 80 11
3.116326 9.848128 15.292576 6 80 5
-13.443471 5.758638 1.2281066 112 11 113
-13.845253 5.2550526 1.436726 130 3 142
-12.565077 5.674027 0.91761386 66 0 68
-13.666619 5.024025 1.5840864 158 16 164
-12.418106 5.40766 1.0289931 125 6 134
-13.342359 4.896156 1.6006696 136 22 133
-12.510967 5.14548 1.158705 131 12 130
1.3733803 9.765356 -3.9349337 123 123 123
1.3302143 9.765543 -3.7811325 121 121 121
1.6932746 9.952292 -3.7335792 156 156 156
1.1562358 9.562391 -3.8088157 147 147 147
1.801362 9.84502 -3.8879983 68 68 68
2.1225102 9.868226 -3.6968024 88 88 88
0.9289119 9.024835 -4.026387 160 160 160
2.1894994 9.763503 -3.696567 23 23 23
1.0030248 8.917716 -4.0196185 190 190 190
2.065868 9.485882 -3.8906198 72 72 72
1.1966435 8.8158455 -3.9991603 155 155 155
2.237044 9.507226 -3.535763 152 152 152
1.5954803 8.976107 -3.7731857 104 104 104
1.6160938 8.910345 -3.9560773 90 90 90
-26.544497 -8.387708 5.2104263 158 12 25
-26.646528 -8.781417 5.3144646 132 17 14
-3.4422917 -1.2528303 -8.00872 55 57 0
-3.5167806 -1.2274921 -7.7384543 39 33 0
-2.389711 -0.19908777 -7.1212974 162 166 30
-3.8186662 -1.6858053 -7.756969 124 127 14
-2.1513176 -0.285655 -7.2602158 66 66 0
-4.327736 -2.6433804 -8.136817 129 130 26
-2.715553 -1.6086118 -8.383077 183 185 40
-4.119266 -2.675524 -7.9249353 135 140 11
-2.5121455 -1.7163761 -8.290296 37 36 0
-4.0952864 -3.0150006 -8.025107 143 145 46
-2.4126735 -1.8765826 -8.154932 70 66 0
-4.371282 -4.0224347 -8.760067 156 159 44
-3.413528 -3.2362256 -8.105219 114 119 3
-3.2033942 -3.3436005 -8.630252 114 112 11
-3.323479 -3.368806 -8.398911 109 108 26
-3.750746 -2.0325153 6.921947 34 125 128
-3.6067886 -1.7937804 7.1439266 36 176 175
-3.3566191 -1.6832062 6.9470563 38 179 171
-3.6937833 -1.9044628 7.32584 19 102 108
-3.112791 -1.6480161 6.865931 10 103 111
-2.84927 -1.6771069 6.8768387 12 101 99
-3.5306659 -1.9054813 7.5632954 23 129 129
-3.6462274 -2.2158723 7.5702457 0 61 58
-2.9392052 -2.0402849 6.839707 0 89 86
-3.3779156 -2.149875 7.67671 0 74 81
-2.5951161 -1.8070594 7.037788 8 99 100
-3.030337 -2.0463798 7.7160096 9 118 121
-2.468286 -1.7985231 7.2559905 16 129 127
-3.1213026 -2.462345 7.5106916 39 178 175
-2.740786 -2.1110177 7.526458 21 156 150
6.0196137 -0.37082237 -1.4490098 76 29 3
6.065356 -0.14852534 -1.1511353 114 47 4
5.7825913 -0.76828605 -1.3503286 70 16 0
6.5327005 0.09323994 -1.2475215 131 61 25
5.999442 -0.51942444 -0.91530997 86 40 4
6.7363625 0.06413092 -1.2059815 102 37 0
6.7076445 -0.34107307 -1.3853028 74 22 1
6.1404004 -0.7704557 -0.84396803 96 48 10
6.872012 -0.18894391 -1.1441926 134 58 9
6.3936067 -0.7203569 -0.7367879 93 34 2
6.924454 -0.29697996 -0.9599081 125 56 1
6.49102 -1.0035404 -0.98666185 87 38 6
6.7329965 -0.57862103 -0.79702514 148 82 32
-8.249037 -16.53165 13.096236 27 128 26
-7.864024 -16.340355 12.726683 20 107 26
-8.334724 -16.67721 13.409733 9 105 8
-7.4665337 -16.248413 12.570606 0 77 0
-7.995847 -16.440142 13.711951 0 49 0
-7.063148 -16.233284 12.5725565 13 107 13
-7.9884157 -16.835361 13.825187 15 158 14
-7.8227463 -16.973753 13.905484 0 63 0
-6.6490636 -16.315292 12.78201 13 111 12
-7.3466954 -16.821669 13.879786 42 145 36
-6.0580163 -15.636249 13.123388 0 89 0
-6.6644316 -16.259926 13.750966 0 54 0
-6.593464 -16.587305 13.40427 0 55 0
