ply
format ascii 1.0
element vertex 422
property float x
property float y
property float z
property uchar red
property uchar green
property uchar blue
end_header
0 0 0 255 0 0
-0.4264146 1.080063 -3.491379 57 57 57
-0.42523474 1.0126677 -3.2744648 100 100 100
-0.4284288 1.1314789 -3.675897 84 84 84
-0.4241022 0.89778817 -2.9236639 40 40 40
-0.4303704 1.1741089 -3.8687606 154 154 154
-0.42618275 0.82280993 -2.717359 127 127 127
-0.43433496 1.1867988 -3.9850152 131 131 131
-0.42651692 0.79367006 -2.6576197 130 130 130
-0.43427962 1.191653 -4.072842 123 123 123
-0.43337128 1.178667 -4.0913935 136 136 136
-0.42440197 0.82173073 -2.810719 65 65 65
-0.42439398 0.8710463 -3.0452197 139 139 139
-0.43094745 1.1359227 -4.019696 151 151 151
-0.42249963 0.96810585 -3.447314 89 89 89
-0.42641047 1.0929638 -3.9062085 99 99 99
-0.42245346 1.0303036 -3.6858804 59 59 59
-0.6405653 -0.36729747 1.8691877 110 16 104
-0.6396654 -0.34401667 1.7862128 180 27 179
-0.6419316 -0.3421113 1.7828478 148 10 147
-0.6396547 -0.36833733 1.909944 141 10 142
-0.57990164 0.323513 -1.5993462 173 181 36
-0.5799873 0.32721594 -1.6259218 171 173 48
-0.57926667 0.31752533 -1.5766488 181 189 42
-0.6420487 -0.32682535 1.7635957 125 19 127
-0.64029664 -0.36051574 1.9333488 143 14 140
-0.5803118 0.32762992 -1.6593952 147 149 24
-0.5802479 0.3062443 -1.5474997 61 55 0
-0.6422383 -0.31832147 1.759198 96 0 101
-0.5816457 0.3215525 -1.6837554 178 184 36
-0.5806695 0.29453996 -1.5347894 78 80 0
-0.64055496 -0.34211254 1.9338503 125 11 125
-0.5806584 0.3141938 -1.6907213 38 33 0
-0.5812273 0.2850984 -1.5328804 40 39 0
-0.58182675 0.30584347 -1.6918247 76 79 0
-0.64038247 -0.3128878 1.872947 110 1 108
-0.6416852 -0.30617675 1.8451517 95 10 95
-0.58222705 0.27239552 -1.5579742 48 46 0
-0.5824985 0.29011875 -1.6721965 75 82 5
-0.58280015 0.27900723 -1.6419321 91 94 0
-0.58199745 0.27065212 -1.5915695 36 40 0
-0.5828387 0.27321255 -1.6156735 41 35 0
-0.40803364 -0.14405769 3.3747098 88 0 0
-0.3678005 -0.27931243 7.5498514 91 16 10
-0.43605545 -0.44690198 -9.398608 115 50 10
-0.43840086 -0.34587416 -7.339342 159 84 27
-0.44506273 -0.5315847 -10.809373 156 86 26
-0.46592295 -0.6056389 -11.579241 79 30 0
-0.46473843 0.022453574 -0.21718842 145 76 21
-0.47294688 -0.6697902 -11.680034 144 75 33
-0.48038757 -0.7114789 -12.16886 96 34 0
-0.47229138 0.1065258 1.1175866 163 78 11
-0.47846097 -0.76052314 -12.179136 161 76 12
-0.47774133 -0.8227924 -12.466884 182 99 29
-0.46875423 0.0710457 0.52766645 157 90 35
-0.45335612 -0.16391465 -2.7329202 140 73 18
-0.47353345 -0.91716886 -12.892664 179 109 47
-0.4450239 -0.56964064 -7.889455 105 59 10
-0.4555257 -0.93803555 -12.608312 110 54 19
-0.45039746 -0.83361965 -11.165473 78 20 0
-0.61704904 0.3239224 1.9104161 49 169 168
-0.6162231 0.3292972 1.9378816 0 54 61
-0.61485356 0.34097394 1.9706868 13 117 110
-0.6170136 0.32202202 1.8472886 12 210 211
-0.61798286 0.32624257 1.8228834 38 140 142
-0.6132599 0.3565211 1.9910232 30 162 167
-0.6174821 0.33280188 1.8160027 0 118 109
-0.61239254 0.3657674 1.9946275 12 143 138
-0.61667556 0.34115583 1.8189374 43 153 154
-0.6118372 0.37279075 1.9862959 42 162 161
-0.61512613 0.35542196 1.8359753 9 109 111
-0.6125841 0.36729124 1.8673184 4 117 111
-0.6128437 0.37272248 1.891227 35 182 176
-0.6108972 0.3785946 1.9207848 0 63 67
-0.15918592 3.3317995 9.763925 18 94 19
-0.10428796 3.684715 10.764412 0 91 0
-0.041793987 4.1707335 12.020937 17 140 16
-0.0061843693 4.413046 12.502084 32 151 33
0.0005930068 4.46372 12.454224 18 152 17
-0.24855806 2.721819 7.5042806 13 101 14
0.005124363 4.483757 12.329708 0 66 0
-0.22478457 2.8928976 7.826907 16 151 13
-0.05128838 4.0852714 11.031497 3 117 4
-0.18187459 3.1652744 8.464693 3 86 4
-0.15233956 3.4141686 9.118245 38 157 39
-0.11997593 3.633797 9.71079 0 69 0
-3.6880689 3.3381603 -2.3408315 125 125 125
-3.705463 3.310126 -2.380404 141 141 141
-3.6483266 3.336308 -2.2672555 173 173 173
-3.6946566 3.2349496 -2.3810287 158 158 158
-3.5679293 3.2932549 -2.133412 73 73 73
-3.6494784 3.1368494 -2.3277025 113 113 113
-3.5872808 3.0526903 -2.247408 85 85 85
-3.4201548 3.148559 -1.894428 161 161 161
-3.524944 2.9859924 -2.1585038 142 142 142
-3.359691 3.0670354 -1.8161091 183 183 183
-3.4345772 2.9121258 -2.018495 89 89 89
-3.3109229 2.974367 -1.7531565 153 153 153
-3.3028347 2.9066427 -1.7799621 179 179 179
-3.3549552 2.8760364 -1.8924239 93 93 93
-3.3186538 2.8797865 -1.8224976 170 170 170
-5.083279 -0.14792727 -2.6668274 80 0 77
-5.098677 -0.43227172 -2.5209036 133 21 123
-4.8511105 -0.19263753 -2.5906997 87 0 80
-4.726982 -0.30358842 -2.505849 78 0 74
-1.4965487 1.8235754 4.0837135 164 161 46
-1.4904886 1.8292129 3.983968 155 160 31
-1.488605 1.8065071 4.197632 161 161 37
-4.6709585 -0.5076747 -2.3911762 111 23 109
-1.4584928 1.8117961 3.8689063 110 109 3
-1.4536558 1.7662164 4.3541956 67 60 0
-4.692866 -0.5542897 -2.373485 104 0 108
-1.411542 1.7287621 4.463111 92 90 15
-1.4127618 1.7868093 3.852668 39 37 0
-1.3693006 1.7528284 3.8833683 169 171 44
-1.368418 1.6990709 4.5186834 133 133 3
-1.3274751 1.6710178 4.53655 187 185 50
-1.3246809 1.7205114 3.9377708 57 54 0
-1.325723 1.6728317 4.537985 105 101 10
-1.2766091 1.6451896 4.499135 151 150 32
-1.2726462 1.6781232 4.0596313 111 110 0
-1.2361432 1.6458341 4.222292 141 144 37
-1.2390678 1.6313407 4.4115376 102 105 14
-1.23061 1.6336541 4.317028 134 136 9
0.3900827 -0.05230661 2.0247262 146 66 17
0.38421276 -0.07237522 1.9841082 162 76 25
0.41078532 -0.023652073 2.088266 149 76 31
0.44342592 -0.013346913 2.1502821 120 58 9
0.45732903 -0.16542292 1.9660014 146 74 24
0.5038733 -0.013019186 2.2320144 100 48 9
0.501804 -0.1886851 1.9932284 120 57 13
0.54139423 -0.019607188 2.268876 84 22 0
0.54049736 -0.19684228 2.031406 158 86 28
0.5846797 -0.042953335 2.295334 113 56 13
0.5992765 -0.20009412 2.1035428 171 92 36
0.63422894 -0.083544806 2.2971115 200 107 38
0.63764423 -0.17433406 2.177516 78 28 0
0.65861434 -0.12924328 2.2714164 76 12 0
0.6542954 -0.14958633 2.231068 37 13 0
0.10437278 -2.8690066 0.62940943 42 158 158
0.08581298 -2.90731 0.62439233 30 167 160
0.14468305 -2.8354177 0.64882874 39 175 173
0.23013245 -2.795237 0.6970646 0 103 94
0.09890866 -2.952321 0.6409732 23 160 153
0.13623787 -3.010935 0.67991215 2 108 108
0.3082334 -2.7853875 0.74615 21 154 151
0.18990207 -3.021319 0.71456873 8 88 89
0.36615345 -2.7883854 0.78437084 21 123 125
0.2295734 -3.0279353 0.74088037 10 127 121
0.4241411 -2.8083367 0.82614857 19 145 141
0.3339673 -3.0052125 0.80036116 0 77 75
0.41273096 -2.9702463 0.8443932 46 148 153
0.4407284 -2.9332087 0.8544549 21 162 171
0.4698 -2.8972256 0.8671221 0 78 72
2.6688027 -1.2185531 3.1806583 17 148 16
2.6806448 -1.1744901 3.2217817 32 141 34
2.691669 -1.2956078 3.1396825 2 60 0
2.7183828 -1.1096916 3.2988791 27 140 26
2.7343035 -1.3195451 3.165661 0 104 0
2.7651763 -1.0722308 3.3667204 0 72 0
2.802174 -1.0539768 3.407863 1 95 9
2.7622726 -1.311183 3.18517 21 118 23
2.8004642 -1.2921163 3.2271132 0 105 0
2.8296092 -1.0449276 3.4256775 0 85 0
2.870733 -1.0648197 3.4489167 36 183 43
2.8435318 -1.2487311 3.293933 29 137 26
2.8724594 -1.0588236 3.440692 20 126 15
2.8855064 -1.1846178 3.368128 41 146 45
2.8939564 -1.1070747 3.429735 28 130 30
2.8916981 -1.1468 3.4045494 5 147 1
-3.1563704 2.2693717 -4.8546543 40 40 40
-3.1689796 2.20586 -4.7369027 73 73 73
-3.1216435 2.3217912 -4.957953 104 104 104
-3.1622405 2.115289 -4.6047635 122 122 122
-3.0552905 2.3665044 -5.093054 181 181 181
-3.128823 2.0318053 -4.5263143 93 93 93
-2.9311337 2.3545682 -5.215734 160 160 160
-3.0784373 1.9849752 -4.4914317 97 97 97
-3.0293548 1.9675272 -4.5020204 101 101 101
-2.881138 2.3062265 -5.183063 165 165 165
-2.9575126 1.9743682 -4.583787 150 150 150
-2.8912375 2.0158155 -4.7071657 116 116 116
-2.8420243 2.1285973 -4.9368496 125 125 125
-3.138758 -1.8950176 1.1548074 112 10 120
-3.1263707 -1.8578359 1.1222246 138 8 140
-3.0179183 -2.0702577 1.3856107 84 4 89
-2.9970305 -1.8030765 1.0930874 100 0 98
-2.8917408 -1.8327134 1.1572094 78 0 72
-2.7826474 -2.05109 1.4459621 114 0 118
-2.779825 -1.9639782 1.3515304 154 18 162
1.5073202 5.3295355 -18.030327 132 134 11
1.3702934 5.1956005 -17.497147 136 139 24
1.6864622 5.4418087 -18.612675 103 103 15
1.2071935 4.959815 -16.69936 37 38 0
1.9508034 5.5329638 -19.295 148 148 34
1.1854581 4.827633 -16.39523 88 90 0
2.1671169 5.533245 -19.845057 95 99 4
1.2190732 4.736093 -16.235363 109 109 19
2.265043 5.479527 -19.891914 83 85 2
1.2983767 4.6801977 -16.228348 143 148 22
2.298394 5.3705683 -19.765057 105 110 0
1.4588042 4.6645 -16.450203 121 123 13
2.2023413 5.167329 -19.088062 170 174 28
1.7107508 4.7463965 -17.089912 95 92 11
2.0255895 4.961968 -18.181505 83 83 9
1.8574986 4.8322787 -17.534126 59 62 0
0.35253185 0.71187025 1.4701015 96 38 0
0.3570954 0.7429021 1.4377805 159 74 9
0.3621434 0.77575696 1.4100327 88 28 0
0.37525275 0.7900948 1.4157804 131 67 23
0.37126407 0.6615233 1.6208954 75 20 0
0.4027617 0.8300076 1.4768955 157 88 31
0.41332895 0.6463024 1.7906889 135 70 28
0.4524129 0.8735561 1.6185087 127 60 18
0.4827061 0.8918637 1.7304803 95 34 6
0.45075503 0.64797294 1.9243944 117 44 0
0.48311386 0.666404 2.0248957 137 75 28
0.5165991 0.89265704 1.8706671 139 68 14
0.5319274 0.7039915 2.1620169 87 33 0
0.5603706 0.7596666 2.2097385 166 97 40
0.57265073 0.8027077 2.2123795 171 79 14
0.5766318 0.83523875 2.1939268 109 42 0
1.363905 -1.9014153 4.9604745 6 100 102
1.3780637 -1.9350345 4.9882884 19 133 133
1.3701991 -1.8619008 4.95426 5 128 126
1.4252107 -1.9625098 5.04298 24 205 196
1.4053415 -1.7986742 4.974451 0 76 70
1.4612366 -1.755567 5.035382 37 146 151
1.4963814 -1.9835036 5.1460757 2 72 80
1.513004 -1.7353252 5.0824466 7 153 143
1.5495863 -1.9708576 5.1935844 38 158 157
1.5888044 -1.9512607 5.240192 0 56 58
1.5697579 -1.7285135 5.155881 38 133 137
1.6588694 -1.9019161 5.288543 32 151 145
1.6374203 -1.7332329 5.228559 29 135 133
1.691161 -1.8416857 5.3178325 0 82 83
1.6874083 -1.8008746 5.3034086 26 181 175
1.6770177 -1.7622226 5.2986636 0 73 69
3.0232563 0.8193213 7.0435357 23 116 27
3.047214 0.7770504 7.036197 11 135 21
3.0197015 0.8739929 7.065436 6 142 8
3.0700717 0.76652753 7.0509706 40 192 45
3.0943816 0.74292594 7.0632377 12 128 3
3.0331013 0.969369 7.1450024 21 118 15
3.1048565 0.74090856 7.088552 37 180 39
3.1591952 0.744882 7.1441126 29 132 27
3.1987588 0.76954377 7.19515 5 120 1
3.104541 1.0939398 7.311019 0 105 0
3.2380779 0.80887294 7.261441 34 142 41
3.1424901 1.1189137 7.3621564 27 125 24
3.2770221 0.885159 7.3450336 35 143 32
3.2015083 1.1246467 7.4241633 30 127 30
3.2945685 0.98111695 7.41321 18 165 14
3.2826655 1.0356488 7.443752 32 137 34
-1.8708154 0.8575111 0.27439588 124 124 124
-1.8647133 0.8830757 0.26643458 190 190 190
-1.8599868 0.9056576 0.26976916 34 34 34
-1.8551387 0.84032416 0.21532097 42 42 42
-1.8339572 0.93848145 0.23767123 107 107 107
-1.8241873 0.82983273 0.15740871 181 181 181
-1.7916918 0.97397864 0.16588095 159 159 159
-1.7998489 0.83303404 0.10594439 157 157 157
-1.7726539 0.975278 0.14728422 116 116 116
-1.7716295 0.85114515 0.030121794 55 55 55
-1.7412952 0.98396677 0.06986048 139 139 139
-1.7305925 0.8827125 -0.050640658 94 94 94
-1.7093897 0.9116416 -0.06358499 160 160 160
-1.6981568 0.95776755 -0.057018418 144 144 144
-1.5515897 -1.540245 2.686881 119 19 118
-1.5417761 -1.4817135 2.6335888 147 13 148
-1.471438 -1.6149515 2.785199 149 12 152
-1.5179352 -1.4597049 2.6354907 99 0 97
-1.4460834 -1.6183219 2.7997432 113 16 113
-1.4910208 -1.4536355 2.641417 75 0 76
-1.4205021 -1.6136945 2.80378 156 22 147
-1.4639429 -1.4553399 2.6521366 153 35 155
-1.3933812 -1.5928881 2.8076923 195 28 178
-1.4286046 -1.4773607 2.6878757 146 10 146
-1.3826315 -1.5560445 2.7781906 70 0 75
-1.398836 -1.50325 2.723106 106 0 105
-1.2608172 1.536611 1.3314298 92 88 15
-1.2406955 1.5276548 1.2548985 112 111 5
-1.2742478 1.5454268 1.4079312 95 94 0
-1.2762663 1.5560261 1.5063039 114 114 16
-1.202922 1.5112327 1.1815796 132 132 22
-1.1549599 1.5020466 1.1087896 173 174 36
-1.271964 1.5531416 1.6016934 126 126 2
-1.2533413 1.551554 1.6235065 105 108 17
-1.1346107 1.4941083 1.1355244 158 164 40
-1.127411 1.484872 1.1983747 161 160 42
-1.239796 1.5384008 1.6692514 75 71 0
-1.1202451 1.4808006 1.2964442 87 85 0
-1.210764 1.5197237 1.6743106 142 141 35
-1.1664523 1.5053998 1.5745839 168 171 40
-1.1305324 1.4851924 1.4247493 43 43 0
-1.143658 1.494637 1.4995091 168 166 57
-2.32098 -0.01612546 16.472586 162 93 34
-2.5198107 -0.04641822 17.52073 59 16 0
-2.118701 0.021998513 15.328735 181 97 24
-1.8733716 0.08350945 13.888565 108 53 12
-2.6259007 -0.014681701 17.888718 153 82 18
-1.7503791 0.13513544 13.172661 137 71 19
-2.6361995 0.050563935 17.738157 109 51 11
-1.6977454 0.17533208 12.892974 130 66 20
-2.5462523 0.11909135 17.086624 84 21 0
-1.6915021 0.21360327 12.8453455 162 88 27
-2.427112 0.17577267 16.35938 102 50 13
-1.7194183 0.2586978 12.949902 87 32 2
-1.8249563 0.2840796 13.403959 165 87 38
-1.9273714 0.29340717 13.8699465 149 82 30
-2.019251 0.2901601 14.287301 85 26 0
0.38376585 -0.8824263 4.5827646 0 107 98
0.39394593 -0.89856744 4.575813 25 120 126
0.37536627 -0.86109823 4.59763 44 147 152
0.41840145 -0.90969276 4.5829916 22 126 137
0.3787363 -0.8219149 4.6287355 24 109 116
0.45377716 -0.9076227 4.613249 18 97 102
0.39856216 -0.78837055 4.6731286 0 57 66
0.4793344 -0.89674765 4.641395 0 86 81
0.41887277 -0.77187085 4.6900444 41 167 166
0.49785152 -0.8777399 4.665837 27 125 128
0.5166014 -0.8466022 4.688733 0 67 61
0.4731928 -0.7544585 4.7342014 21 136 129
0.51902705 -0.808089 4.726404 19 158 151
0.5103207 -0.78528357 4.7332926 35 143 143
0.57780033 0.65295553 6.2443156 30 151 38
0.6034136 0.63060325 6.209556 14 143 17
0.56387204 0.6775938 6.2601852 31 174 33
0.5456497 0.7242932 6.2966046 27 132 37
0.6771798 0.62249553 6.1536837 39 154 37
0.56213623 0.7902736 6.3049884 0 67 0
0.6976087 0.6365483 6.1366253 10 140 4
0.71030784 0.65793467 6.141347 26 152 29
0.5842258 0.8046847 6.2890105 0 74 0
0.7175117 0.6970754 6.148337 22 128 38
0.62145936 0.8096927 6.253792 0 52 0
0.70813024 0.74210125 6.1680994 0 66 0
0.6899825 0.77017957 6.189226 10 81 13
-7.194402 -0.7174093 -18.147795 60 60 60
-7.359763 -0.69328445 -18.918644 188 188 188
-7.520286 -0.69010997 -19.746874 82 82 82
-7.351723 -0.9988576 -18.815676 129 129 129
-7.1678247 -0.4791248 -19.056278 153 153 153
-7.3010635 -1.1861955 -19.04687 170 170 170
-7.431939 -0.64149976 -20.908817 36 36 36
-6.7729115 -0.42263237 -18.7979 152 152 152
-7.1716194 -1.2429869 -18.973026 138 138 138
-6.9208035 -1.202869 -18.555988 162 162 162
-6.904222 -0.6077521 -19.780626 165 165 165
-6.8806067 -0.80297846 -20.187202 66 66 66
-6.8930693 -1.2609369 -19.24192 77 77 77
-6.718656 -1.1270634 -19.147263 166 166 166
-6.5000253 -0.8085533 -18.713959 160 160 160
-6.457753 -0.89767444 -18.415068 134 134 134
-6.986884 -7.216068 -8.338714 70 1 68
-6.6050158 -6.9144683 -8.23543 140 11 130
-6.193699 -6.673917 -6.7559867 145 12 153
-6.41219 -6.8090997 -8.020762 119 20 126
-6.0306916 -6.3884416 -7.240506 158 15 159
-5.4025707 -5.788933 -5.796183 156 20 152
-5.8075294 -6.430931 -6.8700495 88 0 85
-5.9757566 -6.7667117 -7.233884 84 6 81
7.282784 2.5576189 136.61945 42 46 0
6.43418 3.239067 120.192566 35 35 0
6.350615 2.0779696 125.77154 55 57 0
6.3538275 4.0541368 122.061806 114 116 7
4.526369 1.358411 122.288574 142 138 47
5.5595407 4.728792 118.548035 77 81 0
3.8232598 1.4797422 120.28782 128 129 1
4.879347 4.877925 116.43335 172 171 27
4.881967 5.107101 128.21986 178 180 47
3.20906 1.7792464 118.20911 138 133 41
3.2827759 4.684417 109.55058 164 161 56
2.8130755 2.2840946 124.59212 108 100 19
2.7238903 4.2567325 112.17352 76 74 0
2.7531812 3.1951451 132.39044 100 98 0
2.4414244 3.7683527 112.474464 96 96 8
2.6418247 -4.6857944 -19.827492 82 20 0
2.6991298 -5.013839 -20.534012 126 61 21
2.7723105 -4.7146745 -20.433794 100 44 11
2.4613214 -4.436651 -17.673893 100 39 0
3.3177016 -5.015345 -22.237871 122 66 17
2.5415938 -4.4326806 -17.19395 138 66 16
2.7114143 -4.6728463 -17.799421 90 36 8
3.3846693 -4.861194 -21.573914 139 57 0
2.853037 -4.704592 -17.842432 129 57 9
3.5007455 -4.89589 -21.396172 146 81 25
3.8858495 -5.546263 -23.363539 77 25 1
3.0872679 -4.7683854 -18.24225 154 79 21
3.4236586 -4.5933113 -19.636019 154 87 34
3.5220103 -4.90608 -20.115946 174 86 14
3.3162081 -4.8636503 -18.988749 69 26 0
3.4242322 -4.8743916 -19.453186 142 76 24
-0.14453168 4.901176 10.824693 0 66 65
-0.14271055 4.7714896 10.681848 25 163 174
-0.14652827 4.7536798 10.67713 0 89 93
-0.16076948 5.174432 11.136708 0 45 45
-0.17388394 4.882311 10.873097 4 103 98
-0.18685965 5.3638883 11.341343 34 134 134
-0.20953745 5.036793 11.086602 20 150 140
-0.26228642 5.528591 11.732589 30 192 181
-0.21262003 5.492664 11.485745 9 145 143
-0.24261107 5.2297535 11.337781 0 80 84
-0.24695666 5.6961074 11.735005 34 134 134
-0.30006614 5.6919785 11.926116 39 193 191
-0.2967377 5.9294286 12.039044 26 150 142
-0.3306632 5.824205 12.058907 9 99 97
-0.3535594 6.2284927 12.4530115 0 75 74
-0.34663138 6.046139 12.254795 30 168 179
-0.35173553 6.0275273 12.266647 0 107 107
-1.8134911 6.3983593 13.248693 22 127 24
-1.8562263 6.4285545 13.344739 10 144 9
-2.042147 6.673312 13.764312 12 97 6
-1.7724047 6.352319 12.981525 19 164 25
-1.7532375 6.2642198 12.831724 35 143 34
-1.8684281 6.4364824 13.059442 30 169 26
-2.0037708 6.598661 13.296022 36 151 32
-2.29568 6.8829503 13.971864 0 55 0
-2.553358 7.3603334 14.642405 33 193 33
-2.2447631 6.934173 13.818069 0 80 0
-2.3583963 7.0308166 14.081827 0 115 5
-2.2565212 6.890371 13.811418 5 101 14
