ply
format ascii 1.0
element vertex 19
property float x
property float y
property float z
property uchar red
property uchar green
property uchar blue
end_header
0 0 0 255 0 0
-0.10845039 -0.46551794 2.693798 157 4 4
0.08043695 -0.035006877 -0.0855868 173 124 7
0.75346917 0.4715509 -6.325327 147 117 9
0.5186984 0.3506771 -4.8570848 173 101 10
0.48366636 0.3526455 -5.0039744 172 102 10
0.4146998 0.31173185 -4.4734654 171 103 10
0.4645773 0.35321122 -5.074746 172 103 10
0.3546255 0.3244402 -4.892032 173 100 10
0.29778728 0.28358018 -4.324667 174 98 10
0.32907197 0.31993324 -4.8904443 175 99 10
0.1822485 0.25499603 -4.163468 159 99 9
0.15955155 0.2417558 -3.9906127 177 88 10
0.08916459 0.16425845 -2.8024583 160 99 9
0.02874331 0.022744723 -0.40653557 171 149 10
0.02893248 0.022656599 -0.40049666 5 105 5
-0.30338237 -0.10945439 -3.2120872 102 102 2
-1.2425174 1.4304116 11.632877 2 82 2
0.056923 0.12862347 0.024915025 81 99 4
