ply
format ascii 1.0
element vertex 11
property float x
property float y
property float z
property uchar red
property uchar green
property uchar blue
end_header
0 0 0 255 0 0
0.0805136 0.3666644 -2.8155649 86 1 1
-0.6553445 0.76458067 -6.1455717 182 115 8
-0.49809027 -0.27282062 3.345022 112 91 6
-0.4506021 -0.25069243 3.0704482 174 101 11
0.044297237 0.01919091 -0.42573318 16 16 0
0.02334655 0.026960365 -0.46666962 140 147 8
0.023275144 0.027117679 -0.4678158 29 108 5
0.21312964 0.11067243 0.7887596 112 112 4
0.6407281 -0.7094513 -7.308077 3 90 3
0.07682888 0.19114937 0.3493049 106 107 3
