ply
format ascii 1.0
element vertex 9
property float x
property float y
property float z
property uchar red
property uchar green
property uchar blue
end_header
0 0 0 255 0 0
0.02775216 0.039210893 -0.6502071 178 6 6
0.10336392 -0.058678787 0.09622082 162 162 7
0.04666019 0.042151082 -0.74353796 102 120 8
0.026914766 0.027777985 -0.51473016 177 151 10
0.026932128 0.027666997 -0.50966644 5 104 5
-0.04277895 0.0024839854 -1.111578 120 120 3
-0.00094157946 0.061311033 -0.32931757 3 84 3
0.023900436 0.024290122 -0.64109606 94 97 2
